<svg width="24" height="24" viewBox="0 0 24 24" fill="none" xmlns="http://www.w3.org/2000/svg">
<path d="M12.2502 14.0373L7.11049 8.89739C7.01598 8.80288 6.88781 8.74979 6.75416 8.74979C6.62051 8.74979 6.49234 8.80288 6.39784 8.89739C6.30334 8.99189 6.25024 9.12006 6.25024 9.25371C6.25024 9.38736 6.30334 9.51553 6.39784 9.61003L11.8973 15.1026C11.9441 15.1494 11.9996 15.1865 12.0608 15.2118C12.1219 15.2371 12.1874 15.2502 12.2536 15.2502C12.3198 15.2502 12.3853 15.2371 12.4465 15.2118C12.5076 15.1865 12.5631 15.1494 12.6099 15.1026L18.1026 9.61017C18.1971 9.51567 18.2502 9.38749 18.2502 9.25383C18.2503 9.12017 18.1972 8.99198 18.1027 8.89746C18.0082 8.80293 17.88 8.74982 17.7463 8.74981C17.6127 8.7498 17.4845 8.80288 17.39 8.89739L12.2502 14.0373Z" fill="#7C7C7C"/>
</svg>
