<svg width="104" height="29" viewBox="0 0 104 29" fill="none" xmlns="http://www.w3.org/2000/svg">
<g clip-path="url(#clip0_7910_64722)">
<path d="M99.6206 8.7753C94.3979 14.2188 88.1921 18.6771 81.4013 22.0496C74.747 25.3551 67.5299 27.5252 60.1362 28.4798C52.7424 29.4344 45.4243 29.0875 38.2563 27.4785C31.1417 25.8826 24.3241 23.1514 18.1242 19.3679C11.9437 15.5975 6.36753 10.8142 1.8086 5.24394C1.25173 4.56332 0.709708 3.86958 0.182535 3.16564C-0.614906 2.10026 1.39429 -0.921003 2.29271 0.278463C6.519 5.92019 11.7284 10.8084 17.6327 14.7362C23.5251 18.6552 30.0695 21.6357 36.9317 23.4925C43.874 25.3711 51.146 26.0124 58.32 25.4192C65.5445 24.8216 72.6413 22.9649 79.2495 20.0442C82.5432 18.5882 85.629 16.8976 88.6852 14.8688C90.1954 13.8661 91.6626 12.8007 93.0778 11.6741C93.2604 11.5298 93.4416 11.3826 93.6213 11.2369C93.6495 11.2136 93.8514 11.046 93.6673 11.199C93.7475 11.1334 93.8262 11.0678 93.9064 11.0008C94.2643 10.702 94.6177 10.4003 94.9682 10.0943C95.6498 9.49964 96.3165 8.88898 96.9699 8.2652C97.6233 7.63996 98.2619 7.0016 98.8885 6.34867C99.3281 5.89104 100.191 5.61267 100.443 6.3924C100.696 7.17212 100.167 8.2069 99.6192 8.77821L99.6206 8.7753Z" fill="#00C83C"/>
<path d="M93.479 16.8567C95.304 13.8004 97.1291 10.7427 98.9541 7.6865C99.4709 6.82079 99.9877 5.95507 100.504 5.08936L103.25 6.96653C100.228 7.99402 97.2063 9.02297 94.1843 10.0505C93.3319 10.3405 92.481 10.6305 91.6287 10.9191C91.1876 11.0692 90.7228 11.0969 90.2654 10.9949C89.8556 10.9031 89.3447 10.6757 89.07 10.3478C88.8458 10.0796 88.6334 9.71962 88.7418 9.35672C88.8502 8.99382 89.119 8.72274 89.4739 8.60177C92.4959 7.57428 95.5179 6.54533 98.5398 5.51784C99.3922 5.22781 100.243 4.93778 101.095 4.64921C101.464 4.52387 101.828 4.49181 102.214 4.54136C102.6 4.59091 103.019 4.71042 103.333 4.94507C103.55 5.10684 103.746 5.29777 103.88 5.53242C104.061 5.85014 104.022 6.22178 103.841 6.52493C102.016 9.58116 100.191 12.6389 98.3661 15.6951C97.8493 16.5608 97.3325 17.4265 96.8157 18.2922C96.6272 18.607 96.152 18.7878 95.8134 18.8446C95.3679 18.9189 94.7976 18.8504 94.3893 18.6581C93.6973 18.3316 93.0112 17.6379 93.4775 16.8567H93.479Z" fill="#00C83C"/>
</g>
<defs>
<clipPath id="clip0_7910_64722">
<rect width="104" height="29" fill="white" transform="matrix(1 0 0 -1 0 29)"/>
</clipPath>
</defs>
</svg>
