<svg width="104" height="29" viewBox="0 0 104 29" fill="none" xmlns="http://www.w3.org/2000/svg">
<g clip-path="url(#clip0_7910_64728)">
<path d="M99.6206 20.2247C94.3979 14.7812 88.1921 10.3229 81.4013 6.9504C74.747 3.64494 67.5299 1.47483 60.1362 0.520208C52.7424 -0.434411 45.4243 -0.087542 38.2563 1.52146C31.1417 3.11735 24.3241 5.84858 18.1242 9.63208C11.9437 13.4025 6.36753 18.1858 1.8086 23.7561C1.25173 24.4367 0.709708 25.1304 0.182535 25.8344C-0.614906 26.8997 1.39429 29.921 2.29271 28.7215C6.519 23.0798 11.7284 18.1916 17.6327 14.2638C23.5251 10.3448 30.0695 7.36431 36.9317 5.50754C43.874 3.62891 51.146 2.98764 58.32 3.58082C65.5445 4.17836 72.6413 6.03513 79.2495 8.95583C82.5432 10.4118 85.629 12.1024 88.6852 14.1312C90.1954 15.1339 91.6626 16.1993 93.0778 17.3259C93.2604 17.4702 93.4416 17.6174 93.6213 17.7631C93.6495 17.7864 93.8514 17.954 93.6673 17.801C93.7475 17.8666 93.8262 17.9322 93.9064 17.9992C94.2643 18.298 94.6177 18.5997 94.9682 18.9057C95.6498 19.5004 96.3165 20.111 96.9699 20.7348C97.6233 21.36 98.2619 21.9984 98.8885 22.6513C99.3281 23.109 100.191 23.3873 100.443 22.6076C100.696 21.8279 100.167 20.7931 99.6192 20.2218L99.6206 20.2247Z" fill="#00C83C"/>
<path d="M93.479 12.1433C95.304 15.1996 97.1291 18.2573 98.9541 21.3135C99.4709 22.1792 99.9877 23.0449 100.504 23.9106L103.25 22.0335C100.228 21.006 97.2063 19.977 94.1843 18.9495C93.3319 18.6595 92.481 18.3695 91.6287 18.0809C91.1876 17.9308 90.7228 17.9031 90.2654 18.0051C89.8556 18.0969 89.3447 18.3243 89.07 18.6522C88.8458 18.9204 88.6334 19.2804 88.7418 19.6433C88.8502 20.0062 89.119 20.2773 89.4739 20.3982C92.4959 21.4257 95.5179 22.4547 98.5398 23.4822C99.3922 23.7722 100.243 24.0622 101.095 24.3508C101.464 24.4761 101.828 24.5082 102.214 24.4586C102.6 24.4091 103.019 24.2896 103.333 24.0549C103.55 23.8932 103.746 23.7022 103.88 23.4676C104.061 23.1499 104.022 22.7782 103.841 22.4751C102.016 19.4188 100.191 16.3611 98.3661 13.3049C97.8493 12.4392 97.3325 11.5735 96.8157 10.7078C96.6272 10.393 96.152 10.2122 95.8134 10.1554C95.3679 10.0811 94.7976 10.1496 94.3893 10.3419C93.6973 10.6684 93.0112 11.3621 93.4775 12.1433H93.479Z" fill="#00C83C"/>
</g>
<defs>
<clipPath id="clip0_7910_64728">
<rect width="104" height="29" fill="white"/>
</clipPath>
</defs>
</svg>
