<svg width="61" height="61" viewBox="0 0 61 61" fill="none" xmlns="http://www.w3.org/2000/svg">
<g clip-path="url(#clip0_7012_64635)">
<path d="M58.2333 54.1768H17.19C16.6531 54.1772 16.1376 53.9644 15.7575 53.5852C15.3775 53.206 15.1641 52.6914 15.1633 52.1545C15.1633 51.8884 15.2159 51.625 15.3177 51.3792C15.4196 51.1333 15.5693 50.9098 15.7575 50.7217C15.9457 50.5336 16.1679 50.3844 16.4138 50.2826C16.6597 50.1808 16.9239 50.1286 17.19 50.1287H54.6956L31.2801 9.56499L11.7924 43.3239C11.6606 43.5543 11.4855 43.7564 11.2754 43.9188C11.0654 44.0811 10.8244 44.2006 10.5682 44.2702C10.312 44.3397 10.0456 44.3581 9.78233 44.3243C9.51903 44.2904 9.26398 44.2049 9.03371 44.0728C8.56909 43.8064 8.22974 43.3665 8.08931 42.8496C7.94888 42.3328 8.01918 41.7813 8.28508 41.3163L29.5402 4.52918C29.7148 4.21716 29.9694 3.95732 30.2778 3.77643C30.5862 3.59553 30.9377 3.50012 31.2953 3.5C31.6526 3.50029 32.0032 3.59588 32.3113 3.77677C32.6195 3.95766 32.8745 4.21732 33.0489 4.52918L59.9732 51.1493C60.1532 51.455 60.2488 51.8031 60.2503 52.1579C60.2518 52.5127 60.1589 52.8616 59.9815 53.1689C59.8062 53.4755 59.5522 53.7303 59.2466 53.9073C58.941 54.0844 58.5948 54.1773 58.2416 54.1768H58.2333ZM28.4304 44.4928C28.4307 43.8411 28.6892 43.2162 29.15 42.7553C29.6109 42.2945 30.2368 42.0354 30.8885 42.035C31.2114 42.0348 31.5305 42.0982 31.8288 42.2216C32.1271 42.3451 32.3988 42.5262 32.6271 42.7545C32.8553 42.9828 33.0358 43.2538 33.1592 43.552C33.2827 43.8503 33.3469 44.17 33.3467 44.4928C33.347 44.8157 33.2826 45.1356 33.1592 45.4339C33.0358 45.7323 32.8553 46.0033 32.6271 46.2317C32.3988 46.46 32.1271 46.6412 31.8288 46.7647C31.5305 46.8882 31.2114 46.9517 30.8885 46.9515C30.2367 46.9512 29.6109 46.6918 29.15 46.2308C28.6891 45.7698 28.4305 45.1447 28.4304 44.4928ZM29.0039 37.1481V21.5573C29.0036 21.3093 29.0525 21.0637 29.1473 20.8345C29.242 20.6053 29.3814 20.3971 29.5567 20.2217C29.7321 20.0463 29.9397 19.9072 30.1689 19.8124C30.398 19.7175 30.6433 19.6688 30.8913 19.669C31.1393 19.6689 31.3859 19.7177 31.6151 19.8125C31.8443 19.9074 32.0518 20.0465 32.2272 20.2218C32.4027 20.3972 32.5418 20.6054 32.6367 20.8345C32.7317 21.0636 32.7801 21.3092 32.7801 21.5573V37.1481C32.7795 37.6488 32.5814 38.129 32.2272 38.483C31.8731 38.837 31.3921 39.036 30.8913 39.0364C30.3905 39.0364 29.9109 38.8374 29.5567 38.4833C29.2026 38.1292 29.0039 37.6489 29.0039 37.1481Z" fill="#3F3F3F"/>
<path d="M10.683 52.108C10.683 53.1397 10.377 54.1482 9.80384 55.0061C9.23064 55.8639 8.41594 56.5325 7.46275 56.9274C6.50956 57.3222 5.4607 57.4255 4.4488 57.2242C3.4369 57.0229 2.50741 56.5261 1.77788 55.7966C1.04834 55.067 0.551515 54.1376 0.350236 53.1257C0.148956 52.1138 0.25226 51.0649 0.647084 50.1117C1.04191 49.1585 1.71052 48.3438 2.56836 47.7706C3.42621 47.1974 4.43476 46.8915 5.46649 46.8915C6.84999 46.8915 8.17682 47.4411 9.1551 48.4194C10.1334 49.3976 10.683 50.7245 10.683 52.108Z" fill="#00C83C"/>
</g>
<defs>
<clipPath id="clip0_7012_64635">
<rect width="60" height="60" fill="white" transform="translate(0.25 0.5)"/>
</clipPath>
</defs>
</svg>
