<svg width="60" height="61" viewBox="0 0 60 61" fill="none" xmlns="http://www.w3.org/2000/svg">
<g clip-path="url(#clip0_7012_64630)">
<path d="M11.6939 45.0878C11.6939 46.0958 11.395 47.0812 10.8349 47.9194C10.2749 48.7576 9.47893 49.4109 8.54762 49.7967C7.61632 50.1825 6.59153 50.2834 5.60284 50.0868C4.61415 49.8902 3.70596 49.4049 2.99311 48.6921C2.28026 47.9794 1.79477 47.0712 1.59802 46.0826C1.40128 45.0939 1.50211 44.0691 1.88778 43.1378C2.27345 42.2064 2.92663 41.4103 3.76472 40.8502C4.60282 40.29 5.58819 39.991 6.59624 39.9908C7.94803 39.9908 9.24446 40.5278 10.2003 41.4837C11.1562 42.4396 11.6932 43.736 11.6932 45.0878" fill="#00C83C"/>
<path d="M31.4528 60.5C29.4754 60.4916 27.5817 59.7022 26.1837 58.3037C24.7858 56.9052 23.9966 55.011 23.989 53.0336C23.9888 52.7933 24.0365 52.5553 24.1282 52.3333C24.22 52.1112 24.3541 51.9095 24.5239 51.7394C24.6936 51.5694 24.8948 51.4345 25.1167 51.3424C25.3386 51.2503 25.5768 51.2026 25.817 51.2025C26.0573 51.2026 26.2955 51.2503 26.5174 51.3424C26.7393 51.4345 26.9404 51.5694 27.1102 51.7394C27.2799 51.9095 27.4154 52.1112 27.5072 52.3333C27.599 52.5553 27.6453 52.7933 27.6451 53.0336C27.645 53.5377 27.7445 54.0369 27.9373 54.5027C28.1302 54.9685 28.4122 55.3916 28.7686 55.7481C29.1251 56.1046 29.5492 56.3875 30.0149 56.5804C30.4806 56.7734 30.979 56.8727 31.4831 56.8727C32.5013 56.8727 33.479 56.4682 34.199 55.7483C34.919 55.0283 35.3226 54.0518 35.3226 53.0336C35.3223 52.7934 35.3702 52.5554 35.4618 52.3334C35.5535 52.1114 35.6878 51.9098 35.8575 51.7398C36.0271 51.5698 36.2285 51.4347 36.4503 51.3426C36.6721 51.2504 36.9091 51.2027 37.1492 51.2025C37.3895 51.2026 37.6277 51.2503 37.8496 51.3424C38.0715 51.4345 38.2726 51.5694 38.4424 51.7394C38.6121 51.9095 38.7476 52.1112 38.8394 52.3333C38.9312 52.5553 38.9775 52.7933 38.9773 53.0336C38.9698 55.0168 38.1767 56.9161 36.7715 58.3156C35.3663 59.7151 33.4636 60.5006 31.4804 60.5H31.4528ZM16.8795 47.0373C16.3856 46.9765 15.9311 46.7371 15.6015 46.3644C15.2719 45.9916 15.0899 45.5113 15.09 45.0137C15.0898 44.5158 15.272 44.035 15.6015 43.6618C15.931 43.2886 16.3854 43.0486 16.8795 42.9871H52.172C49.5032 39.1515 46.2357 31.9553 46.2357 19.5126C46.3568 16.8078 45.7433 14.1208 44.46 11.7367C43.1767 9.35268 41.2714 7.36074 38.9469 5.9724C36.6232 4.58251 33.9661 3.84848 31.2584 3.84848C28.5507 3.84848 25.8936 4.58251 23.5699 5.9724C21.2456 7.36107 19.3417 9.35313 18.0582 11.7371C16.7747 14.121 16.1594 16.8078 16.2798 19.5126C16.2798 26.1363 15.3838 31.9554 13.5556 36.8109C13.4739 37.1952 13.2823 37.5478 13.0056 37.8266C12.7288 38.1055 12.3787 38.2989 11.9951 38.3836C11.6117 38.4674 11.2113 38.4386 10.8439 38.3009C10.4765 38.1631 10.1568 37.9222 9.923 37.6071C9.68801 37.2929 9.54962 36.9174 9.5232 36.5259C9.49677 36.1344 9.58348 35.7436 9.77411 35.4006C11.4244 31.0244 12.2639 25.6868 12.2639 19.5388C12.2638 17.0386 12.756 14.5628 13.7128 12.2528C14.6696 9.9429 16.0724 7.84409 17.8404 6.07615C19.6083 4.3082 21.7066 2.90568 24.0166 1.94892C26.3265 0.992161 28.8023 0.499907 31.3025 0.5C33.8028 0.499815 36.2785 0.992022 38.5885 1.94875C40.8985 2.90548 42.9981 4.30784 44.7661 6.0758C46.534 7.84376 47.9369 9.94269 48.8936 12.2527C49.8504 14.5627 50.3427 17.0385 50.3426 19.5388C50.3426 37.8006 57.8683 43.3182 57.9594 43.3768L57.9263 43.3182C58.2818 43.5612 58.5521 43.9111 58.6956 44.3171C58.8391 44.7232 58.8497 45.1644 58.7259 45.5769C58.6033 45.9902 58.3515 46.3541 58.009 46.616C57.6666 46.8779 57.2503 47.0245 56.8193 47.0346L16.8795 47.0373Z" fill="#3F3F3F"/>
</g>
<defs>
<clipPath id="clip0_7012_64630">
<rect width="60" height="60" fill="white" transform="translate(0 0.5)"/>
</clipPath>
</defs>
</svg>
