<svg width="61" height="61" viewBox="0 0 61 61" fill="none" xmlns="http://www.w3.org/2000/svg">
<g clip-path="url(#clip0_6805_28005)">
<path d="M48.8969 24.971C47.5694 24.9704 46.2513 25.2075 44.998 25.6723L41.8488 19.1405L42.5696 16.7503H45.2091C45.6865 16.7503 46.1444 16.5488 46.4819 16.1901C46.8195 15.8314 47.0092 15.345 47.0092 14.8378C47.0092 14.3305 46.8195 13.8441 46.4819 13.4854C46.1444 13.1267 45.6865 12.9253 45.2091 12.9253H36.2106C35.7332 12.9253 35.2753 13.1267 34.9377 13.4854C34.6001 13.8441 34.4105 14.3305 34.4105 14.8378C34.4105 15.345 34.6001 15.8314 34.9377 16.1901C35.2753 16.5488 35.7332 16.7503 36.2106 16.7503H38.7901L38.61 17.3878H20.6152L21.2449 15.2878C21.3517 14.9372 21.5598 14.6313 21.8396 14.4136C22.1195 14.1959 22.4567 14.0774 22.8036 14.075H26.0438C26.5212 14.075 26.9791 13.8735 27.3167 13.5148C27.6542 13.1562 27.8439 12.6697 27.8439 12.1625C27.8439 11.6553 27.6542 11.1688 27.3167 10.8102C26.9791 10.4515 26.5212 10.25 26.0438 10.25H22.8036C21.6883 10.2485 20.6016 10.6245 19.701 11.3235C18.8004 12.0224 18.1328 13.008 17.795 14.1373L16.4163 18.725L14.4969 25.1C11.5416 24.5993 8.5174 25.3024 6.02902 27.0686C3.54065 28.8348 1.77158 31.5339 1.07562 34.6261C0.379669 37.7184 0.808136 40.9758 2.27533 43.7469C3.74253 46.5179 6.14029 48.5984 8.98908 49.5722C11.8379 50.546 14.9276 50.3412 17.6405 48.999C20.3533 47.6567 22.4892 45.2759 23.621 42.3326C24.7528 39.3893 24.797 36.1006 23.7449 33.1242C22.6927 30.1478 20.6217 27.7031 17.9461 26.279L18.4557 24.6223L33.1807 38.9593H33.2104L33.4504 39.1505H33.48L33.7497 39.278H33.7794L34.0794 39.3733H37.1982C37.5477 41.7497 38.5308 43.9699 40.0312 45.7712C41.5315 47.5724 43.4862 48.8792 45.6638 49.5369C47.8415 50.1945 50.1509 50.1755 52.3187 49.482C54.4865 48.7885 56.4219 47.4496 57.8957 45.6239C59.3695 43.7981 60.3201 41.5619 60.6349 39.18C60.9497 36.7981 60.6155 34.3703 59.6719 32.1839C58.7283 29.9975 57.2148 28.1442 55.3105 26.8433C53.4063 25.5424 51.1911 24.8484 48.9272 24.8435L48.8969 24.971ZM20.8552 37.589C20.8552 39.322 20.3715 41.016 19.4653 42.457C18.5591 43.8979 17.2711 45.021 15.7641 45.6842C14.2571 46.3474 12.5989 46.521 10.9991 46.1829C9.39928 45.8449 7.92974 45.0105 6.77629 43.7851C5.62285 42.5598 4.83731 40.9986 4.519 39.2989C4.20069 37.5992 4.36392 35.8375 4.98803 34.2364C5.61215 32.6352 6.66913 31.2667 8.02531 30.3038C9.38149 29.3409 10.976 28.8269 12.6071 28.8268C13.6902 28.8267 14.7628 29.0532 15.7635 29.4935C16.7642 29.9338 17.6734 30.5792 18.4393 31.3929C19.2053 32.2066 19.8128 33.1725 20.2273 34.2357C20.6419 35.2988 20.8552 36.4383 20.8552 37.589ZM41.7888 27.488C39.2999 29.4693 37.6417 32.4088 37.1706 35.675H36.8706L40.2894 24.3335L41.7888 27.488ZM45.7463 35.675H40.8295C41.2114 33.8433 42.1366 32.1903 43.469 30.959L45.7463 35.675ZM33.5118 34.148L20.2552 21.2428H37.4093L33.5118 34.148ZM48.8672 46.352C46.9942 46.3493 45.1779 45.6693 43.717 44.424C42.2562 43.1786 41.2378 41.4421 40.8295 39.5H48.6872C48.9996 39.5052 49.308 39.4239 49.5819 39.264C49.8558 39.1041 50.0857 38.8712 50.2492 38.5882C50.4126 38.3053 50.5038 37.9819 50.5139 37.6501C50.524 37.3182 50.4525 36.9893 50.3066 36.6958L46.6478 29.1455C47.7812 28.8119 48.9687 28.7398 50.1306 28.9339C51.2925 29.128 52.4018 29.5839 53.3842 30.271C54.3666 30.9581 55.1994 31.8605 55.8265 32.9176C56.4536 33.9747 56.8607 35.1621 57.0204 36.4001C57.1801 37.6381 57.0887 38.8981 56.7524 40.0955C56.416 41.2929 55.8425 42.4 55.0703 43.3425C54.2981 44.2851 53.3451 45.0413 52.2752 45.5603C51.2054 46.0794 50.0434 46.3493 48.8672 46.352Z" fill="#3F3F3F"/>
<path d="M16.5059 37.589C16.5059 38.4083 16.2773 39.2091 15.8488 39.8903C15.4204 40.5715 14.8115 41.1024 14.0991 41.416C13.3867 41.7295 12.6027 41.8115 11.8464 41.6517C11.0901 41.4918 10.3954 41.0973 9.85017 40.518C9.30491 39.9387 8.93358 39.2007 8.78314 38.3971C8.6327 37.5936 8.70991 36.7608 9.00501 36.0039C9.3001 35.247 9.79983 34.6 10.441 34.1449C11.0822 33.6897 11.836 33.4468 12.6071 33.4468C13.6411 33.4468 14.6328 33.8832 15.364 34.66C16.0952 35.4368 16.5059 36.4904 16.5059 37.589Z" fill="#00C83C"/>
</g>
<defs>
<clipPath id="clip0_6805_28005">
<rect width="60" height="60" fill="white" transform="translate(0.749992 0.5)"/>
</clipPath>
</defs>
</svg>
