<svg width="61" height="61" viewBox="0 0 61 61" fill="none" xmlns="http://www.w3.org/2000/svg">
<g clip-path="url(#clip0_5834_202)">
<path d="M24.9364 60.5684C24.3748 60.5684 23.8364 60.3453 23.4392 59.9481C23.0421 59.551 22.8189 59.0124 22.8189 58.4508C22.8189 57.8892 23.0421 57.3505 23.4392 56.9534C23.8364 56.5563 24.3748 56.3332 24.9364 56.3332H36.5487C37.1103 56.3332 37.6488 56.5563 38.0459 56.9534C38.443 57.3505 38.6663 57.8892 38.6663 58.4508C38.6663 59.0124 38.443 59.551 38.0459 59.9481C37.6488 60.3453 37.1103 60.5684 36.5487 60.5684H24.9364ZM23.2421 55.2448C22.6805 55.2448 22.142 55.0217 21.7449 54.6245C21.3478 54.2274 21.1245 53.6888 21.1245 53.1272C21.1245 52.5656 21.3478 52.0269 21.7449 51.6298C22.142 51.2327 22.6805 51.0096 23.2421 51.0096H38.2113C38.7729 51.0096 39.3114 51.2327 39.7085 51.6298C40.1056 52.0269 40.3289 52.5656 40.3289 53.1272C40.3289 53.6888 40.1056 54.2274 39.7085 54.6245C39.3114 55.0217 38.7729 55.2448 38.2113 55.2448H23.2421ZM22.2453 49.9551C21.6837 49.9551 21.1453 49.7318 20.7481 49.3347C20.351 48.9376 20.1278 48.3991 20.1278 47.8375V43.4209C19.4043 43.0454 18.7074 42.6209 18.0419 42.1503C17.813 41.9917 17.6176 41.7896 17.467 41.5554C17.3164 41.3213 17.2145 41.0598 17.1651 40.7858C17.1156 40.5118 17.1196 40.2308 17.1789 39.9588C17.2382 39.6868 17.3507 39.4291 17.5097 39.2006C17.6686 38.9719 17.871 38.7769 18.1053 38.6265C18.3396 38.4762 18.6019 38.3734 18.876 38.3243C19.15 38.2752 19.4312 38.2807 19.7031 38.3403C19.9751 38.3999 20.2317 38.5126 20.46 38.6718C21.2941 39.2555 22.1868 39.7523 23.1222 40.1542C23.4933 40.3233 23.8067 40.5959 24.0265 40.9394C24.2464 41.2828 24.3633 41.6825 24.3615 42.0903V45.7206H37.1236V42.0903C37.121 41.6827 37.2364 41.2831 37.4558 40.9395C37.6752 40.596 37.9893 40.3233 38.3602 40.1542C42.423 38.3202 45.6865 35.0808 47.5516 31.0321C49.4166 26.9835 49.7576 22.3977 48.5111 18.1179C47.2649 13.8384 44.5163 10.1522 40.7701 7.737C37.0239 5.32178 32.532 4.33982 28.1197 4.97128C23.7072 5.60312 19.6699 7.80598 16.7515 11.1753C13.833 14.5446 12.2295 18.8541 12.2337 23.3116C12.2122 24.1207 12.2633 24.93 12.3867 25.7299C12.4705 26.1068 12.4492 26.4993 12.3261 26.8652C12.2029 27.2311 11.9824 27.5563 11.6878 27.8058C11.3932 28.0559 11.0354 28.2204 10.6538 28.2812C10.2722 28.3421 9.88106 28.2971 9.5233 28.151C9.16622 28.0054 8.85537 27.7654 8.62443 27.4566C8.39349 27.1479 8.2509 26.782 8.21222 26.3984C8.05138 25.3779 7.98175 24.3451 8.00404 23.3123C8.00282 17.9162 9.92106 12.6954 13.4152 8.58331C16.9093 4.4712 21.7519 1.73575 27.0775 0.86588C32.4023 -0.00405788 37.8632 1.04808 42.4837 3.83408C47.1042 6.62008 50.5836 10.9585 52.2996 16.0738C54.0166 21.1886 53.8586 26.7473 51.8543 31.7566C49.85 36.7659 46.1301 40.8992 41.3587 43.418V47.8346C41.3587 48.3962 41.1355 48.9348 40.7383 49.332C40.3412 49.7291 39.8028 49.9522 39.2412 49.9522L22.2453 49.9551Z" fill="#3F3F3F"/>
<path d="M18.5527 34.6229C18.4502 35.794 17.9448 36.8934 17.1227 37.7337C16.3005 38.574 15.2125 39.1033 14.0439 39.2314C12.8753 39.3596 11.6985 39.0786 10.7138 38.4365C9.72908 37.7943 8.99745 36.8306 8.64352 35.7096C8.28959 34.5886 8.33523 33.3795 8.77269 32.2883C9.21015 31.1972 10.0124 30.2914 11.0427 29.7253C12.073 29.1592 13.2677 28.9678 14.4233 29.1837C15.5789 29.3996 16.6239 30.0095 17.3803 30.9094C17.8099 31.4206 18.1346 32.0114 18.3358 32.6481C18.5369 33.2848 18.6107 33.9549 18.5527 34.6201" fill="#00C83C"/>
</g>
<defs>
<clipPath id="clip0_5834_202">
<rect width="60" height="60" fill="white" transform="translate(0.5 0.568359)"/>
</clipPath>
</defs>
</svg>
