<svg width="60" height="61" viewBox="0 0 60 61" fill="none" xmlns="http://www.w3.org/2000/svg">
<g clip-path="url(#clip0_6805_28014)">
<path d="M15.0479 56.5985C14.8351 56.5991 14.6245 56.5577 14.4278 56.4767C14.231 56.3957 14.0521 56.2767 13.9014 56.1265C13.7506 55.9763 13.6317 55.7979 13.55 55.6014C13.4682 55.4049 13.4262 55.1942 13.4259 54.9813C13.4259 54.5507 13.5957 54.1379 13.9 53.8334C14.2043 53.5289 14.6175 53.3579 15.0479 53.3579H30.6126V30.1683H7.43295V45.7378C7.43295 46.1684 7.26186 46.5814 6.95753 46.8859C6.65321 47.1904 6.24002 47.3614 5.80964 47.3614C5.37987 47.3604 4.96807 47.1891 4.66451 46.8847C4.36095 46.5803 4.19047 46.1678 4.19047 45.7378V28.5474C4.19047 28.1175 4.36095 27.7051 4.66451 27.4007C4.96807 27.0964 5.37987 26.925 5.80964 26.9241H23.0541V2.12356C23.0536 1.91074 23.0945 1.6998 23.1754 1.50299C23.2564 1.30617 23.3753 1.12729 23.5254 0.976505C23.6756 0.825719 23.8541 0.70602 24.0505 0.624253C24.2469 0.542487 24.4578 0.500278 24.6706 0.5H58.6456C59.0705 0.5076 59.4741 0.682193 59.7714 0.985983C60.0687 1.28977 60.2358 1.6984 60.2344 2.12356V28.5538H60.2647V54.9843C60.2647 55.1968 60.2222 55.4073 60.1407 55.6036C60.0593 55.8 59.9397 55.9784 59.7893 56.1286C59.639 56.2787 59.4607 56.3978 59.2643 56.4789C59.0679 56.5601 58.8581 56.6017 58.6456 56.6014L15.0479 56.5985ZM33.8151 29.3903V53.3903H56.9947V29.3903L45.4235 20.5668L33.8151 29.3903ZM26.2884 26.9304H31.6571L44.4616 17.2394C44.7428 17.0279 45.0842 16.9135 45.4359 16.9135C45.7876 16.9135 46.1304 17.0279 46.4115 17.2394L57.025 25.3103V3.74144H26.2884V26.9304ZM21.4612 46.4592C21.4612 45.9659 21.6568 45.4929 22.0055 45.1441C22.3541 44.7953 22.827 44.5994 23.3201 44.5994C23.8131 44.5998 24.2862 44.7957 24.6347 45.1445C24.9833 45.4932 25.1787 45.966 25.1791 46.4592C25.1791 46.7035 25.1319 46.9454 25.0385 47.1711C24.9451 47.3968 24.8074 47.6019 24.6347 47.7746C24.4621 47.9474 24.2581 48.0845 24.0325 48.1779C23.8069 48.2713 23.5643 48.3193 23.3201 48.3192C23.0762 48.319 22.8357 48.2708 22.6104 48.1772C22.3851 48.0836 22.1792 47.9467 22.0069 47.774C21.8345 47.6012 21.6977 47.3962 21.6045 47.1706C21.5113 46.945 21.4637 46.7033 21.4639 46.4592H21.4612ZM12.5578 46.4592C12.5576 46.2149 12.6064 45.973 12.6997 45.7473C12.7931 45.5215 12.9294 45.3164 13.1021 45.1436C13.2748 44.9709 13.48 44.8339 13.7057 44.7405C13.9313 44.6471 14.1725 44.5992 14.4167 44.5994C14.9097 44.5998 15.3828 44.7957 15.7314 45.1445C16.0799 45.4932 16.2767 45.966 16.2771 46.4592C16.2772 46.7035 16.2285 46.9454 16.1351 47.1711C16.0417 47.3968 15.9054 47.6019 15.7327 47.7746C15.5601 47.9474 15.3548 48.0845 15.1292 48.1779C14.9036 48.2713 14.6609 48.3193 14.4167 48.3192C14.1726 48.3194 13.9312 48.2715 13.7057 48.1781C13.4802 48.0846 13.276 47.9476 13.1035 47.7748C12.931 47.602 12.7942 47.3969 12.7011 47.1711C12.608 46.9454 12.5601 46.7034 12.5605 46.4592H12.5578ZM48.7183 46.4311C48.7182 46.1867 48.7669 45.9446 48.8603 45.7187C48.9536 45.4928 49.09 45.2875 49.2627 45.1145C49.4353 44.9415 49.6406 44.8042 49.8662 44.7105C50.0919 44.6168 50.333 44.5684 50.5773 44.5682C51.0707 44.5687 51.5447 44.7654 51.8933 45.1147C52.2419 45.464 52.4378 45.9375 52.4376 46.4311C52.4372 46.9243 52.2405 47.3971 51.8919 47.7459C51.5433 48.0946 51.0702 48.2908 50.5773 48.2911C50.0848 48.2904 49.6135 48.0941 49.2654 47.7455C48.9173 47.397 48.7215 46.9246 48.7211 46.4318L48.7183 46.4311ZM39.815 46.4311C39.8145 46.1866 39.8623 45.9444 39.9555 45.7183C40.0488 45.4923 40.1866 45.2868 40.3593 45.1138C40.532 44.9408 40.7371 44.8035 40.9629 44.7098C41.1886 44.6162 41.4295 44.5681 41.6739 44.5682C42.1673 44.5687 42.6413 44.7654 42.9899 45.1147C43.3385 45.464 43.5344 45.9375 43.5342 46.4311C43.5339 46.9243 43.3371 47.3971 42.9885 47.7459C42.64 48.0946 42.1669 48.2908 41.6739 48.2911C41.43 48.291 41.1896 48.2428 40.9642 48.1493C40.7389 48.0558 40.5331 47.9189 40.3607 47.7462C40.1882 47.5736 40.0516 47.3686 39.9583 47.143C39.865 46.9175 39.8176 46.6759 39.8177 46.4318L39.815 46.4311ZM48.7183 37.34C48.7185 36.8467 48.9154 36.3738 49.264 36.025C49.6126 35.6763 50.0843 35.4801 50.5773 35.4799C51.0702 35.4803 51.5433 35.6765 51.8919 36.0252C52.2405 36.374 52.4372 36.8468 52.4376 37.34C52.4372 37.8331 52.2405 38.3061 51.8919 38.6549C51.5433 39.0036 51.0702 39.1996 50.5773 39.2C50.0846 39.1992 49.6136 39.0029 49.2654 38.6542C48.9173 38.3055 48.7213 37.8328 48.7211 37.34H48.7183ZM39.815 37.34C39.8148 37.0956 39.8635 36.8538 39.9569 36.628C40.0503 36.4023 40.1866 36.1971 40.3593 36.0244C40.532 35.8516 40.7372 35.7147 40.9629 35.6213C41.1885 35.5279 41.4297 35.4798 41.6739 35.4799C42.1669 35.4803 42.64 35.6765 42.9885 36.0252C43.3371 36.374 43.5339 36.8468 43.5342 37.34C43.5339 37.8331 43.3371 38.3061 42.9885 38.6549C42.64 39.0036 42.1669 39.1996 41.6739 39.2C41.4299 39.1999 41.1896 39.1517 40.9642 39.0581C40.7388 38.9646 40.5331 38.8276 40.3607 38.6549C40.1882 38.4821 40.0515 38.2771 39.9583 38.0515C39.8651 37.8259 39.8175 37.5841 39.8177 37.34H39.815ZM21.4612 37.34C21.4613 36.8467 21.6569 36.3738 22.0055 36.025C22.3541 35.6763 22.8271 35.4801 23.3201 35.4799C23.8131 35.4803 24.2862 35.6765 24.6347 36.0252C24.9833 36.374 25.1787 36.8468 25.1791 37.34C25.1787 37.8331 24.9833 38.3061 24.6347 38.6549C24.2862 39.0036 23.8131 39.1996 23.3201 39.2C22.8276 39.199 22.3562 39.0027 22.0082 38.654C21.6602 38.3053 21.4641 37.8327 21.4639 37.34H21.4612ZM12.5578 37.34C12.5576 37.0956 12.6064 36.8538 12.6997 36.628C12.7931 36.4023 12.9294 36.1971 13.1021 36.0244C13.2748 35.8516 13.48 35.7147 13.7057 35.6213C13.9313 35.5279 14.1725 35.4798 14.4167 35.4799C14.9097 35.4803 15.3828 35.6765 15.7314 36.0252C16.0799 36.374 16.2767 36.8468 16.2771 37.34C16.2767 37.8331 16.0799 38.3061 15.7314 38.6549C15.3828 39.0036 14.9097 39.1996 14.4167 39.2C14.1727 39.1999 13.9311 39.1517 13.7057 39.0581C13.4803 38.9646 13.2759 38.8276 13.1035 38.6549C12.931 38.4821 12.7943 38.2771 12.7011 38.0515C12.6079 37.8259 12.5604 37.5841 12.5605 37.34H12.5578ZM30.9088 20.2089C30.9087 19.9646 30.9574 19.7227 31.0508 19.497C31.1441 19.2712 31.2805 19.066 31.4532 18.8933C31.6258 18.7205 31.8311 18.5836 32.0567 18.4902C32.2824 18.3968 32.525 18.3487 32.7692 18.3489C33.2621 18.3492 33.7339 18.5454 34.0824 18.8941C34.431 19.2429 34.6277 19.7157 34.6281 20.2089C34.6282 20.4532 34.5796 20.6951 34.4862 20.9208C34.3928 21.1465 34.2565 21.3516 34.0838 21.5243C33.9111 21.697 33.7058 21.8341 33.4802 21.9276C33.2546 22.021 33.0133 22.069 32.7692 22.0689C32.5251 22.0691 32.2822 22.0211 32.0567 21.9277C31.8313 21.8343 31.627 21.6973 31.4545 21.5246C31.282 21.3519 31.1453 21.147 31.0522 20.9213C30.959 20.6956 30.9112 20.4539 30.9116 20.2097L30.9088 20.2089ZM48.7183 11.1206C48.7181 10.8762 48.767 10.6342 48.8603 10.4082C48.9536 10.1823 49.09 9.97682 49.2627 9.80383C49.4353 9.63083 49.6405 9.49356 49.8662 9.39987C50.0919 9.30619 50.3329 9.25796 50.5773 9.25787C51.0707 9.25843 51.5447 9.45504 51.8933 9.80434C52.2419 10.1536 52.4378 10.627 52.4376 11.1206C52.4372 11.6138 52.2405 12.0868 51.8919 12.4355C51.5433 12.7843 51.0702 12.9803 50.5773 12.9806C50.0847 12.9801 49.6136 12.784 49.2654 12.4354C48.9172 12.0868 48.7213 11.6143 48.7211 11.1215L48.7183 11.1206ZM39.815 11.1206C39.8145 10.8761 39.8623 10.6339 39.9555 10.4079C40.0488 10.1818 40.1866 9.97652 40.3593 9.80348C40.532 9.63045 40.7371 9.49315 40.9629 9.39953C41.1886 9.30591 41.4295 9.25778 41.6739 9.25787C42.1673 9.25843 42.6413 9.45504 42.9899 9.80434C43.3385 10.1536 43.5344 10.627 43.5342 11.1206C43.5339 11.6138 43.3371 12.0868 42.9885 12.4355C42.64 12.7843 42.1669 12.9803 41.6739 12.9806C41.43 12.9805 41.1896 12.9325 40.9642 12.839C40.7389 12.7455 40.5331 12.6085 40.3607 12.4359C40.1882 12.2632 40.0516 12.0582 39.9583 11.8327C39.865 11.6072 39.8176 11.3656 39.8177 11.1215L39.815 11.1206ZM30.9088 11.1206C30.9084 10.8761 30.9562 10.6339 31.0494 10.4079C31.1426 10.1818 31.2805 9.97652 31.4532 9.80348C31.6259 9.63045 31.831 9.49315 32.0567 9.39953C32.2825 9.30591 32.5248 9.25778 32.7692 9.25787C33.2626 9.25843 33.7352 9.45504 34.0838 9.80434C34.4324 10.1536 34.6283 10.627 34.6281 11.1206C34.6277 11.6138 34.431 12.0868 34.0824 12.4355C33.7339 12.7843 33.2621 12.9803 32.7692 12.9806C32.5252 12.9805 32.2835 12.9325 32.0581 12.839C31.8328 12.7455 31.627 12.6085 31.4545 12.4359C31.2821 12.2632 31.1454 12.0582 31.0522 11.8327C30.9589 11.6072 30.9115 11.3656 30.9116 11.1215L30.9088 11.1206Z" fill="#3F3F3F"/>
<path d="M11.2995 54.98C11.2995 56.0717 10.9759 57.139 10.3696 58.0467C9.76338 58.9545 8.90169 59.662 7.89352 60.0798C6.88536 60.4976 5.776 60.6069 4.70574 60.3939C3.63548 60.1809 2.65238 59.6552 1.88076 58.8832C1.10914 58.1112 0.583665 57.1276 0.370776 56.0569C0.157888 54.9861 0.26715 53.8762 0.684746 52.8676C1.10234 51.8589 1.80952 50.9968 2.71684 50.3903C3.62417 49.7837 4.69089 49.46 5.78212 49.46C6.50667 49.46 7.22413 49.6027 7.89352 49.8801C8.56292 50.1576 9.17115 50.5641 9.68349 51.0767C10.1958 51.5893 10.6022 52.1978 10.8795 52.8676C11.1568 53.5373 11.2995 54.2551 11.2995 54.98Z" fill="#00C83C"/>
</g>
<defs>
<clipPath id="clip0_6805_28014">
<rect width="60" height="60" fill="white" transform="translate(-7.62939e-06 0.5)"/>
</clipPath>
</defs>
</svg>
