<svg width="57" height="56" viewBox="0 0 57 56" fill="none" xmlns="http://www.w3.org/2000/svg">
<path d="M18.7778 51.9694C18.7755 51.7211 18.8225 51.4748 18.9155 51.2446C19.0084 51.0144 19.1455 50.8048 19.3195 50.6278C19.4935 50.4507 19.7009 50.3096 19.9294 50.2126C20.158 50.1157 20.4031 50.0648 20.6513 50.0627H42.3796C42.7473 50.0628 43.1117 49.9904 43.4515 49.8498C43.7912 49.7091 44.0999 49.5027 44.3599 49.2427C44.62 48.9827 44.8253 48.674 44.966 48.3343C45.1067 47.9945 45.1797 47.6304 45.1796 47.2627V6.57971C45.1793 5.83721 44.8837 5.12521 44.3587 4.60018C43.8336 4.07516 43.1221 3.78006 42.3796 3.77971H17.096C16.3609 3.77989 15.656 4.07191 15.1362 4.59166C14.6165 5.11141 14.3245 5.81636 14.3243 6.5514V43.7367C14.3264 43.985 14.2786 44.2314 14.1853 44.4616C14.092 44.6918 13.9544 44.9013 13.78 45.0781C13.6055 45.2549 13.3977 45.3955 13.1688 45.492C12.9399 45.5884 12.6953 45.6386 12.4469 45.6399C12.1988 45.6419 11.9524 45.5951 11.7224 45.5019C11.4925 45.4088 11.2828 45.2713 11.1061 45.0972C10.9293 44.9232 10.7884 44.716 10.6917 44.4875C10.5951 44.259 10.5443 44.0137 10.5425 43.7656V6.97298C10.5423 5.12403 11.2774 3.35071 12.5846 2.04306C13.8917 0.73541 15.6639 0.00052412 17.5129 0H42.0142C43.8635 0.0003492 45.6372 0.735003 46.9451 2.04258C48.2529 3.35015 48.9877 5.12361 48.9884 6.97298V46.8978C48.9802 48.7422 48.2418 50.5084 46.9348 51.8098C45.6277 53.1113 43.8586 53.8421 42.0142 53.8424H20.6629C20.1651 53.8421 19.6881 53.6449 19.3349 53.2941C18.9818 52.9433 18.7814 52.4672 18.7778 51.9694ZM39.6362 44.9673C39.2899 44.8678 38.9749 44.682 38.7201 44.4272C38.4652 44.1724 38.2791 43.857 38.1796 43.5107C38.0662 43.1113 38.0688 42.6879 38.1873 42.29C38.3059 41.8921 38.5352 41.5363 38.8487 41.2641C39.162 40.9921 39.5463 40.815 39.9566 40.7538C40.3669 40.6925 40.7859 40.7495 41.1649 40.9182C41.5445 41.086 41.8687 41.3587 42.0991 41.7039C42.3295 42.0491 42.4564 42.4527 42.4658 42.8676C42.4675 43.2108 42.3888 43.5496 42.2355 43.8566C42.0821 44.1637 41.8585 44.4305 41.5831 44.6353C41.2058 44.9134 40.7496 45.0634 40.2809 45.0635C40.0623 45.0637 39.8452 45.0313 39.6362 44.9673ZM32.7752 44.9673C32.4297 44.8671 32.1156 44.6809 31.8616 44.4262C31.6075 44.1715 31.4217 43.8565 31.3224 43.5107C31.2079 43.1116 31.2095 42.688 31.3276 42.29C31.4457 41.892 31.6753 41.5361 31.989 41.2641C32.3027 40.992 32.6874 40.8149 33.0982 40.7536C33.5089 40.6924 33.9283 40.7494 34.3077 40.9182C34.6869 41.0862 35.0109 41.3589 35.2406 41.7042C35.4704 42.0495 35.5962 42.453 35.6048 42.8676C35.6064 43.2108 35.5278 43.5496 35.3745 43.8566C35.2211 44.1637 34.9974 44.4305 34.7221 44.6353C34.3455 44.9138 33.8896 45.0639 33.4212 45.0635C33.2021 45.0637 32.9847 45.0313 32.7752 44.9673ZM25.9438 44.9673C25.5974 44.8678 25.2824 44.682 25.0276 44.4272C24.7728 44.1724 24.5866 43.857 24.4871 43.5107C24.3744 43.1113 24.3776 42.6881 24.4962 42.2903C24.6147 41.8926 24.8433 41.5367 25.1563 41.2641C25.4695 40.9921 25.8539 40.815 26.2642 40.7538C26.6745 40.6925 27.0934 40.7495 27.4724 40.9182C27.852 41.086 28.1762 41.3587 28.4066 41.7039C28.6371 42.0491 28.7652 42.4527 28.7746 42.8676C28.7763 43.2108 28.6964 43.5496 28.543 43.8566C28.3897 44.1637 28.166 44.4305 27.8906 44.6353C27.5133 44.9134 27.0572 45.0634 26.5884 45.0635C26.3698 45.0638 26.1528 45.0313 25.9438 44.9673ZM19.1123 44.9673C18.7663 44.8678 18.4518 44.682 18.1974 44.4272C17.9431 44.1723 17.7572 43.8569 17.6583 43.5107C17.5234 43.1071 17.5098 42.673 17.6184 42.2615C17.727 41.8501 17.953 41.4794 18.2695 41.195C18.587 40.9107 18.9805 40.7253 19.4019 40.6618C19.8232 40.5982 20.2538 40.6593 20.641 40.8373C21.028 41.0148 21.3555 41.3015 21.5816 41.6622C21.8078 42.023 21.9238 42.4419 21.9149 42.8676H21.9432C21.9451 43.2109 21.8663 43.5497 21.7129 43.8568C21.5595 44.1639 21.3361 44.4306 21.0605 44.6353C20.6834 44.9138 20.2258 45.0639 19.757 45.0635C19.5384 45.0638 19.3213 45.0314 19.1123 44.9673ZM39.6362 38.6427C39.29 38.5433 38.9748 38.3576 38.7201 38.1029C38.4653 37.8482 38.2792 37.5329 38.1796 37.1867C38.0662 36.7873 38.0688 36.3639 38.1873 35.966C38.3059 35.5682 38.5352 35.2122 38.8487 34.94C39.1616 34.6675 39.5463 34.49 39.9566 34.4282C40.3669 34.3664 40.7856 34.4227 41.1649 34.5908C41.5446 34.7593 41.8687 35.0323 42.0991 35.378C42.3295 35.7236 42.4564 36.1277 42.4658 36.543C42.4678 36.8859 42.3889 37.2244 42.2355 37.5311C42.0821 37.8377 41.8587 38.1039 41.5831 38.308C41.2062 38.5883 40.7493 38.7396 40.2796 38.7395C40.0613 38.7386 39.8446 38.705 39.6362 38.6399V38.6427ZM32.7752 38.6427C32.4297 38.5425 32.1156 38.3564 31.8616 38.1017C31.6076 37.8471 31.4218 37.5324 31.3224 37.1867C31.208 36.7876 31.2095 36.3641 31.3276 35.966C31.4457 35.568 31.6754 35.212 31.989 34.94C32.3024 34.6674 32.6874 34.4897 33.0982 34.4279C33.5089 34.366 33.928 34.4225 34.3077 34.5908C34.6869 34.7595 35.0109 35.0328 35.2406 35.3785C35.4704 35.7241 35.5961 36.128 35.6048 36.543C35.6068 36.8859 35.5279 37.2244 35.3745 37.5311C35.2211 37.8377 34.9976 38.1039 34.7221 38.308C34.3459 38.5886 33.8892 38.74 33.4199 38.7395C33.2011 38.7386 32.984 38.705 32.7752 38.6399V38.6427ZM25.9438 38.6427C25.5975 38.5433 25.2824 38.3576 25.0276 38.1029C24.7728 37.8482 24.5867 37.5329 24.4871 37.1867C24.3744 36.7873 24.3776 36.364 24.4962 35.9662C24.6147 35.5685 24.8433 35.2126 25.1563 34.94C25.4692 34.6675 25.8539 34.49 26.2642 34.4282C26.6745 34.3664 27.0931 34.4227 27.4724 34.5908C27.8521 34.7593 28.1762 35.0323 28.4066 35.378C28.637 35.7236 28.7652 36.1277 28.7746 36.543C28.7766 36.8859 28.6977 37.2244 28.5443 37.5311C28.3909 37.8377 28.1662 38.1039 27.8906 38.308C27.5137 38.5883 27.0568 38.7396 26.5871 38.7395C26.3688 38.7386 26.1522 38.705 25.9438 38.6399V38.6427ZM19.1123 38.6427C18.7664 38.5432 18.4518 38.3573 18.1974 38.1026C17.9431 37.8479 17.7573 37.5328 17.6583 37.1867C17.5234 36.7831 17.5098 36.3488 17.6184 35.9374C17.727 35.526 17.953 35.1553 18.2695 34.8708C18.587 34.5867 18.9805 34.4015 19.4019 34.338C19.8232 34.2744 20.2538 34.3352 20.641 34.5131C21.0279 34.6907 21.3555 34.9775 21.5816 35.3383C21.8078 35.699 21.9237 36.118 21.9149 36.5436H21.9432C21.9457 36.8866 21.8663 37.2253 21.7129 37.532C21.5595 37.8388 21.3364 38.1049 21.0605 38.3086C20.6841 38.5889 20.2263 38.7402 19.757 38.7401C19.5382 38.7393 19.3211 38.7055 19.1123 38.6399V38.6427ZM39.6362 32.3179C39.2901 32.218 38.9748 32.032 38.7201 31.7773C38.4653 31.5226 38.2795 31.2074 38.1796 30.8613C38.0659 30.4619 38.0688 30.0384 38.1873 29.6405C38.3059 29.2425 38.535 28.8868 38.8487 28.6148C39.1616 28.3423 39.5463 28.1646 39.9566 28.1028C40.3669 28.0409 40.7856 28.0974 41.1649 28.2656C41.5447 28.4341 41.8687 28.7071 42.0991 29.0529C42.3295 29.3987 42.4565 29.8028 42.4658 30.2182C42.4675 30.5611 42.3889 30.8995 42.2355 31.2061C42.0821 31.5128 41.8584 31.7789 41.5831 31.9832C41.2062 32.2635 40.7493 32.4149 40.2796 32.4147C40.0612 32.4129 39.8445 32.3785 39.6362 32.3126V32.3179ZM32.7752 32.3179C32.4299 32.2173 32.1156 32.031 31.8616 31.7763C31.6076 31.5217 31.4222 31.2069 31.3224 30.8613C31.2074 30.4622 31.2094 30.0386 31.3276 29.6405C31.4457 29.2423 31.6749 28.8864 31.989 28.6148C32.3024 28.3421 32.6874 28.1643 33.0982 28.1025C33.5089 28.0406 33.928 28.0973 34.3077 28.2656C34.687 28.4343 35.0109 28.7076 35.2406 29.0534C35.4704 29.3992 35.5962 29.8032 35.6048 30.2182C35.6065 30.5611 35.5278 30.8995 35.3745 31.2061C35.2211 31.5128 34.9974 31.7789 34.7221 31.9832C34.3459 32.2639 33.8892 32.4153 33.4199 32.4147C33.201 32.4129 32.9839 32.3785 32.7752 32.3126V32.3179ZM25.9438 32.3179C25.5976 32.218 25.2823 32.032 25.0276 31.7773C24.7729 31.5226 24.5871 31.2074 24.4871 30.8613C24.3741 30.4619 24.3763 30.0386 24.4949 29.6408C24.6134 29.243 24.8431 28.8872 25.1563 28.6148C25.4692 28.3423 25.8539 28.1646 26.2642 28.1028C26.6745 28.0409 27.0931 28.0974 27.4724 28.2656C27.8522 28.4341 28.1762 28.7071 28.4066 29.0529C28.637 29.3987 28.7654 29.8028 28.7746 30.2182C28.7763 30.5611 28.6964 30.8995 28.543 31.2061C28.3897 31.5128 28.166 31.7789 27.8906 31.9832C27.5138 32.2635 27.0569 32.4149 26.5871 32.4147C26.3687 32.4129 26.152 32.3785 25.9438 32.3126V32.3179ZM19.1123 32.3179C18.7666 32.2179 18.4517 32.0319 18.1974 31.7771C17.9432 31.5224 17.7577 31.2072 17.6583 30.8613C17.5233 30.4577 17.5098 30.0235 17.6184 29.612C17.727 29.2005 17.9529 28.8298 18.2695 28.5454C18.587 28.2613 18.9805 28.0761 19.4019 28.0125C19.8232 27.949 20.2538 28.0098 20.641 28.1877C21.0279 28.3653 21.3555 28.6521 21.5816 29.0128C21.8078 29.3736 21.9237 29.7926 21.9149 30.2182H21.9432C21.9451 30.5611 21.8663 30.8996 21.7129 31.2063C21.5595 31.513 21.336 31.7791 21.0605 31.9832C20.6841 32.2635 20.2263 32.4148 19.757 32.4147C19.5381 32.4132 19.321 32.3787 19.1123 32.3126V32.3179ZM39.6362 25.988C39.2901 25.8892 38.9749 25.7039 38.7201 25.4496C38.4652 25.1954 38.2792 24.8805 38.1796 24.5346C38.0658 24.1352 38.0675 23.7117 38.186 23.3138C38.3046 22.9158 38.5349 22.56 38.8487 22.2881C39.1616 22.0156 39.5463 21.8379 39.9566 21.7761C40.3669 21.7142 40.7856 21.7707 41.1649 21.9389C41.5443 22.1071 41.8687 22.3796 42.0991 22.7248C42.3295 23.0699 42.456 23.4735 42.4658 23.8883C42.4678 24.2316 42.3889 24.5704 42.2355 24.8775C42.0821 25.1846 41.8587 25.4512 41.5831 25.6558C41.2078 25.9352 40.7526 26.0862 40.2848 26.0861C40.0645 26.0846 39.8461 26.0497 39.6362 25.9827V25.988ZM32.7752 25.988C32.4299 25.8884 32.1157 25.7029 31.8616 25.4487C31.6075 25.1945 31.4219 24.88 31.3224 24.5346C31.2074 24.1355 31.2094 23.7119 31.3276 23.3138C31.4457 22.9156 31.6749 22.5597 31.989 22.2881C32.3024 22.0154 32.6874 21.8378 33.0982 21.7759C33.5089 21.7141 33.928 21.7706 34.3077 21.9389C34.6866 22.1073 35.0097 22.3799 35.2394 22.7251C35.4691 23.0703 35.5958 23.4738 35.6048 23.8883C35.6068 24.2316 35.5278 24.5704 35.3745 24.8775C35.2211 25.1846 34.9977 25.4512 34.7221 25.6558C34.347 25.9356 33.8917 26.0866 33.4237 26.0861C33.2034 26.0845 32.9851 26.0496 32.7752 25.9827V25.988ZM25.9438 25.988C25.5976 25.8892 25.2824 25.7039 25.0276 25.4496C24.7728 25.1954 24.5868 24.8805 24.4871 24.5346C24.3739 24.1352 24.3763 23.7118 24.4949 23.3139C24.6134 22.9161 24.8429 22.5603 25.1563 22.2881C25.4692 22.0156 25.8539 21.8379 26.2642 21.7761C26.6745 21.7142 27.0931 21.7707 27.4724 21.9389C27.8518 22.1071 28.1763 22.3796 28.4066 22.7248C28.637 23.0699 28.7648 23.4735 28.7746 23.8883C28.7766 24.2316 28.6977 24.5704 28.5443 24.8775C28.3909 25.1846 28.1662 25.4512 27.8906 25.6558C27.5149 25.9352 27.0593 26.0862 26.591 26.0861C26.3711 26.0846 26.1532 26.0497 25.9438 25.9827V25.988ZM19.1123 25.988C18.7665 25.8891 18.4518 25.7037 18.1974 25.4495C17.9431 25.1952 17.7573 24.8804 17.6583 24.5346C17.5231 24.131 17.5085 23.6968 17.6171 23.2853C17.7258 22.8738 17.9527 22.5031 18.2695 22.2189C18.5868 21.9344 18.9805 21.7486 19.4019 21.6846C19.8232 21.6205 20.2535 21.681 20.641 21.8584C21.0277 22.0363 21.3543 22.3232 21.5803 22.6839C21.8064 23.0446 21.9233 23.4634 21.9149 23.889H21.9432C21.9454 24.2323 21.8663 24.5712 21.7129 24.8783C21.5595 25.1854 21.3363 25.4522 21.0605 25.6566C20.6852 25.936 20.2287 26.0868 19.7609 26.0867C19.5405 26.0851 19.3221 26.0501 19.1123 25.9827V25.988ZM19.2243 17.5327C18.7346 17.5328 18.2649 17.3387 17.9182 16.9929C17.5715 16.647 17.3762 16.1776 17.3752 15.6879V8.60218C17.3754 8.11183 17.5701 7.64166 17.9169 7.29499C18.2637 6.94832 18.7339 6.75359 19.2243 6.75359H40.3066C40.7963 6.75446 41.2655 6.94966 41.6114 7.29628C41.9573 7.64289 42.152 8.11252 42.1519 8.60218V15.6879C42.1519 16.1772 41.9574 16.6464 41.6114 16.9924C41.2655 17.3383 40.7959 17.5327 40.3066 17.5327H19.2243ZM21.157 13.7549H38.3765V10.5333H21.157V13.7549Z" fill="#3F3F3F"/>
<path d="M16.4811 51.968C16.4811 52.7655 16.2446 53.545 15.8015 54.2081C15.3585 54.8712 14.7288 55.3879 13.992 55.6931C13.2553 55.9983 12.4446 56.0781 11.6625 55.9226C10.8803 55.767 10.1619 55.383 9.598 54.8191C9.03412 54.2552 8.6501 53.5368 8.49453 52.7546C8.33895 51.9725 8.4188 51.1618 8.72397 50.4251C9.02915 49.6883 9.54594 49.0586 10.209 48.6155C10.8721 48.1725 11.6516 47.936 12.4491 47.936C13.5184 47.936 14.544 48.3608 15.3001 49.117C16.0563 49.8731 16.4811 50.8987 16.4811 51.968Z" fill="#00C83C"/>
</svg>
