<svg width="18" height="18" viewBox="0 0 18 18" fill="none" xmlns="http://www.w3.org/2000/svg">
<g clip-path="url(#clip0_2185_3385)">
<path d="M1.25319 13.6963C0.993306 13.6961 0.739197 13.773 0.523008 13.9172C0.306819 14.0614 0.138264 14.2665 0.0386646 14.5066C-0.0609345 14.7466 -0.0871028 15.0108 -0.03653 15.2657C0.0140428 15.5206 0.139085 15.7548 0.322778 15.9387C0.506471 16.1225 0.740562 16.2477 0.995439 16.2985C1.25032 16.3493 1.51453 16.3233 1.75465 16.2239C1.99477 16.1245 2.20002 15.9561 2.34443 15.7401C2.48883 15.524 2.56591 15.27 2.56591 15.0101C2.56591 14.6618 2.42764 14.3278 2.18149 14.0815C1.93534 13.8351 1.60144 13.6966 1.25319 13.6963Z" fill="#00C83C"/>
<path d="M4.2694 15.6847C4.09637 15.6848 3.93034 15.6162 3.80789 15.4939C3.68544 15.3717 3.6166 15.2058 3.61643 15.0328C3.61643 14.947 3.63324 14.8621 3.66605 14.7829C3.69887 14.7037 3.74726 14.6317 3.80789 14.5711C3.86853 14.5105 3.9404 14.4624 4.01962 14.4296C4.09884 14.3968 4.18366 14.38 4.2694 14.38H13.4742C14.3112 14.3777 15.1134 14.0442 15.7052 13.4524C16.2971 12.8606 16.6305 12.0586 16.6328 11.2217V5.70569H1.95568L1.88331 5.68832V12.4279C1.88337 12.5135 1.86642 12.5982 1.83369 12.6773C1.80096 12.7564 1.7532 12.8283 1.69267 12.8889C1.63215 12.9494 1.56004 12.9974 1.48094 13.0302C1.40185 13.0629 1.31719 13.0798 1.23158 13.0798C1.14589 13.0799 1.06101 13.0631 0.981808 13.0304C0.902605 12.9977 0.830722 12.9497 0.770079 12.8891C0.709437 12.8286 0.661075 12.7567 0.628237 12.6775C0.5954 12.5984 0.578641 12.5136 0.578613 12.4279V2.44844C0.578573 2.36265 0.595574 2.27768 0.628651 2.19852C0.661727 2.11935 0.710252 2.04757 0.77132 1.9873C0.832614 1.9267 0.905134 1.87889 0.985117 1.84675C1.0651 1.81462 1.15077 1.79878 1.23696 1.80013H3.4047C3.49044 1.8001 3.57525 1.81696 3.65447 1.84975C3.7337 1.88254 3.80598 1.93061 3.86662 1.99123C3.92725 2.05185 3.97523 2.1238 4.00804 2.20301C4.04086 2.28222 4.05767 2.36715 4.05767 2.45289C4.05744 2.6259 3.98864 2.79174 3.8662 2.91398C3.74377 3.03622 3.57771 3.10483 3.4047 3.10477H1.88414V4.41877L1.95651 4.40058H16.6419V3.10477H15.2657C15.1801 3.10477 15.0954 3.08791 15.0163 3.05515C14.9372 3.02239 14.8651 2.97436 14.8046 2.91382C14.7441 2.85329 14.6963 2.78145 14.6636 2.70235C14.6308 2.62326 14.6139 2.53849 14.6139 2.45289C14.6138 2.36722 14.6305 2.28236 14.6631 2.20317C14.6958 2.12398 14.744 2.05202 14.8046 1.99139C14.8651 1.93076 14.9368 1.88267 15.0159 1.84986C15.095 1.81704 15.18 1.80013 15.2657 1.80013H17.2911C17.4629 1.80035 17.6276 1.86874 17.7489 1.9903C17.8703 2.11187 17.9384 2.27667 17.9383 2.44844V11.2217C17.9383 11.8078 17.8227 12.3881 17.5984 12.9296C17.3741 13.4712 17.0456 13.9632 16.6311 14.3776C16.2167 14.7921 15.7245 15.1208 15.183 15.3451C14.6414 15.5694 14.0612 15.6849 13.4751 15.6849L4.2694 15.6847ZM8.67766 12.4998C8.50469 12.4997 8.33879 12.4308 8.21657 12.3084C8.09436 12.186 8.02582 12.02 8.02593 11.8471C8.02599 11.6742 8.09479 11.5085 8.21699 11.3862C8.33919 11.264 8.50482 11.1953 8.67766 11.1952H10.0274C10.2004 11.1951 10.3665 11.2637 10.4889 11.386C10.6114 11.5082 10.6802 11.6741 10.6804 11.8471C10.6803 12.0202 10.6114 12.1863 10.4889 12.3087C10.3665 12.4311 10.2006 12.4998 10.0274 12.4998H8.67766ZM4.62917 12.4998C4.45603 12.4998 4.29012 12.4311 4.16767 12.3087C4.04522 12.1863 3.97626 12.0202 3.9762 11.8471C3.97643 11.6741 4.04523 11.5082 4.16767 11.386C4.29011 11.2637 4.45616 11.1951 4.62917 11.1952H5.97853C6.15141 11.1953 6.31735 11.264 6.43962 11.3862C6.56189 11.5085 6.63051 11.6742 6.63067 11.8471C6.63067 12.0201 6.5619 12.186 6.43962 12.3084C6.31734 12.4308 6.15154 12.4997 5.97853 12.4998H4.62917ZM12.5831 10.4747C12.4974 10.4747 12.4124 10.4579 12.3333 10.4252C12.2542 10.3925 12.1825 10.3445 12.122 10.2839C12.0614 10.2234 12.0133 10.1514 11.9806 10.0723C11.9478 9.99316 11.9312 9.90835 11.9313 9.82272C11.9312 9.73704 11.9479 9.6522 11.9806 9.573C12.0132 9.4938 12.0615 9.42181 12.122 9.36117C12.1825 9.30052 12.2542 9.25242 12.3333 9.21958C12.4124 9.18674 12.4974 9.16978 12.5831 9.16975H13.9337C14.1067 9.16992 14.2725 9.23883 14.3948 9.36127C14.517 9.48372 14.5859 9.64967 14.5858 9.82272C14.5858 9.90835 14.569 9.99318 14.5362 10.0723C14.5034 10.1514 14.4553 10.2233 14.3948 10.2838C14.3342 10.3443 14.2621 10.3923 14.183 10.4251C14.1039 10.4578 14.0193 10.4747 13.9337 10.4747H12.5831ZM8.67766 10.4747C8.59205 10.4747 8.5074 10.4578 8.4283 10.4251C8.34921 10.3923 8.2771 10.3443 8.21657 10.2838C8.15605 10.2232 8.10829 10.1513 8.07556 10.0722C8.04283 9.99313 8.02588 9.90833 8.02593 9.82272C8.02585 9.73706 8.04285 9.65223 8.07556 9.57305C8.10826 9.49387 8.15606 9.42191 8.21657 9.36127C8.27709 9.30064 8.34878 9.25255 8.42789 9.21969C8.507 9.18683 8.592 9.16984 8.67766 9.16975H10.0274C10.2006 9.16975 10.3669 9.23856 10.4894 9.36101C10.6118 9.48347 10.6804 9.64954 10.6804 9.82272C10.6804 9.90841 10.6636 9.99329 10.6308 10.0724C10.5979 10.1516 10.5496 10.2235 10.4889 10.284C10.4283 10.3446 10.3564 10.3926 10.2772 10.4253C10.198 10.458 10.1131 10.4748 10.0274 10.4747H8.67766ZM4.62917 10.4747C4.54348 10.4748 4.4586 10.458 4.3794 10.4253C4.30019 10.3926 4.22831 10.3446 4.16767 10.284C4.10703 10.2235 4.05866 10.1516 4.02583 10.0724C3.99299 9.99329 3.97623 9.90841 3.9762 9.82272C3.9762 9.64954 4.0448 9.48347 4.16726 9.36101C4.28971 9.23856 4.45599 9.16975 4.62917 9.16975H5.97853C6.15158 9.16992 6.31734 9.23883 6.43962 9.36127C6.56191 9.48372 6.63073 9.64967 6.63067 9.82272C6.63067 9.90835 6.61382 9.99318 6.58105 10.0723C6.54827 10.1514 6.50018 10.2233 6.43962 10.2838C6.37906 10.3443 6.30701 10.3923 6.22789 10.4251C6.14877 10.4578 6.06416 10.4747 5.97853 10.4747H4.62917ZM12.5831 8.45031C12.4975 8.45031 12.4128 8.43345 12.3337 8.40069C12.2546 8.36792 12.1825 8.3199 12.122 8.25936C12.0615 8.19882 12.0137 8.12698 11.981 8.04789C11.9482 7.9688 11.9313 7.88403 11.9313 7.79843C11.9312 7.71276 11.9479 7.62788 11.9806 7.5487C12.0133 7.46953 12.0615 7.3976 12.122 7.33697C12.1825 7.27635 12.2542 7.22822 12.3333 7.19539C12.4124 7.16256 12.4974 7.14569 12.5831 7.14566H13.9337C14.1067 7.14583 14.2725 7.21468 14.3948 7.33708C14.517 7.45948 14.5858 7.62541 14.5858 7.79843C14.5856 7.97131 14.5166 8.13703 14.3943 8.25926C14.2721 8.38148 14.1066 8.4502 13.9337 8.45031H12.5831ZM8.67766 8.45031C8.50482 8.4502 8.33919 8.3815 8.21699 8.25926C8.09479 8.13702 8.02599 7.97127 8.02593 7.79843C8.02582 7.62545 8.09436 7.45949 8.21657 7.33708C8.33879 7.21467 8.50469 7.14583 8.67766 7.14566H10.0274C10.2006 7.14566 10.3665 7.21441 10.4889 7.33682C10.6114 7.45923 10.6803 7.62528 10.6804 7.79843C10.6802 7.97144 10.6114 8.13728 10.4889 8.25952C10.3665 8.38175 10.2004 8.45037 10.0274 8.45031H8.67766ZM4.62917 8.45031C4.45616 8.45037 4.29011 8.38175 4.16767 8.25952C4.04523 8.13728 3.97643 7.97144 3.9762 7.79843C3.97626 7.62528 4.04522 7.45923 4.16767 7.33682C4.29012 7.21441 4.45603 7.14566 4.62917 7.14566H5.97853C6.15154 7.14583 6.31734 7.21468 6.43962 7.33708C6.5619 7.45948 6.63067 7.62541 6.63067 7.79843C6.63051 7.97131 6.56189 8.13703 6.43962 8.25926C6.31735 8.38148 6.15141 8.4502 5.97853 8.45031H4.62917ZM12.5922 2.52976C12.5922 2.33883 12.6681 2.1557 12.8031 2.0207C12.9381 1.88569 13.1212 1.80985 13.3121 1.80985C13.5031 1.80985 13.6862 1.88569 13.8212 2.0207C13.9562 2.1557 14.0317 2.33883 14.0317 2.52976C14.0317 2.72068 13.9562 2.90376 13.8212 3.03876C13.6862 3.17377 13.5031 3.24961 13.3121 3.24961C13.2176 3.24961 13.1237 3.23101 13.0363 3.19482C12.949 3.15863 12.8699 3.10558 12.8031 3.03871C12.7362 2.97184 12.6829 2.89243 12.6468 2.80507C12.6106 2.7177 12.5921 2.6241 12.5922 2.52955V2.52976ZM4.49312 2.52976C4.49312 2.33883 4.56902 2.1557 4.70402 2.0207C4.83903 1.88569 5.02216 1.80985 5.21308 1.80985C5.404 1.80985 5.58714 1.88569 5.72214 2.0207C5.85714 2.1557 5.93263 2.33883 5.93263 2.52976C5.93263 2.72068 5.85714 2.90376 5.72214 3.03876C5.58714 3.17377 5.404 3.24961 5.21308 3.24961C5.11853 3.24961 5.02461 3.23101 4.93725 3.19482C4.8499 3.15863 4.77046 3.10558 4.70361 3.03871C4.63676 2.97184 4.58387 2.89243 4.54771 2.80507C4.51154 2.7177 4.49309 2.6241 4.49312 2.52955V2.52976ZM7.45443 3.10503C7.3688 3.10509 7.28379 3.08825 7.20466 3.05551C7.12553 3.02277 7.05349 2.97473 6.99293 2.91419C6.93236 2.85364 6.88468 2.78178 6.85191 2.70266C6.81915 2.62354 6.80226 2.53873 6.80229 2.4531C6.80218 2.3674 6.81877 2.28253 6.8515 2.20332C6.88422 2.12412 6.93236 2.05212 6.99293 1.99149C7.0535 1.93086 7.12548 1.88276 7.20466 1.84996C7.28383 1.81716 7.36873 1.80031 7.45443 1.80033H11.3594C11.4451 1.80033 11.5301 1.81724 11.6092 1.85006C11.6883 1.88288 11.7604 1.93097 11.8209 1.99159C11.8815 2.05222 11.9293 2.12418 11.9619 2.20337C11.9946 2.28256 12.0113 2.36743 12.0112 2.4531C12.0112 2.5387 11.9947 2.62347 11.9619 2.70256C11.9292 2.78165 11.881 2.85349 11.8205 2.91403C11.76 2.97457 11.6883 3.02259 11.6092 3.05536C11.5301 3.08812 11.445 3.10503 11.3594 3.10503H7.45443Z" fill="#EBEBEB"/>
</g>
<defs>
<clipPath id="clip0_2185_3385">
<rect width="18" height="18" fill="white"/>
</clipPath>
</defs>
</svg>
