<svg width="61" height="61" viewBox="0 0 61 61" fill="none" xmlns="http://www.w3.org/2000/svg">
<g clip-path="url(#clip0_6805_28023)">
<path d="M48.3843 42.6525C46.8748 42.2352 45.5711 41.2778 44.7211 39.9624C43.8712 38.6469 43.5341 37.0652 43.774 35.5175C44.0122 33.9698 44.8111 32.5634 46.0185 31.5662C47.2259 30.569 48.7578 30.0504 50.3227 30.109C51.8885 30.1664 53.3787 30.7972 54.5097 31.8814C55.6408 32.9657 56.3342 34.4278 56.4578 35.9897H57.3567V30.378C57.1181 29.9897 55.1684 27.438 45.6256 27.438H28.7065V37.4297C28.7057 37.8193 28.5517 38.1926 28.2763 38.4682C28.0009 38.7438 27.6264 38.8991 27.2368 38.9001H18.2975C17.8173 40.079 16.9957 41.0876 15.9385 41.7967C14.8814 42.5057 13.6366 42.8829 12.3636 42.8798C11.0901 42.8768 9.84579 42.4934 8.7915 41.7789C7.73721 41.0645 6.92109 40.0514 6.44637 38.8696H6.38709L6.1472 38.8096H6.08378L5.99417 38.7496L1.01577 35.989C0.787083 35.8602 0.597481 35.6725 0.465678 35.4455C0.333874 35.2185 0.264308 34.9604 0.26577 34.6979V25.8475C0.26861 25.5014 0.394103 25.1675 0.61871 24.9041C0.843318 24.6408 1.15285 24.465 1.49417 24.4076L7.55758 23.4786C8.81286 22.3886 10.2554 21.5352 11.8149 20.9594C15.6874 19.3697 20.9378 18.5 26.5461 18.5H27.2975C36.4464 18.6193 43.8844 21.0193 46.4376 24.5296C58.5837 24.7089 60.0575 28.9668 60.2368 29.8393C60.2567 29.9375 60.2665 30.0376 60.2657 30.1379V37.429C60.2657 37.8189 60.1112 38.1927 59.8356 38.4684C59.56 38.7441 59.1873 38.899 58.7974 38.8992H56.007C55.5284 40.0766 54.7092 41.0847 53.655 41.7944C52.6007 42.5042 51.3579 42.8835 50.087 42.8839C49.5114 42.8838 48.939 42.806 48.3843 42.6525ZM46.5851 36.5C46.5857 37.4228 46.9525 38.3077 47.6053 38.9599C48.2582 39.6121 49.1434 39.9782 50.0663 39.9779C50.5233 39.9783 50.9757 39.8888 51.3981 39.7142C51.8204 39.5396 52.2053 39.2836 52.5286 38.9606C52.8519 38.6376 53.1077 38.254 53.2827 37.8318C53.4577 37.4096 53.5474 36.957 53.5474 36.5C53.5477 36.0428 53.4576 35.59 53.2827 35.1675C53.1079 34.745 52.8519 34.3611 52.5286 34.0378C52.2052 33.7146 51.822 33.4583 51.3995 33.2835C50.9769 33.1088 50.5235 33.019 50.0663 33.0193C49.1433 33.0192 48.2582 33.3855 47.6053 34.038C46.9525 34.6905 46.5855 35.5756 46.5851 36.4986V36.5ZM8.90593 36.5C8.90649 37.4228 9.27328 38.3077 9.92615 38.9599C10.579 39.6121 11.4643 39.9782 12.3871 39.9779C13.3099 39.9782 14.1951 39.6121 14.848 38.9599C15.5009 38.3077 15.8677 37.4228 15.8682 36.5C15.8682 36.0428 15.7785 35.5902 15.6035 35.1678C15.4286 34.7455 15.1727 34.3618 14.8494 34.0385C14.5261 33.7153 14.1413 33.4589 13.7189 33.284C13.2965 33.1092 12.8442 33.0193 12.3871 33.0193C11.4641 33.0192 10.579 33.3855 9.92615 34.038C9.27328 34.6905 8.9063 35.5756 8.90593 36.4986V36.5ZM12.6532 30.1655C14.2027 30.2306 15.6763 30.8575 16.7975 31.9292C17.9186 33.0008 18.6106 34.4439 18.7455 35.989H25.7671V27.4373H15.6256L15.4767 27.3771L15.3278 27.2875L15.2079 27.2275L14.9955 27.0483L12.0314 24.0779C11.0277 24.5187 10.1124 25.1385 9.33056 25.9069L9.2699 25.9669L9.15133 26.0889L9.06172 26.1489L8.90868 26.2387H8.81907L8.67017 26.2986H8.49095L3.18029 27.1083V27.5889H4.74095C5.01999 27.549 5.30486 27.59 5.56126 27.7071C5.81766 27.8243 6.03468 28.0126 6.18718 28.2496C6.33911 28.4869 6.42018 28.7627 6.42018 29.0445C6.42018 29.3262 6.33911 29.602 6.18718 29.8393C6.03425 30.0759 5.81754 30.2638 5.56126 30.3809C5.30498 30.498 5.01995 30.5393 4.74095 30.5H3.18029V33.829L6.08792 35.4482C6.34775 33.968 7.12133 32.6266 8.27174 31.6595C9.42214 30.6923 10.8759 30.1614 12.3788 30.1598C12.4696 30.1598 12.5609 30.1617 12.6532 30.1655ZM28.6761 24.5303H41.9638C40.9538 23.965 39.8897 23.5026 38.7873 23.1498C35.5093 22.1355 32.1101 21.5696 28.6803 21.4676L28.6761 24.5303ZM15.0272 22.938L16.6472 24.5303H25.7657V21.438C22.1361 21.464 18.5266 21.9682 15.0286 22.9373L15.0272 22.938ZM31.4045 31.6986C31.0546 31.648 30.7343 31.473 30.5029 31.2057C30.2715 30.9384 30.1443 30.5966 30.1444 30.243C30.1448 29.8896 30.2715 29.5481 30.5029 29.2809C30.7342 29.0137 31.0548 28.8385 31.4045 28.7875H33.3554C33.7054 28.8382 34.0254 29.0133 34.257 29.2805C34.4886 29.5478 34.6164 29.8894 34.6168 30.243C34.6169 30.5968 34.4887 30.9389 34.257 31.2062C34.0253 31.4736 33.7055 31.6483 33.3554 31.6986H31.4045Z" fill="#3F3F3F"/>
<path d="M32.1271 37.429C32.1342 38.3646 32.465 39.2688 33.0634 39.9881C33.6617 40.7073 34.4906 41.1973 35.4092 41.3746C36.3279 41.5518 37.2796 41.4056 38.1026 40.9606C38.9256 40.5157 39.5692 39.7995 39.9239 38.9338C40.2787 38.068 40.3227 37.1062 40.0485 36.2116C39.7744 35.3171 39.199 34.5451 38.42 34.0268C37.6411 33.5085 36.7068 33.2759 35.7758 33.3685C34.8448 33.4612 33.9746 33.8733 33.313 34.5349C32.9333 34.9146 32.633 35.366 32.4294 35.8628C32.2258 36.3597 32.1231 36.8921 32.1271 37.429Z" fill="#00C83C"/>
</g>
<defs>
<clipPath id="clip0_6805_28023">
<rect width="60" height="60" fill="white" transform="translate(0.25 0.5)"/>
</clipPath>
</defs>
</svg>
