<svg width="51" height="51" viewBox="0 0 51 51" fill="none" xmlns="http://www.w3.org/2000/svg">
<g clip-path="url(#clip0_4377_6656)">
<path d="M44.5041 7.77118H35.2812V7.39C35.2744 5.89628 34.678 4.46567 33.6217 3.40944C32.5655 2.35321 31.1349 1.75681 29.6412 1.75H23.8994C22.4011 1.74999 20.9638 2.34345 19.9019 3.40055C18.8401 4.45764 18.2402 5.89229 18.2335 7.39059V7.74353H9.03647C8.24675 7.74352 7.46481 7.89952 6.73554 8.20257C6.00628 8.50562 5.34407 8.94975 4.78694 9.50945C4.22981 10.0691 3.78873 10.7334 3.48904 11.464C3.18935 12.1947 3.03695 12.9773 3.04059 13.7671V34.2447C3.04059 34.7333 3.23466 35.2018 3.58012 35.5472C3.92557 35.8927 4.39411 36.0868 4.88265 36.0868C5.37119 36.0868 5.83973 35.8927 6.18518 35.5472C6.53063 35.2018 6.72471 34.7333 6.72471 34.2447V15.0882C8.6723 17.9801 11.3019 20.3481 14.3813 21.9832C17.4607 23.6182 20.8952 24.4701 24.3818 24.4635H29.1329C32.6235 24.4721 36.0624 23.6213 39.1463 21.9863C42.2302 20.3512 44.8642 17.9822 46.8159 15.0882V40.3424C46.8193 40.6469 46.7618 40.949 46.6468 41.231C46.5318 41.513 46.3617 41.7692 46.1463 41.9846C45.931 42.1999 45.6748 42.3701 45.3928 42.4851C45.1108 42.6 44.8086 42.6575 44.5041 42.6541H14.6512C14.1626 42.6541 13.6941 42.8482 13.3486 43.1936C13.0032 43.5391 12.8091 44.0076 12.8091 44.4962C12.8091 44.9847 13.0032 45.4533 13.3486 45.7987C13.6941 46.1442 14.1626 46.3382 14.6512 46.3382H44.5041C46.0943 46.3382 47.6194 45.7065 48.7438 44.5821C49.8683 43.4576 50.5 41.9326 50.5 40.3424V13.7671C50.5 12.1769 49.8683 10.6518 48.7438 9.52733C47.6194 8.40288 46.0943 7.77118 44.5041 7.77118ZM21.9159 7.39C21.9224 6.87315 22.1307 6.37931 22.4962 6.01382C22.8617 5.64832 23.3555 5.44009 23.8724 5.43353H29.6141C30.1309 5.44024 30.6245 5.64854 30.9899 6.01402C31.3553 6.3795 31.5634 6.87325 31.57 7.39V7.74294H21.9176L21.9159 7.39ZM29.1329 20.7794H24.3818C21.187 20.7872 18.0506 19.923 15.3107 18.2801C12.5707 16.6371 10.331 14.2776 8.83294 11.4559H44.6818C43.1815 14.2758 40.9413 16.6338 38.2018 18.2765C35.4624 19.9191 32.3271 20.7844 29.1329 20.7794Z" fill="#3F3F3F"/>
<path d="M9.08824 44.4841C9.08824 45.3334 8.83639 46.1636 8.36455 46.8697C7.8927 47.5759 7.22205 48.1263 6.43741 48.4513C5.65276 48.7763 4.78936 48.8614 3.95638 48.6957C3.1234 48.53 2.35826 48.121 1.75772 47.5205C1.15718 46.9199 0.748202 46.1548 0.582512 45.3218C0.416823 44.4888 0.501861 43.6254 0.826872 42.8408C1.15188 42.0561 1.70227 41.3855 2.40844 40.9136C3.1146 40.4418 3.94482 40.1899 4.79412 40.1899C5.93299 40.1899 7.02521 40.6424 7.83052 41.4477C8.63582 42.253 9.08824 43.3452 9.08824 44.4841Z" fill="#00C83C"/>
</g>
<defs>
<clipPath id="clip0_4377_6656">
<rect width="50" height="50" fill="white" transform="translate(0.5 0.5)"/>
</clipPath>
</defs>
</svg>
