<svg width="61" height="61" viewBox="0 0 61 61" fill="none" xmlns="http://www.w3.org/2000/svg">
<g clip-path="url(#clip0_5822_6575)">
<path d="M10.9134 41.0801C10.9134 42.1808 10.6081 43.2567 10.0359 44.1719C9.46376 45.0871 8.65054 45.8003 7.6991 46.2215C6.74766 46.6427 5.70072 46.7528 4.6907 46.538C3.68068 46.3233 2.75294 45.7932 2.02479 45.0148C1.29665 44.2365 0.800814 43.2449 0.599992 42.1653C0.39917 41.0858 0.502381 39.9669 0.896572 38.95C1.29076 37.9332 1.95823 37.0641 2.81456 36.4527C3.67089 35.8414 4.67763 35.5151 5.70745 35.5153C7.08835 35.5153 8.4127 36.1016 9.38914 37.1452C10.3656 38.1888 10.9142 39.6042 10.9142 41.0801" fill="#00C83C"/>
<path d="M5.71008 59.9813C5.45055 59.9813 5.19304 59.9267 4.95327 59.8205C4.7135 59.7144 4.49577 59.5588 4.31226 59.3627C4.12874 59.1665 3.98285 58.9336 3.88354 58.6774C3.78422 58.4211 3.73328 58.1464 3.73328 57.8691V51.8274C3.73328 51.55 3.78422 51.2754 3.88354 51.0191C3.98285 50.7628 4.12874 50.5301 4.31226 50.334C4.49577 50.1378 4.7135 49.9823 4.95327 49.8761C5.19304 49.77 5.45055 49.7154 5.71008 49.7154C6.2336 49.7164 6.73528 49.9393 7.10514 50.3353C7.475 50.7313 7.68274 51.2679 7.68274 51.8274V55.7931H58.5226C58.7821 55.7931 59.0383 55.8477 59.278 55.9539C59.5178 56.06 59.7355 56.2156 59.919 56.4117C60.1026 56.6079 60.2484 56.8408 60.3478 57.097C60.4471 57.3533 60.498 57.628 60.498 57.9053C60.498 58.1827 60.4471 58.4574 60.3478 58.7137C60.2484 58.9699 60.1026 59.2028 59.919 59.399C59.7355 59.5951 59.5178 59.7507 59.278 59.8568C59.0383 59.9629 58.7821 60.0176 58.5226 60.0176L5.71008 59.9813ZM30.154 35.1631C30.1564 34.4553 30.2672 33.7527 30.4821 33.0833L24.5586 29.0851C23.7836 29.5717 22.9162 29.8675 22.0207 29.9509C21.1253 30.0343 20.2243 29.9033 19.3822 29.5673L19.2347 29.7934L14.8028 34.4607C14.6186 34.6565 14.3995 34.8115 14.159 34.9167C13.9186 35.0219 13.6607 35.0753 13.4008 35.0737C13.141 35.0722 12.8848 35.0157 12.6454 34.9076C12.4061 34.7996 12.1893 34.6421 12.0072 34.4441C11.8244 34.247 11.6795 34.0134 11.5812 33.7566C11.4829 33.4997 11.4325 33.2248 11.4337 32.9473C11.4349 32.6698 11.4876 32.3953 11.5881 32.1394C11.6886 31.8835 11.8351 31.6514 12.0196 31.4561L16.2695 26.979C15.4661 25.6877 15.108 24.1379 15.2563 22.5952C15.4047 21.0525 16.0491 19.6131 17.0815 18.5234C18.1139 17.4337 19.4687 16.7617 20.9138 16.6222C22.3589 16.4828 23.8056 16.8848 25.0039 17.7593C26.2028 18.6334 27.0788 19.926 27.4838 21.4156C27.8888 22.9052 27.7972 24.4989 27.2233 25.9237L32.8173 29.7286C33.8642 28.9246 35.1193 28.4889 36.4084 28.4823C37.4554 28.4807 38.4856 28.7665 39.3998 29.3122L48.0762 20.0336C47.2491 18.8876 46.7971 17.4828 46.79 16.0355C46.7908 14.2632 47.4506 12.5639 48.6234 11.311C49.7962 10.0581 51.3861 9.3542 53.0444 9.3542C54.7026 9.354 56.2924 10.0579 57.4653 11.3108C58.6381 12.5638 59.2981 14.2631 59.2987 16.0355C59.2988 16.9133 59.1374 17.7827 58.8231 18.5938C58.5089 19.4048 58.0474 20.1418 57.4666 20.7625C56.8859 21.3833 56.1963 21.8758 55.4375 22.2118C54.6786 22.5477 53.8657 22.7206 53.0444 22.7206C52.4461 22.7179 51.8515 22.6205 51.2798 22.4317C51.1889 22.6214 51.0697 22.7943 50.9269 22.9433L42.1003 32.4096C42.4705 33.2731 42.6623 34.2115 42.6641 35.1614C42.6635 36.9341 42.0048 38.634 40.832 39.8876C39.6593 41.1411 38.0697 41.8458 36.4111 41.8466C35.5897 41.8471 34.7757 41.6745 34.0166 41.339C33.2576 41.0034 32.5672 40.5114 31.9861 39.8909C31.405 39.2704 30.9442 38.5336 30.6296 37.7227C30.315 36.9117 30.1529 36.0425 30.1526 35.1645L30.154 35.1631ZM34.1062 35.1631C34.1064 35.8164 34.3494 36.4429 34.7817 36.9049C35.214 37.3669 35.7998 37.6265 36.4111 37.6267C37.0224 37.6265 37.6083 37.3669 38.0405 36.9049C38.4728 36.4429 38.7158 35.8164 38.716 35.1631C38.7161 34.8395 38.6568 34.519 38.5409 34.2201C38.4251 33.9212 38.256 33.6498 38.0419 33.421C37.8278 33.1923 37.5731 33.0108 37.2934 32.8871C37.0137 32.7634 36.7138 32.6998 36.4111 32.7C36.1079 32.6992 35.8078 32.7625 35.5275 32.886C35.2472 33.0095 34.9921 33.191 34.7776 33.4199C34.563 33.6489 34.3932 33.9207 34.2772 34.2201C34.1612 34.5195 34.1018 34.8405 34.1021 35.1645L34.1062 35.1631ZM19.2072 23.2661C19.2074 23.9186 19.4499 24.5444 19.8813 25.0062C20.3126 25.4679 20.8974 25.7278 21.5079 25.729C22.1191 25.7288 22.7051 25.4693 23.1373 25.0075C23.5696 24.5456 23.8124 23.9194 23.8128 23.2661C23.8129 22.9426 23.7536 22.6221 23.6377 22.3232C23.5219 22.0243 23.3528 21.7528 23.1387 21.5241C22.9246 21.2953 22.6699 21.1139 22.3902 20.9902C22.1105 20.8665 21.8106 20.8029 21.5079 20.8031C21.2051 20.8028 20.9055 20.8664 20.6257 20.9902C20.3458 21.1139 20.0913 21.2953 19.8771 21.5243C19.663 21.7532 19.4938 22.025 19.3781 22.3241C19.2624 22.6232 19.2027 22.9439 19.203 23.2676L19.2072 23.2661ZM50.7422 16.0371C50.7421 16.3607 50.8015 16.681 50.9173 16.9799C51.0331 17.2788 51.2036 17.5505 51.4177 17.7792C51.6318 18.0079 51.8851 18.1892 52.1649 18.3129C52.4446 18.4366 52.7444 18.5002 53.0471 18.5C53.3497 18.5001 53.6499 18.4365 53.9294 18.3127C54.2089 18.189 54.4627 18.0076 54.6765 17.7788C54.8904 17.5501 55.06 17.2784 55.1755 16.9795C55.2911 16.6807 55.351 16.3605 55.3506 16.0371C55.3507 15.714 55.2912 15.394 55.1755 15.0955C55.0599 14.7969 54.8903 14.5256 54.6765 14.2971C54.4627 14.0687 54.2087 13.8875 53.9294 13.7639C53.65 13.6404 53.3494 13.577 53.0471 13.5772C52.7443 13.5765 52.4448 13.6396 52.1649 13.763C51.8849 13.8864 51.6307 14.0676 51.4163 14.2962C51.2019 14.5248 51.032 14.7965 50.9159 15.0955C50.7999 15.3945 50.7395 15.7149 50.7395 16.0386L50.7422 16.0371ZM3.73603 29.7249V2.12981C3.73603 1.56962 3.94439 1.03231 4.31501 0.636201C4.68563 0.240088 5.1887 0.0175781 5.71283 0.0175781C6.23636 0.0185773 6.73804 0.241485 7.1079 0.63749C7.47775 1.0335 7.6855 1.57027 7.6855 2.12981V29.7279C7.6855 30.2874 7.47775 30.824 7.1079 31.22C6.73804 31.616 6.23636 31.8391 5.71283 31.8401C5.45295 31.8405 5.19483 31.7861 4.95465 31.6801C4.71446 31.574 4.49608 31.4184 4.31226 31.222C4.12843 31.0257 3.98294 30.7925 3.88354 30.5358C3.78413 30.2792 3.73309 30.0042 3.73328 29.7264L3.73603 29.7249Z" fill="#3F3F3F"/>
</g>
<defs>
<clipPath id="clip0_5822_6575">
<rect width="60" height="60" fill="white" transform="translate(0.5 0.0175781)"/>
</clipPath>
</defs>
</svg>
