<svg width="61" height="61" viewBox="0 0 61 61" fill="none" xmlns="http://www.w3.org/2000/svg">
<g clip-path="url(#clip0_5822_6562)">
<path d="M11.4851 52.1045C11.4851 53.1907 11.163 54.2527 10.5595 55.1559C9.95596 56.0591 9.09819 56.7631 8.0946 57.1788C7.09102 57.5946 5.98669 57.7034 4.92126 57.4915C3.85584 57.2796 2.87716 56.7566 2.10899 55.9885C1.34082 55.2204 0.817651 54.2418 0.605641 53.1764C0.393631 52.111 0.502301 51.0067 0.917909 50.0031C1.33352 48.9994 2.0374 48.1415 2.94055 47.5379C3.84369 46.9343 4.90555 46.6121 5.99184 46.6119C7.44855 46.6119 8.84559 47.1906 9.87564 48.2207C10.9057 49.2507 11.4844 50.6478 11.4844 52.1045" fill="#00C83C"/>
<path d="M17.0368 54.4756C16.3523 54.4756 15.6954 54.2037 15.2114 53.7197C14.7274 53.2358 14.4559 52.5793 14.4559 51.8949C14.4559 51.2104 14.7274 50.554 15.2114 50.07C15.6954 49.586 16.3523 49.3141 17.0368 49.3141H50.5666C51.0592 49.3143 51.5466 49.2175 52.0018 49.029C52.457 48.8406 52.8708 48.5642 53.2192 48.2158C53.5675 47.8675 53.8441 47.4539 54.0326 46.9987C54.221 46.5435 54.3182 46.0557 54.318 45.5631V21.4004C54.318 20.7159 54.5895 20.0596 55.0735 19.5756C55.5575 19.0916 56.2144 18.8197 56.8989 18.8197C57.5838 18.8193 58.2409 19.091 58.7256 19.5749C59.2104 20.0589 59.4832 20.7154 59.4839 21.4004V45.5631C59.4837 46.7339 59.2525 47.8931 58.8042 48.9747C58.356 50.0563 57.6994 51.0391 56.8713 51.8668C56.0432 52.6945 55.0592 53.3509 53.9774 53.7987C52.8956 54.2464 51.7374 54.4767 50.5666 54.4763L17.0368 54.4756ZM34.8067 42.5299L25.7129 33.4359L16.0772 42.5898C15.5754 43.0329 14.9219 43.2634 14.2532 43.2326C13.5845 43.2017 12.9529 42.912 12.494 42.4247C12.0348 41.938 11.7828 41.292 11.7909 40.623C11.7989 39.9539 12.0674 39.3142 12.5381 38.8388L24.0006 27.973C24.4902 27.5119 25.1411 27.2603 25.8135 27.2715C26.4859 27.2827 27.1277 27.5559 27.6017 28.0329L36.1275 36.5283L52.0652 9.24362C51.7033 8.44187 51.5892 7.55011 51.7384 6.68322C51.8876 5.81634 52.293 5.01391 52.9021 4.37926C53.5095 3.74368 54.2929 3.30448 55.1521 3.11793C56.0113 2.93138 56.907 3.00606 57.7233 3.33249C58.5405 3.65849 59.2414 4.22142 59.7362 4.94883C60.2311 5.67624 60.4969 6.53486 60.5 7.41462C60.4987 8.50041 60.0974 9.54758 59.3723 10.3557C58.6471 11.1638 57.6487 11.6762 56.5694 11.7947L38.889 42.0216C38.6879 42.3654 38.4099 42.6581 38.077 42.8768C37.7441 43.0955 37.3653 43.2342 36.9699 43.2823H36.628C35.9461 43.2807 35.2924 43.0097 34.8095 42.5284L34.8067 42.5299ZM3.29263 35.298V18.6686C3.29187 16.3097 4.2263 14.0467 5.89147 12.3758C7.55663 10.705 9.81662 9.76275 12.1755 9.75546H42.0724C42.7569 9.75546 43.4138 10.0273 43.8978 10.5113C44.3818 10.9953 44.6534 11.6516 44.6534 12.336C44.6534 13.0205 44.3818 13.6769 43.8978 14.1609C43.4138 14.6449 42.7569 14.9168 42.0724 14.9168H12.1755C11.1858 14.9242 10.2393 15.3229 9.54224 16.0256C8.8452 16.7283 8.45386 17.6781 8.45445 18.6679V35.2676C8.45408 35.952 8.18283 36.6082 7.69893 37.092C7.21503 37.576 6.55788 37.848 5.87354 37.8483V37.8787C5.53446 37.8788 5.19968 37.812 4.8864 37.6823C4.57312 37.5526 4.28789 37.3624 4.04816 37.1226C3.80842 36.8828 3.61806 36.5981 3.48841 36.2847C3.35875 35.9714 3.29245 35.6357 3.29263 35.2966V35.298Z" fill="#3F3F3F"/>
</g>
<defs>
<clipPath id="clip0_5822_6562">
<rect width="60" height="60" fill="white" transform="translate(0.5 0.0175781)"/>
</clipPath>
</defs>
</svg>
