<svg width="16" height="14" viewBox="0 0 16 14" fill="none" xmlns="http://www.w3.org/2000/svg">
<path d="M14 7.28271V6.33337C14 4.74208 13.3679 3.21595 12.2427 2.09073C11.1175 0.965515 9.59135 0.333374 8.00005 0.333374C6.40875 0.333374 4.88263 0.965515 3.75741 2.09073C2.63219 3.21595 2.00005 4.74208 2.00005 6.33337V7.28271C1.30082 7.5906 0.728582 8.12934 0.379129 8.80875C0.0296769 9.48816 -0.0757776 10.267 0.0804202 11.0149C0.236618 11.7627 0.644987 12.4343 1.23716 12.917C1.82934 13.3998 2.56937 13.6644 3.33338 13.6667C3.687 13.6667 4.02614 13.5262 4.27619 13.2762C4.52624 13.0261 4.66672 12.687 4.66672 12.3334V8.33337C4.66672 7.97975 4.52624 7.64061 4.27619 7.39057C4.02614 7.14052 3.687 7.00004 3.33338 7.00004V6.33337C3.33338 5.0957 3.82505 3.90871 4.70022 3.03354C5.57539 2.15837 6.76237 1.66671 8.00005 1.66671C9.23773 1.66671 10.4247 2.15837 11.2999 3.03354C12.175 3.90871 12.6667 5.0957 12.6667 6.33337V7.00004C12.3131 7.00004 11.974 7.14052 11.7239 7.39057C11.4739 7.64061 11.3334 7.97975 11.3334 8.33337V12.3334H9.33338C9.15657 12.3334 8.987 12.4036 8.86198 12.5286C8.73695 12.6537 8.66672 12.8232 8.66672 13C8.66672 13.1769 8.73695 13.3464 8.86198 13.4714C8.987 13.5965 9.15657 13.6667 9.33338 13.6667H12.6667C13.4307 13.6644 14.1708 13.3998 14.7629 12.917C15.3551 12.4343 15.7635 11.7627 15.9197 11.0149C16.0759 10.267 15.9704 9.48816 15.621 8.80875C15.2715 8.12934 14.6993 7.5906 14 7.28271ZM3.33338 12.3334C2.80295 12.3334 2.29424 12.1227 1.91917 11.7476C1.5441 11.3725 1.33338 10.8638 1.33338 10.3334C1.33338 9.80294 1.5441 9.29423 1.91917 8.91916C2.29424 8.54409 2.80295 8.33337 3.33338 8.33337V12.3334ZM12.6667 12.3334V8.33337C13.1971 8.33337 13.7059 8.54409 14.0809 8.91916C14.456 9.29423 14.6667 9.80294 14.6667 10.3334C14.6667 10.8638 14.456 11.3725 14.0809 11.7476C13.7059 12.1227 13.1971 12.3334 12.6667 12.3334Z" fill="#00C83C"/>
</svg>
