<svg width="40" height="40" viewBox="0 0 40 40" fill="none" xmlns="http://www.w3.org/2000/svg">
<g clip-path="url(#clip0_6022_3716)">
<path d="M28 20.3769V19.1111C28 16.9894 27.1571 14.9546 25.6568 13.4543C24.1565 11.954 22.1217 11.1111 20 11.1111C17.8783 11.1111 15.8434 11.954 14.3431 13.4543C12.8428 14.9546 12 16.9894 12 19.1111V20.3769C11.0677 20.7874 10.3047 21.5058 9.83876 22.4116C9.37283 23.3175 9.23222 24.356 9.44048 25.3531C9.64875 26.3503 10.1932 27.2457 10.9828 27.8893C11.7724 28.533 12.7591 28.8859 13.7778 28.8889C14.2493 28.8889 14.7014 28.7016 15.0348 28.3682C15.3682 28.0348 15.5555 27.5826 15.5555 27.1111V21.7778C15.5555 21.3063 15.3682 20.8541 15.0348 20.5207C14.7014 20.1873 14.2493 20 13.7778 20V19.1111C13.7778 17.4609 14.4333 15.8783 15.6002 14.7114C16.7671 13.5445 18.3498 12.8889 20 12.8889C21.6502 12.8889 23.2329 13.5445 24.3998 14.7114C25.5667 15.8783 26.2222 17.4609 26.2222 19.1111V20C25.7507 20 25.2985 20.1873 24.9651 20.5207C24.6317 20.8541 24.4444 21.3063 24.4444 21.7778V27.1111H21.7778C21.542 27.1111 21.3159 27.2048 21.1492 27.3715C20.9825 27.5382 20.8889 27.7643 20.8889 28C20.8889 28.2358 20.9825 28.4619 21.1492 28.6286C21.3159 28.7953 21.542 28.8889 21.7778 28.8889H26.2222C27.2409 28.8859 28.2276 28.533 29.0172 27.8893C29.8067 27.2457 30.3512 26.3503 30.5595 25.3531C30.7678 24.356 30.6271 23.3175 30.1612 22.4116C29.6953 21.5058 28.9323 20.7874 28 20.3769ZM13.7778 27.1111C13.0705 27.1111 12.3922 26.8302 11.8921 26.3301C11.3921 25.83 11.1111 25.1517 11.1111 24.4445C11.1111 23.7372 11.3921 23.059 11.8921 22.5589C12.3922 22.0588 13.0705 21.7778 13.7778 21.7778V27.1111ZM26.2222 27.1111V21.7778C26.9295 21.7778 27.6077 22.0588 28.1078 22.5589C28.6079 23.059 28.8889 23.7372 28.8889 24.4445C28.8889 25.1517 28.6079 25.83 28.1078 26.3301C27.6077 26.8302 26.9295 27.1111 26.2222 27.1111Z" fill="#00C83C"/>
</g>
<defs>
<clipPath id="clip0_6022_3716">
<rect width="21.3333" height="21.3333" fill="white" transform="translate(9.33333 9.33334)"/>
</clipPath>
</defs>
</svg>
