<svg width="30" height="30" viewBox="0 0 30 30" fill="none" xmlns="http://www.w3.org/2000/svg">
<path d="M21 15.2827V14.3334C21 12.7421 20.3679 11.216 19.2427 10.0907C18.1175 8.96552 16.5913 8.33337 15 8.33337C13.4087 8.33337 11.8826 8.96552 10.7574 10.0907C9.63219 11.216 9.00005 12.7421 9.00005 14.3334V15.2827C8.30082 15.5906 7.72858 16.1293 7.37913 16.8088C7.02968 17.4882 6.92422 18.267 7.08042 19.0149C7.23662 19.7627 7.64499 20.4343 8.23716 20.917C8.82934 21.3998 9.56937 21.6644 10.3334 21.6667C10.687 21.6667 11.0261 21.5262 11.2762 21.2762C11.5262 21.0261 11.6667 20.687 11.6667 20.3334V16.3334C11.6667 15.9798 11.5262 15.6406 11.2762 15.3906C11.0261 15.1405 10.687 15 10.3334 15V14.3334C10.3334 13.0957 10.825 11.9087 11.7002 11.0335C12.5754 10.1584 13.7624 9.66671 15 9.66671C16.2377 9.66671 17.4247 10.1584 18.2999 11.0335C19.175 11.9087 19.6667 13.0957 19.6667 14.3334V15C19.3131 15 18.974 15.1405 18.7239 15.3906C18.4739 15.6406 18.3334 15.9798 18.3334 16.3334V20.3334H16.3334C16.1566 20.3334 15.987 20.4036 15.862 20.5286C15.737 20.6537 15.6667 20.8232 15.6667 21C15.6667 21.1769 15.737 21.3464 15.862 21.4714C15.987 21.5965 16.1566 21.6667 16.3334 21.6667H19.6667C20.4307 21.6644 21.1708 21.3998 21.7629 20.917C22.3551 20.4343 22.7635 19.7627 22.9197 19.0149C23.0759 18.267 22.9704 17.4882 22.621 16.8088C22.2715 16.1293 21.6993 15.5906 21 15.2827ZM10.3334 20.3334C9.80295 20.3334 9.29424 20.1227 8.91917 19.7476C8.5441 19.3725 8.33338 18.8638 8.33338 18.3334C8.33338 17.8029 8.5441 17.2942 8.91917 16.9192C9.29424 16.5441 9.80295 16.3334 10.3334 16.3334V20.3334ZM19.6667 20.3334V16.3334C20.1971 16.3334 20.7059 16.5441 21.0809 16.9192C21.456 17.2942 21.6667 17.8029 21.6667 18.3334C21.6667 18.8638 21.456 19.3725 21.0809 19.7476C20.7059 20.1227 20.1971 20.3334 19.6667 20.3334Z" fill="#00C83C"/>
</svg>
