<svg width="31" height="30" viewBox="0 0 31 30" fill="none" xmlns="http://www.w3.org/2000/svg">
<g clip-path="url(#clip0_6022_5178)">
<path d="M21.5 15.2827V14.3334C21.5 12.7421 20.8679 11.216 19.7427 10.0907C18.6175 8.96552 17.0913 8.33337 15.5 8.33337C13.9087 8.33337 12.3826 8.96552 11.2574 10.0907C10.1322 11.216 9.50005 12.7421 9.50005 14.3334V15.2827C8.80082 15.5906 8.22858 16.1293 7.87913 16.8088C7.52968 17.4882 7.42422 18.267 7.58042 19.0149C7.73662 19.7627 8.14499 20.4343 8.73716 20.917C9.32934 21.3998 10.0694 21.6644 10.8334 21.6667C11.187 21.6667 11.5261 21.5262 11.7762 21.2762C12.0262 21.0261 12.1667 20.687 12.1667 20.3334V16.3334C12.1667 15.9798 12.0262 15.6406 11.7762 15.3906C11.5261 15.1405 11.187 15 10.8334 15V14.3334C10.8334 13.0957 11.325 11.9087 12.2002 11.0335C13.0754 10.1584 14.2624 9.66671 15.5 9.66671C16.7377 9.66671 17.9247 10.1584 18.7999 11.0335C19.675 11.9087 20.1667 13.0957 20.1667 14.3334V15C19.8131 15 19.474 15.1405 19.2239 15.3906C18.9739 15.6406 18.8334 15.9798 18.8334 16.3334V20.3334H16.8334C16.6566 20.3334 16.487 20.4036 16.362 20.5286C16.237 20.6537 16.1667 20.8232 16.1667 21C16.1667 21.1769 16.237 21.3464 16.362 21.4714C16.487 21.5965 16.6566 21.6667 16.8334 21.6667H20.1667C20.9307 21.6644 21.6708 21.3998 22.2629 20.917C22.8551 20.4343 23.2635 19.7627 23.4197 19.0149C23.5759 18.267 23.4704 17.4882 23.121 16.8088C22.7715 16.1293 22.1993 15.5906 21.5 15.2827ZM10.8334 20.3334C10.3029 20.3334 9.79424 20.1227 9.41917 19.7476C9.0441 19.3725 8.83338 18.8638 8.83338 18.3334C8.83338 17.8029 9.0441 17.2942 9.41917 16.9192C9.79424 16.5441 10.3029 16.3334 10.8334 16.3334V20.3334ZM20.1667 20.3334V16.3334C20.6971 16.3334 21.2059 16.5441 21.5809 16.9192C21.956 17.2942 22.1667 17.8029 22.1667 18.3334C22.1667 18.8638 21.956 19.3725 21.5809 19.7476C21.2059 20.1227 20.6971 20.3334 20.1667 20.3334Z" fill="#8B8B8B"/>
</g>
<defs>
<clipPath id="clip0_6022_5178">
<rect width="16" height="16" fill="white" transform="translate(7.5 7)"/>
</clipPath>
</defs>
</svg>
