<svg width="80" height="80" viewBox="0 0 80 80" fill="none" xmlns="http://www.w3.org/2000/svg">
<g clip-path="url(#clip0_7910_64663)">
<path d="M22.5994 70.0009C22.5994 71.33 22.2052 72.6292 21.4668 73.7343C20.7284 74.8394 19.6789 75.7007 18.451 76.2093C17.2231 76.718 15.8719 76.851 14.5684 76.5917C13.2648 76.3325 12.0674 75.6924 11.1276 74.7526C10.1878 73.8128 9.54778 72.6154 9.28849 71.3119C9.0292 70.0083 9.16227 68.6572 9.67089 67.4292C10.1795 66.2013 11.0408 65.1518 12.1459 64.4134C13.251 63.675 14.5503 63.2809 15.8794 63.2809C17.6616 63.2809 19.3709 63.9889 20.6311 65.2491C21.8914 66.5094 22.5994 68.2186 22.5994 70.0009Z" fill="#00C83C"/>
<path d="M40.0016 80C35.5912 80.0006 31.211 79.2711 27.0388 77.8409C26.3103 77.5245 25.7277 76.9454 25.4069 76.2187C25.0862 75.4921 25.0509 74.6713 25.3081 73.9199C25.5653 73.1684 26.096 72.5413 26.7947 72.1636C27.4934 71.7858 28.3087 71.6851 29.0784 71.8814C36.5912 74.4549 44.7718 74.2908 52.1754 71.418C59.579 68.5451 65.7292 63.1484 69.5399 56.181C73.3505 49.2136 74.5764 41.1236 73.0011 33.34C71.4257 25.5564 67.1505 18.5799 60.9304 13.6426C54.7103 8.7053 46.9456 6.12489 39.0076 6.35708C31.0695 6.58928 23.4689 9.61915 17.5481 14.9116C11.6272 20.204 7.76708 27.4185 6.6494 35.2809C5.53171 43.1433 7.22839 51.1477 11.4398 57.8805C11.8141 58.5883 11.9058 59.4118 11.6962 60.1846C11.4867 60.9573 10.9916 61.6217 10.3109 62.0434C9.63032 62.4652 8.81497 62.6127 8.02971 62.4563C7.24445 62.2999 6.54785 61.8512 6.08073 61.2009C1.38192 53.6833 -0.686342 44.8178 0.200859 35.997C1.08806 27.1762 4.88045 18.9001 10.9822 12.4688C17.084 6.03757 25.1495 1.81558 33.9114 0.466158C42.6734 -0.883265 51.6354 0.716343 59.3895 5.01368C67.1436 9.31102 73.2504 16.0626 76.7505 24.2077C80.2506 32.3527 80.9457 41.4298 78.7265 50.0128C76.5073 58.5959 71.4997 66.1985 64.4903 71.6263C57.4809 77.0542 48.8669 79.9996 40.0016 80Z" fill="#666666"/>
<path d="M33.0783 59.7214C32.2831 59.7206 31.5207 59.4041 30.9588 58.8414L17.5997 45.4814C17.0891 44.91 16.8165 44.1647 16.838 43.3986C16.8595 42.6325 17.1735 41.9037 17.7154 41.3618C18.2573 40.8199 18.9861 40.506 19.7522 40.4844C20.5183 40.4629 21.2636 40.7355 21.835 41.2462L33.035 52.4461L60.235 25.2462C60.8065 24.7355 61.5517 24.463 62.3178 24.4845C63.0839 24.506 63.8127 24.8199 64.3546 25.3618C64.8966 25.9037 65.2105 26.6325 65.232 27.3986C65.2535 28.1647 64.9809 28.91 64.4703 29.4815L35.1978 58.8414C34.6359 59.4041 33.8735 59.7206 33.0783 59.7214Z" fill="#666666"/>
</g>
<defs>
<clipPath id="clip0_7910_64663">
<rect width="80" height="80" fill="white"/>
</clipPath>
</defs>
</svg>
