<svg width="80" height="81" viewBox="0 0 80 81" fill="none" xmlns="http://www.w3.org/2000/svg">
<g clip-path="url(#clip0_8118_9462)">
<path d="M22.5993 70.2876C22.5993 71.6167 22.2052 72.916 21.4668 74.0211C20.7284 75.1262 19.6788 75.9875 18.4509 76.4961C17.223 77.0047 15.8718 77.1378 14.5683 76.8785C13.2647 76.6192 12.0674 75.9792 11.1275 75.0394C10.1877 74.0996 9.54772 72.9022 9.28843 71.5986C9.02914 70.2951 9.16221 68.9439 9.67083 67.716C10.1795 66.4881 11.0408 65.4386 12.1459 64.7002C13.251 63.9617 14.5502 63.5676 15.8793 63.5676C17.6616 63.5676 19.3708 64.2756 20.6311 65.5359C21.8913 66.7961 22.5993 68.5054 22.5993 70.2876Z" fill="#00C83C"/>
<path d="M40.0016 80.2866C35.5912 80.2873 31.211 79.5577 27.0388 78.1276C26.3103 77.8112 25.7277 77.232 25.4069 76.5054C25.0862 75.7787 25.0509 74.958 25.3081 74.2065C25.5653 73.455 26.096 72.828 26.7947 72.4502C27.4934 72.0725 28.3087 71.9717 29.0784 72.168C36.5912 74.7416 44.7718 74.5774 52.1754 71.7046C59.579 68.8318 65.7292 63.4351 69.5399 56.4676C73.3505 49.5002 74.5764 41.4103 73.0011 33.6266C71.4257 25.843 67.1505 18.8665 60.9304 13.9292C54.7103 8.99193 46.9456 6.41151 39.0076 6.6437C31.0695 6.8759 23.4689 9.90577 17.5481 15.1982C11.6272 20.4906 7.76708 27.7051 6.6494 35.5675C5.53171 43.4299 7.22839 51.4343 11.4398 58.1671C11.8141 58.8749 11.9058 59.6984 11.6962 60.4712C11.4867 61.2439 10.9916 61.9084 10.3109 62.3301C9.63032 62.7518 8.81497 62.8994 8.02971 62.743C7.24445 62.5866 6.54785 62.1379 6.08073 61.4876C1.38192 53.97 -0.686342 45.1044 0.200859 36.2836C1.08806 27.4628 4.88045 19.1867 10.9822 12.7555C17.084 6.32419 25.1495 2.1022 33.9114 0.752779C42.6734 -0.596644 51.6354 1.00296 59.3895 5.3003C67.1436 9.59764 73.2504 16.3492 76.7505 24.4943C80.2506 32.6394 80.9457 41.7164 78.7265 50.2995C76.5073 58.8825 71.4997 66.4851 64.4903 71.913C57.4809 77.3408 48.8669 80.2863 40.0016 80.2866Z" fill="white"/>
<path d="M33.0783 60.0079C32.283 60.0071 31.5207 59.6906 30.9587 59.1279L17.5997 45.7679C17.089 45.1965 16.8165 44.4512 16.838 43.6851C16.8595 42.919 17.1734 42.1902 17.7153 41.6483C18.2573 41.1064 18.9861 40.7925 19.7521 40.7709C20.5182 40.7494 21.2635 41.022 21.835 41.5326L33.035 52.7326L60.2349 25.5327C60.8064 25.022 61.5517 24.7495 62.3178 24.771C63.0839 24.7925 63.8127 25.1064 64.3546 25.6483C64.8965 26.1902 65.2104 26.919 65.2319 27.6851C65.2534 28.4512 64.9809 29.1965 64.4702 29.768L35.1978 59.1279C34.6359 59.6906 33.8735 60.0071 33.0783 60.0079Z" fill="white"/>
</g>
<defs>
<clipPath id="clip0_8118_9462">
<rect width="80" height="80" fill="white" transform="translate(0 0.286621)"/>
</clipPath>
</defs>
</svg>
