<svg width="13" height="12" viewBox="0 0 13 12" fill="none" xmlns="http://www.w3.org/2000/svg">
<g clip-path="url(#clip0_4464_7953)">
<path d="M11.9749 4.79997C11.8811 4.70623 11.754 4.65358 11.6214 4.65358C11.4888 4.65358 11.3617 4.70623 11.2679 4.79997L5.82189 10.2695C5.58975 10.5016 5.31414 10.6858 5.01082 10.8115C4.7075 10.9372 4.38239 11.0018 4.05407 11.0019C3.39098 11.0019 2.75504 10.7386 2.28614 10.2697C1.81724 9.80088 1.55378 9.16498 1.55374 8.50189C1.55369 7.83881 1.81705 7.20287 2.28589 6.73397L7.56039 1.43797C7.84243 1.16042 8.22273 1.00556 8.61843 1.00712C9.01414 1.00868 9.3932 1.16655 9.67304 1.44632C9.95288 1.7261 10.1108 2.10512 10.1125 2.50082C10.1141 2.89653 9.95938 3.27686 9.68189 3.55897L4.40739 8.85497C4.31226 8.9461 4.18562 8.99697 4.05389 8.99697C3.92216 8.99697 3.79551 8.9461 3.70039 8.85497C3.60665 8.7612 3.554 8.63405 3.554 8.50147C3.554 8.36889 3.60665 8.24173 3.70039 8.14797L8.39639 3.43047C8.48747 3.33617 8.53787 3.20987 8.53673 3.07877C8.53559 2.94767 8.483 2.82226 8.3903 2.72956C8.2976 2.63686 8.17219 2.58427 8.04109 2.58313C7.90999 2.58199 7.78369 2.63239 7.68939 2.72347L2.99339 7.44097C2.85407 7.58026 2.74356 7.74563 2.66816 7.92763C2.59277 8.10964 2.55396 8.30471 2.55396 8.50172C2.55396 8.69872 2.59277 8.8938 2.66816 9.0758C2.74356 9.25781 2.85407 9.42318 2.99339 9.56247C3.2792 9.83521 3.65908 9.98737 4.05414 9.98737C4.4492 9.98737 4.82908 9.83521 5.11489 9.56247L10.3889 4.26597C10.8479 3.79512 11.1029 3.1624 11.0987 2.50486C11.0945 1.84732 10.8314 1.21791 10.3664 0.752982C9.90139 0.288054 9.27194 0.0250431 8.6144 0.0209232C7.95686 0.0168032 7.32417 0.271906 6.85339 0.73097L1.57889 6.02697C0.922479 6.68338 0.553711 7.57366 0.553711 8.50197C0.553711 9.43027 0.922479 10.3206 1.57889 10.977C2.2353 11.6334 3.12558 12.0021 4.05389 12.0021C4.98219 12.0021 5.87248 11.6334 6.52889 10.977L11.9749 5.50897C12.0216 5.46251 12.0587 5.40727 12.084 5.34643C12.1093 5.28559 12.1223 5.22036 12.1223 5.15447C12.1223 5.08858 12.1093 5.02335 12.084 4.96251C12.0587 4.90167 12.0216 4.84643 11.9749 4.79997Z" fill="#F5F5F5"/>
</g>
<defs>
<clipPath id="clip0_4464_7953">
<rect width="12" height="12" fill="white" transform="translate(0.5)"/>
</clipPath>
</defs>
</svg>
