<svg width="80" height="81" viewBox="0 0 80 81" fill="none" xmlns="http://www.w3.org/2000/svg">
<g clip-path="url(#clip0_6774_52027)">
<path d="M22.5994 70.0779C22.5994 71.407 22.2053 72.7062 21.4669 73.8113C20.7285 74.9164 19.679 75.7777 18.451 76.2864C17.2231 76.795 15.872 76.9281 14.5684 76.6688C13.2649 76.4095 12.0675 75.7695 11.1277 74.8297C10.1879 73.8899 9.54784 72.6925 9.28855 71.3889C9.02926 70.0854 9.16234 68.7342 9.67096 67.5063C10.1796 66.2784 11.0409 65.2288 12.146 64.4904C13.2511 63.752 14.5503 63.3579 15.8794 63.3579C17.6617 63.3579 19.3709 64.0659 20.6312 65.3262C21.8914 66.5864 22.5994 68.2957 22.5994 70.0779Z" fill="#00C83C"/>
<path d="M40.0016 80.0769C35.5912 80.0776 31.211 79.348 27.0388 77.9178C26.3103 77.6014 25.7277 77.0223 25.4069 76.2956C25.0862 75.569 25.0509 74.7482 25.3081 73.9968C25.5653 73.2453 26.096 72.6182 26.7947 72.2405C27.4934 71.8627 28.3087 71.762 29.0784 71.9583C36.5912 74.5319 44.7718 74.3677 52.1754 71.4949C59.579 68.622 65.7292 63.2253 69.5399 56.2579C73.3505 49.2905 74.5764 41.2005 73.0011 33.4169C71.4257 25.6333 67.1505 18.6568 60.9304 13.7195C54.7103 8.78221 46.9456 6.20179 39.0076 6.43399C31.0695 6.66618 23.4689 9.69605 17.5481 14.9885C11.6272 20.2809 7.76708 27.4954 6.6494 35.3578C5.53171 43.2202 7.22839 51.2246 11.4398 57.9574C11.8141 58.6652 11.9058 59.4887 11.6962 60.2615C11.4867 61.0342 10.9916 61.6986 10.3109 62.1203C9.63032 62.5421 8.81497 62.6896 8.02971 62.5332C7.24445 62.3769 6.54785 61.9282 6.08073 61.2779C1.38192 53.7602 -0.686342 44.8947 0.200859 36.0739C1.08806 27.2531 4.88045 18.977 10.9822 12.5457C17.084 6.11447 25.1495 1.89248 33.9114 0.543062C42.6734 -0.80636 51.6354 0.793247 59.3895 5.09058C67.1436 9.38792 73.2504 16.1395 76.7505 24.2846C80.2506 32.4296 80.9457 41.5067 78.7265 50.0897C76.5073 58.6728 71.4997 66.2754 64.4903 71.7032C57.4809 77.1311 48.8669 80.0765 40.0016 80.0769Z" fill="#F5F5F5"/>
<path d="M44.1541 40.6963L55.8294 29.0172C56.4136 28.4211 56.7389 27.6185 56.7347 26.7838C56.7305 25.9492 56.3971 25.1499 55.8069 24.5597C55.2167 23.9695 54.4174 23.6361 53.5828 23.6319C52.7481 23.6277 51.9455 23.953 51.3494 24.5372L39.6741 36.2172L27.9951 24.5372C27.399 23.953 26.5964 23.6277 25.7617 23.6319C24.9271 23.6361 24.1278 23.9695 23.5376 24.5597C22.9474 25.1499 22.614 25.9492 22.6097 26.7838C22.6055 27.6185 22.9309 28.4211 23.5151 29.0172L35.1951 40.6963L23.5151 52.3762C23.216 52.6693 22.978 53.0188 22.8149 53.4044C22.6517 53.79 22.5666 54.2042 22.5645 54.6229C22.5624 55.0416 22.6433 55.4566 22.8026 55.8438C22.9618 56.2311 23.1963 56.5829 23.4923 56.879C23.7884 57.1751 24.1403 57.4095 24.5275 57.5688C24.9148 57.728 25.3297 57.8089 25.7485 57.8068C26.1672 57.8047 26.5813 57.7196 26.9669 57.5564C27.3526 57.3933 27.702 57.1553 27.9951 56.8562L39.6741 45.1762L51.3541 56.8515C51.9502 57.4357 52.7528 57.7611 53.5875 57.7569C54.4221 57.7526 55.2214 57.4192 55.8116 56.829C56.4018 56.2388 56.7352 55.4396 56.7394 54.6049C56.7437 53.7703 56.4183 52.9677 55.8341 52.3715L44.1541 40.6963Z" fill="#F5F5F5"/>
</g>
<defs>
<clipPath id="clip0_6774_52027">
<rect width="80" height="80" fill="white" transform="translate(0 0.0769043)"/>
</clipPath>
</defs>
</svg>
