<svg width="80" height="80" viewBox="0 0 80 80" fill="none" xmlns="http://www.w3.org/2000/svg">
<g clip-path="url(#clip0_7910_64684)">
<path d="M22.5994 70.0009C22.5994 71.33 22.2053 72.6292 21.4669 73.7343C20.7285 74.8394 19.679 75.7007 18.451 76.2093C17.2231 76.718 15.872 76.851 14.5684 76.5917C13.2649 76.3325 12.0675 75.6924 11.1277 74.7526C10.1879 73.8128 9.54784 72.6154 9.28855 71.3119C9.02926 70.0083 9.16234 68.6572 9.67096 67.4292C10.1796 66.2013 11.0409 65.1518 12.146 64.4134C13.2511 63.675 14.5503 63.2809 15.8794 63.2809C17.6617 63.2809 19.3709 63.9889 20.6312 65.2491C21.8914 66.5094 22.5994 68.2186 22.5994 70.0009Z" fill="#00C83C"/>
<path d="M40.0016 80C35.5912 80.0006 31.211 79.2711 27.0388 77.8409C26.3103 77.5245 25.7277 76.9454 25.4069 76.2187C25.0862 75.4921 25.0509 74.6713 25.3081 73.9199C25.5653 73.1684 26.096 72.5413 26.7947 72.1636C27.4934 71.7858 28.3087 71.6851 29.0784 71.8814C36.5912 74.4549 44.7718 74.2908 52.1754 71.418C59.579 68.5451 65.7292 63.1484 69.5399 56.181C73.3505 49.2136 74.5764 41.1236 73.0011 33.34C71.4257 25.5564 67.1505 18.5799 60.9304 13.6426C54.7103 8.7053 46.9456 6.12489 39.0076 6.35708C31.0695 6.58928 23.4689 9.61915 17.5481 14.9116C11.6272 20.204 7.76708 27.4185 6.6494 35.2809C5.53171 43.1433 7.22839 51.1477 11.4398 57.8805C11.8141 58.5883 11.9058 59.4118 11.6962 60.1846C11.4867 60.9573 10.9916 61.6217 10.3109 62.0434C9.63032 62.4652 8.81497 62.6127 8.02971 62.4563C7.24445 62.2999 6.54785 61.8512 6.08073 61.2009C1.38192 53.6833 -0.686342 44.8178 0.200859 35.997C1.08806 27.1762 4.88045 18.9001 10.9822 12.4688C17.084 6.03757 25.1495 1.81558 33.9114 0.466158C42.6734 -0.883265 51.6354 0.716343 59.3895 5.01368C67.1436 9.31102 73.2504 16.0626 76.7505 24.2077C80.2506 32.3527 80.9457 41.4298 78.7265 50.0128C76.5073 58.5959 71.4997 66.1985 64.4903 71.6263C57.4809 77.0542 48.8669 79.9996 40.0016 80Z" fill="#666666"/>
<path d="M44.1541 40.6193L55.8294 28.9403C56.4136 28.3442 56.7389 27.5416 56.7347 26.7069C56.7305 25.8723 56.3971 25.073 55.8069 24.4828C55.2167 23.8926 54.4174 23.5592 53.5828 23.555C52.7481 23.5508 51.9455 23.8761 51.3494 24.4603L39.6741 36.1403L27.9951 24.4603C27.399 23.8761 26.5964 23.5508 25.7617 23.555C24.9271 23.5592 24.1278 23.8926 23.5376 24.4828C22.9474 25.073 22.614 25.8723 22.6097 26.7069C22.6055 27.5416 22.9309 28.3442 23.5151 28.9403L35.1951 40.6193L23.5151 52.2993C23.216 52.5924 22.978 52.9419 22.8149 53.3275C22.6517 53.7131 22.5666 54.1272 22.5645 54.546C22.5624 54.9647 22.6433 55.3797 22.8026 55.7669C22.9618 56.1542 23.1963 56.506 23.4923 56.8021C23.7884 57.0982 24.1403 57.3326 24.5275 57.4919C24.9148 57.6511 25.3297 57.732 25.7485 57.7299C26.1672 57.7278 26.5813 57.6427 26.9669 57.4795C27.3526 57.3164 27.702 57.0784 27.9951 56.7793L39.6741 45.0993L51.3541 56.7746C51.9502 57.3588 52.7528 57.6842 53.5875 57.68C54.4221 57.6757 55.2214 57.3423 55.8116 56.7521C56.4018 56.1619 56.7352 55.3627 56.7394 54.528C56.7437 53.6933 56.4183 52.8908 55.8341 52.2946L44.1541 40.6193Z" fill="#666666"/>
</g>
<defs>
<clipPath id="clip0_7910_64684">
<rect width="80" height="80" fill="white"/>
</clipPath>
</defs>
</svg>
