<svg width="18" height="17" viewBox="0 0 18 17" fill="none" xmlns="http://www.w3.org/2000/svg">
<path fill-rule="evenodd" clip-rule="evenodd" d="M7.48128 0.200195C11.1414 0.200195 14.1086 3.16733 14.1086 6.82747C14.1086 8.39345 13.5654 9.83258 12.6572 10.9667L16.8383 15.1431C17.1259 15.4307 17.1259 15.897 16.8383 16.1845C16.5687 16.4541 16.1421 16.471 15.8529 16.2351L15.797 16.1845L11.6173 12.006C10.4836 12.9126 9.04576 13.4547 7.48128 13.4547C3.82114 13.4547 0.854004 10.4876 0.854004 6.82747C0.854004 3.16733 3.82114 0.200195 7.48128 0.200195ZM7.48128 1.67292C4.6345 1.67292 2.32673 3.98069 2.32673 6.82747C2.32673 9.67424 4.6345 11.982 7.48128 11.982C10.3281 11.982 12.6358 9.67424 12.6358 6.82747C12.6358 3.98069 10.3281 1.67292 7.48128 1.67292Z" fill="#7C7C7C"/>
</svg>
