<svg width="28" height="21" viewBox="0 0 28 21" fill="none" xmlns="http://www.w3.org/2000/svg">
<path d="M6.47345 21C5.25221 21 4.19027 20.6842 3.28761 20.0526C2.38496 19.3684 1.69469 18.4474 1.21681 17.2895C0.738938 16.1316 0.5 14.8158 0.5 13.3421C0.5 11.5526 0.792035 9.84211 1.37611 8.21053C2.01327 6.52632 2.96903 4.97369 4.24336 3.55263C5.5177 2.13158 7.16372 0.947369 9.18141 0L12.5265 3.07895C11.0929 3.55263 9.81858 4.21053 8.70354 5.05263C7.64159 5.89474 6.76549 6.84211 6.07522 7.89474C5.43805 8.94737 4.98673 10.0263 4.72124 11.1316L5.03982 11.2895C5.25221 11.1316 5.5177 11 5.83628 10.8947C6.15487 10.7895 6.63274 10.7368 7.26991 10.7368C7.90708 10.7368 8.5708 10.9211 9.26106 11.2895C9.95133 11.6579 10.5089 12.2105 10.9336 12.9474C11.4115 13.6316 11.6504 14.5526 11.6504 15.7105C11.6504 16.6579 11.4115 17.5263 10.9336 18.3158C10.5089 19.1053 9.89823 19.7632 9.10177 20.2895C8.30531 20.7632 7.4292 21 6.47345 21ZM21.4469 21C20.2257 21 19.1637 20.6842 18.2611 20.0526C17.3584 19.3684 16.6681 18.4474 16.1903 17.2895C15.7124 16.1316 15.4735 14.8158 15.4735 13.3421C15.4735 11.5526 15.7655 9.84211 16.3496 8.21053C16.9867 6.52632 17.9425 4.97369 19.2168 3.55263C20.4911 2.13158 22.1372 0.947369 24.1549 0L27.5 3.07895C26.0664 3.55263 24.792 4.21053 23.677 5.05263C22.615 5.89474 21.7389 6.84211 21.0487 7.89474C20.4115 8.94737 19.9602 10.0263 19.6947 11.1316L20.0133 11.2895C20.2257 11.1316 20.4911 11 20.8097 10.8947C21.1283 10.7895 21.6062 10.7368 22.2434 10.7368C22.8805 10.7368 23.5442 10.9211 24.2345 11.2895C24.9248 11.6579 25.4823 12.2105 25.9071 12.9474C26.385 13.6316 26.6239 14.5526 26.6239 15.7105C26.6239 16.6579 26.385 17.5263 25.9071 18.3158C25.4823 19.1053 24.8717 19.7632 24.0752 20.2895C23.2788 20.7632 22.4027 21 21.4469 21Z" fill="#00C83C"/>
</svg>
