<svg width="57" height="56" viewBox="0 0 57 56" fill="none" xmlns="http://www.w3.org/2000/svg">
<g clip-path="url(#clip0_2590_3399)">
<path d="M8.676 35.7281C8.676 36.5368 8.43616 37.3273 7.98682 37.9996C7.53748 38.672 6.89883 39.196 6.15165 39.5053C5.40447 39.8146 4.58234 39.8953 3.78926 39.7373C2.99618 39.5793 2.26777 39.1897 1.69618 38.6176C1.1246 38.0456 0.735515 37.3169 0.57815 36.5236C0.420786 35.7304 0.502212 34.9084 0.812129 34.1614C1.12204 33.4145 1.64653 32.7763 2.31923 32.3275C2.99193 31.8787 3.78263 31.6395 4.5913 31.6401C5.67493 31.641 6.71388 32.0721 7.47982 32.8386C8.24576 33.6052 8.676 34.6445 8.676 35.7281Z" fill="#00C83C"/>
<path d="M20.66 51.3516C20.155 51.3516 19.6707 51.151 19.3137 50.7939C18.9566 50.4368 18.756 49.9525 18.756 49.4476C18.756 48.9426 18.9566 48.4583 19.3137 48.1012C19.6707 47.7442 20.155 47.5436 20.66 47.5436H26.932V39.3122H12.7357C12.2307 39.3122 11.7464 39.1116 11.3894 38.7546C11.0323 38.3975 10.8317 37.9132 10.8317 37.4082C10.8317 36.9033 11.0323 36.419 11.3894 36.0619C11.7464 35.7048 12.2307 35.5042 12.7357 35.5042H51.572C51.7191 35.5042 51.8647 35.4753 52.0006 35.419C52.1365 35.3627 52.26 35.2802 52.364 35.1762C52.468 35.0722 52.5505 34.9487 52.6068 34.8128C52.663 34.677 52.692 34.5313 52.692 34.3842V9.8279C52.692 9.68082 52.663 9.53518 52.6068 9.3993C52.5505 9.26341 52.468 9.13994 52.364 9.03594C52.26 8.93194 52.1365 8.84944 52.0006 8.79316C51.8647 8.73687 51.7191 8.7079 51.572 8.7079H6.10001C5.80297 8.7079 5.51809 8.8259 5.30805 9.03594C5.09801 9.24598 4.98001 9.53086 4.98001 9.8279V27.1319C4.98001 27.6369 4.77941 28.1212 4.42234 28.4782C4.06527 28.8353 3.58098 29.0359 3.07601 29.0359C2.57104 29.0359 2.08675 28.8353 1.72968 28.4782C1.37261 28.1212 1.17201 27.6369 1.17201 27.1319V9.8279C1.17201 8.52092 1.69121 7.26746 2.61539 6.34328C3.53957 5.4191 4.79303 4.8999 6.10001 4.8999L51.572 4.8999C52.879 4.8999 54.1325 5.4191 55.0566 6.34328C55.9808 7.26746 56.5 8.52092 56.5 9.8279V34.3836C56.5 35.6906 55.9808 36.944 55.0566 37.8682C54.1325 38.7924 52.879 39.3116 51.572 39.3116H30.74V47.5436H37.012C37.517 47.5436 38.0013 47.7442 38.3583 48.1012C38.7154 48.4583 38.916 48.9426 38.916 49.4476C38.916 49.9525 38.7154 50.4368 38.3583 50.7939C38.0013 51.151 37.517 51.3516 37.012 51.3516H20.66Z" fill="#3F3F3F"/>
</g>
<defs>
<clipPath id="clip0_2590_3399">
<rect width="56" height="56" fill="white" transform="translate(0.5)"/>
</clipPath>
</defs>
</svg>
