<svg width="51" height="50" viewBox="0 0 51 50" fill="none" xmlns="http://www.w3.org/2000/svg">
<g clip-path="url(#clip0_4394_8764)">
<path d="M11.2347 48.0434C10.8012 48.0432 10.385 47.8708 10.0785 47.5642C9.77197 47.2575 9.60014 46.8419 9.60014 46.4083C9.60061 45.9751 9.77315 45.5598 10.0796 45.2537C10.3861 44.9475 10.8015 44.7756 11.2347 44.7756H25.4425V3.26474H5.76315V39.7406C5.76323 39.955 5.72011 40.1673 5.63812 40.3654C5.55613 40.5634 5.43638 40.7434 5.28482 40.895C5.13326 41.0466 4.95292 41.167 4.75487 41.249C4.55681 41.3311 4.34524 41.3734 4.13086 41.3734C3.91624 41.3736 3.70291 41.3314 3.50455 41.2495C3.30619 41.1675 3.12649 41.0474 2.9746 40.8957C2.82271 40.7441 2.70244 40.5641 2.62015 40.3659C2.53786 40.1677 2.49527 39.9552 2.49512 39.7406V1.63273C2.49574 1.19939 2.6679 0.783901 2.9746 0.47776C3.28129 0.171618 3.69752 -0.000155995 4.13086 1.06301e-07H27.0736C27.288 9.2421e-08 27.5007 0.0422565 27.6988 0.124315C27.8969 0.206374 28.0772 0.326571 28.2287 0.47819C28.3803 0.629808 28.5001 0.809768 28.582 1.00785C28.664 1.20594 28.706 1.41834 28.7059 1.63273V46.4083C28.7062 46.6229 28.6651 46.8353 28.5832 47.0336C28.5013 47.232 28.3803 47.4122 28.2287 47.564C28.0772 47.7159 27.8981 47.8364 27.6999 47.9186C27.5018 48.0008 27.2882 48.0433 27.0736 48.0434H11.2347ZM10.4972 41.4286C10.0643 41.4281 9.64919 41.2559 9.34319 40.9498C9.0372 40.6437 8.86517 40.2287 8.86486 39.7958V29.4797C8.86471 29.0465 9.03602 28.631 9.34205 28.3244C9.64808 28.0179 10.064 27.8453 10.4972 27.8447H20.8163C21.2495 27.8453 21.6642 28.0179 21.9703 28.3244C22.2763 28.631 22.4476 29.0465 22.4475 29.4797V39.7958C22.4471 40.2287 22.2751 40.6437 21.9691 40.9498C21.6631 41.2559 21.2491 41.4281 20.8163 41.4286H10.4972ZM12.1329 38.1614H19.1806V31.1137H12.1329V38.1614ZM42.9332 28.2664C42.6186 27.9525 42.4286 27.5344 42.4009 27.0909C42.3732 26.6474 42.5086 26.2089 42.7818 25.8584L44.4944 24.1435H33.7405C33.2984 24.0896 32.8917 23.8756 32.5968 23.542C32.3019 23.2083 32.1395 22.7781 32.1403 22.3328C32.1405 21.8878 32.3033 21.4582 32.598 21.1248C32.8927 20.7914 33.2988 20.577 33.7405 20.5221H44.4932L42.7806 18.8096C42.5075 18.459 42.3721 18.0207 42.3998 17.5772C42.4275 17.1336 42.6163 16.7155 42.9309 16.4017C43.245 16.0877 43.6634 15.899 44.1067 15.8709C44.5499 15.8428 44.9885 15.9772 45.3398 16.249L50.1552 21.1764L50.3732 21.4496L50.536 21.7479C50.5712 21.8452 50.599 21.9448 50.6198 22.0462C50.6381 22.1546 50.6462 22.2646 50.6439 22.3745C50.6461 22.4837 50.6381 22.5928 50.6198 22.7005C50.6016 22.8114 50.5737 22.9206 50.536 23.0265L50.3732 23.3272L50.1552 23.5979L45.3398 28.4138C45.0207 28.6619 44.6279 28.7969 44.2237 28.7973C43.9843 28.7982 43.7465 28.7519 43.5251 28.661C43.3037 28.5701 43.1029 28.4363 42.9332 28.2675V28.2664ZM10.496 23.4093C10.2816 23.4093 10.0701 23.3671 9.872 23.285C9.67394 23.203 9.49361 23.0828 9.34205 22.9312C9.19048 22.7795 9.07073 22.5996 8.98875 22.4015C8.90676 22.2034 8.86364 21.991 8.86371 21.7766V8.574C8.866 8.20866 8.99082 7.85474 9.21816 7.56873C9.4455 7.28272 9.76321 7.08114 10.1186 6.99648C13.7591 6.12386 17.5533 6.12386 21.1937 6.99648C21.5491 7.08114 21.8657 7.28272 22.093 7.56873C22.3203 7.85474 22.4452 8.20866 22.4475 8.574V21.7766C22.4475 21.991 22.4056 22.2034 22.3236 22.4015C22.2416 22.5996 22.1218 22.7795 21.9703 22.9312C21.8187 23.0828 21.6384 23.203 21.4403 23.285C21.2423 23.3671 21.0307 23.4093 20.8163 23.4093H10.496ZM12.1318 9.90835V20.1446H19.1794V9.90835C18.0158 9.70562 16.8368 9.60376 15.6556 9.60365C14.4747 9.6041 13.2961 9.70647 12.1329 9.90964L12.1318 9.90835Z" fill="#3F3F3F"/>
<path d="M7.66723 46.4118C7.66723 47.1063 7.46127 47.7852 7.0754 48.3627C6.68952 48.9402 6.14106 49.3903 5.49939 49.656C4.85771 49.9218 4.15163 49.9913 3.47045 49.8558C2.78927 49.7202 2.16358 49.3857 1.67251 48.8946C1.18145 48.4034 0.847054 47.7777 0.711629 47.0965C0.576203 46.4153 0.645826 45.7092 0.911693 45.0676C1.17756 44.4259 1.62773 43.8776 2.20527 43.4918C2.78281 43.106 3.46178 42.9002 4.15632 42.9003C5.08762 42.9003 5.98079 43.2702 6.63932 43.9288C7.29786 44.5873 7.66782 45.4805 7.66782 46.4118" fill="#00C83C"/>
</g>
<defs>
<clipPath id="clip0_4394_8764">
<rect width="50" height="50" fill="white" transform="translate(0.644226)"/>
</clipPath>
</defs>
</svg>
