<svg width="40" height="40" viewBox="0 0 40 40" fill="none" xmlns="http://www.w3.org/2000/svg">
<path fill-rule="evenodd" clip-rule="evenodd" d="M20.377 25.0477C20.1494 25.1236 19.846 25.1236 19.6184 25.0477C19.4667 25.0477 19.315 24.896 19.2391 24.8201L14.6877 20.2687C14.2325 19.8136 14.2325 19.2067 14.6877 18.7516C15.1428 18.2964 15.7497 18.2964 16.2048 18.7516L18.9357 21.4824L18.9333 9.06667C18.9333 8.53333 19.4667 8 20 8C20.6069 8 21.0667 8.45981 21.0667 9.06667L21.0597 21.4824L23.7905 18.7516C24.2457 18.2964 24.8525 18.2964 25.3077 18.7516C25.7628 19.2067 25.7628 19.8136 25.3077 20.2687L20.7562 24.8201C20.6804 24.896 20.5287 25.0477 20.377 25.0477ZM29.6 28.2667V25.0667C29.6 24.4994 29.2021 24 28.5333 24C27.8646 24 27.4667 24.4994 27.4667 25.0667V28.2667C27.4667 28.8339 26.88 29.3333 26.4 29.3333H13.6C13.12 29.3333 12.5333 28.8339 12.5333 28.2667V25.0667C12.5333 24.4994 12.1354 24 11.4667 24C10.7979 24 10.4 24.4994 10.4 25.0667V28.2667C10.4 30.4333 11.68 31.4667 13.6 31.4667H26.4C28.2947 31.4667 29.6 30.4 29.6 28.2667Z" fill="black"/>
</svg>
