<svg width="40" height="40" viewBox="0 0 40 40" fill="none" xmlns="http://www.w3.org/2000/svg">
<path d="M22.8047 39.9998C22.4321 39.9998 22.0748 39.8519 21.8114 39.5884C21.548 39.325 21.4 38.9677 21.4 38.5951V19.99C21.4 19.6175 21.548 19.2602 21.8114 18.9968C22.0748 18.7333 22.4321 18.5853 22.8047 18.5853H26.7788C26.879 17.5821 26.9792 16.5985 27.0799 15.615L27.1604 14.8122H22.8249C22.4523 14.8122 22.0951 14.6642 21.8316 14.4008C21.5682 14.1373 21.4202 13.78 21.4202 13.4075V10.5369C21.4013 10.0548 21.4147 9.57203 21.4602 9.09173C21.4832 8.71017 21.5817 8.33698 21.75 7.99373C21.9182 7.65048 22.1528 7.344 22.4402 7.09201C22.7277 6.84002 23.0622 6.64753 23.4245 6.52567C23.7868 6.40382 24.1697 6.35502 24.551 6.38209H27.2004V2.78964H21.9416L21.6004 2.84987L20.6974 3.05034C18.5096 3.63246 17.2254 5.03716 16.7233 7.34538C16.5879 8.12756 16.5208 8.92004 16.5228 9.71385V10.1374C16.5026 10.8597 16.5026 11.5825 16.5026 12.3449V13.3887C16.5026 13.7612 16.3546 14.1185 16.0911 14.3819C15.8277 14.6454 15.4704 14.7934 15.0979 14.7934H12.8099V18.5646H15.0776C15.4502 18.5646 15.8075 18.7126 16.0709 18.9761C16.3343 19.2395 16.4823 19.5968 16.4823 19.9693V30.4865C16.4823 30.8591 16.3343 31.2164 16.0708 31.4799C15.8074 31.7434 15.45 31.8914 15.0774 31.8914C14.7048 31.8914 14.3474 31.7434 14.084 31.4799C13.8205 31.2164 13.6725 30.8591 13.6725 30.4865V21.3947H11.3849C11.0158 21.3895 10.6636 21.2393 10.4044 20.9764C10.1452 20.7135 9.99996 20.3592 10 19.99V13.3868C10 13.0142 10.148 12.6569 10.4114 12.3935C10.6749 12.1301 11.0322 11.9821 11.4047 11.9821H13.6706C13.6706 11.3397 13.6706 10.6776 13.6908 10.0353V9.61173C13.6983 8.64832 13.7928 7.68755 13.9732 6.74115C14.6965 3.41175 16.7435 1.184 19.9346 0.32094C20.3162 0.220705 20.6974 0.141176 21.0588 0.0804703L21.5002 0H28.606C28.9786 0 29.3359 0.147995 29.5993 0.411427C29.8628 0.67486 30.0107 1.03215 30.0107 1.4047V7.76703C30.0107 8.13958 29.8628 8.49687 29.5993 8.7603C29.3359 9.02374 28.9786 9.17173 28.606 9.17173H24.2908C24.2697 9.23678 24.2563 9.30405 24.2508 9.3722C24.2214 9.7322 24.2146 10.0937 24.2305 10.4545V11.9604H28.6658C29.0382 11.9606 29.3953 12.1085 29.6586 12.3719C29.9219 12.6352 30.0699 12.9923 30.07 13.3647C30.07 13.4249 30.07 13.4649 30.07 13.5058C30.0827 13.6796 30.0827 13.854 30.07 14.0277L29.8696 15.9143C29.7284 17.1788 29.6089 18.4832 29.4884 19.7679C29.3679 21.0526 28.6653 21.415 27.6418 21.415H24.2301V38.5947C24.2301 38.7809 24.1932 38.9654 24.1213 39.1372C24.0495 39.3091 23.9442 39.4649 23.8115 39.5956C23.6789 39.7264 23.5215 39.8295 23.3487 39.8989C23.1758 39.9683 22.9909 40.0026 22.8047 39.9998Z" fill="#EBEBEB"/>
<path d="M18.5694 36.5673C18.5694 37.2421 18.3693 37.9017 17.9944 38.4627C17.6195 39.0238 17.0866 39.4611 16.4632 39.7193C15.8398 39.9775 15.1538 40.0451 14.492 39.9135C13.8302 39.7818 13.2223 39.4569 12.7451 38.9797C12.268 38.5026 11.9431 37.8947 11.8114 37.2329C11.6798 36.5711 11.7473 35.8851 12.0056 35.2616C12.2638 34.6382 12.7011 34.1054 13.2621 33.7305C13.8232 33.3556 14.4828 33.1555 15.1576 33.1555C16.0625 33.1555 16.9302 33.515 17.5701 34.1548C18.2099 34.7946 18.5694 35.6624 18.5694 36.5673Z" fill="#00C83C"/>
</svg>
