<svg width="25" height="24" viewBox="0 0 25 24" fill="none" xmlns="http://www.w3.org/2000/svg">
<path d="M7.80645 12.6194H9.88916V21.1935C9.88916 21.3628 10.0263 21.5 10.1956 21.5H13.7269C13.8962 21.5 14.0334 21.3628 14.0334 21.1935V12.6598H16.4276C16.5833 12.6598 16.7143 12.543 16.732 12.3883L17.0957 9.23176C17.1057 9.14491 17.0781 9.05794 17.02 8.99279C16.9619 8.92758 16.8786 8.89025 16.7913 8.89025H14.0335V6.91155C14.0335 6.31508 14.3546 6.01261 14.9881 6.01261C15.0784 6.01261 16.7913 6.01261 16.7913 6.01261C16.9606 6.01261 17.0978 5.87538 17.0978 5.70616V2.80872C17.0978 2.63944 16.9606 2.50227 16.7913 2.50227H14.3063C14.2888 2.50141 14.2498 2.5 14.1925 2.5C13.7613 2.5 12.2626 2.58464 11.0787 3.67377C9.76694 4.8807 9.94928 6.3258 9.99286 6.57636V8.89019H7.80645C7.63717 8.89019 7.5 9.02736 7.5 9.19664V12.3129C7.5 12.4822 7.63717 12.6194 7.80645 12.6194Z" fill="#00C83C"/>
</svg>
