<svg width="28" height="60" viewBox="0 0 28 60" fill="none" xmlns="http://www.w3.org/2000/svg">
<path d="M1.43083 12.4817C-1.43547 17.4611 0.38254 25.022 3.55672 29.6054C5.14014 31.8934 6.74556 33.9542 8.93743 33.9542C8.98142 33.9542 9.01807 33.9542 9.06205 33.9542C10.0957 33.9102 10.8361 33.5948 11.5618 33.2868C12.3682 32.9421 13.2112 32.5828 14.5234 32.5828C15.7696 32.5828 16.5687 32.9275 17.3384 33.2648C18.1008 33.5948 18.8778 33.9322 20.0361 33.9102C22.5065 33.8662 24.0313 31.6441 25.3655 29.6861C26.7656 27.64 27.462 25.66 27.7039 24.8973L27.7113 24.868C27.7553 24.736 27.6893 24.5893 27.5647 24.5233C27.5647 24.5233 27.55 24.5159 27.5427 24.5159C27.1102 24.3399 23.2836 22.6386 23.2469 18.0185C23.2102 14.2637 26.1132 12.2763 26.6923 11.917L26.7216 11.9023C26.7876 11.8583 26.8316 11.7997 26.8463 11.7263C26.8609 11.653 26.8463 11.5723 26.8023 11.5137C24.801 8.58026 21.7295 8.14025 20.4906 8.08158C20.3146 8.06691 20.124 8.05225 19.9408 8.05225C18.4893 8.05225 17.0965 8.60226 15.9749 9.04227C15.2052 9.35027 14.5381 9.60695 14.0762 9.60695C13.5558 9.60695 12.8887 9.34294 12.1116 9.03494C11.0707 8.62426 9.89775 8.15492 8.65154 8.15492C8.62221 8.15492 8.59289 8.15492 8.56357 8.15492C5.67528 8.19892 2.94094 9.85629 1.43083 12.4817Z" fill="#EBEBEB"/>
<path d="M20.4978 0.000346255C18.7458 0.0736812 16.6419 1.1517 15.381 2.62573C14.3107 3.86509 13.2698 5.92581 13.541 8.00852C13.5557 8.14052 13.6656 8.23586 13.7976 8.25053C13.9149 8.25786 14.0395 8.26519 14.1568 8.26519C15.8722 8.26519 17.7195 7.31918 18.9877 5.78648C20.3146 4.17311 20.989 2.10506 20.7837 0.249687C20.7691 0.103017 20.6371 -0.00698724 20.4978 0.000346255Z" fill="#EBEBEB"/>
<path d="M4.73243 44.7141V53.9541H3.23443V44.7141H4.73243ZM11.3087 44.5741C12.2047 44.5741 12.9794 44.7654 13.6327 45.1481C14.286 45.5308 14.79 46.0768 15.1447 46.7861C15.4994 47.4954 15.6767 48.3448 15.6767 49.3341C15.6767 50.3234 15.4994 51.1728 15.1447 51.8821C14.79 52.5914 14.286 53.1374 13.6327 53.5201C12.9794 53.9028 12.2047 54.0941 11.3087 54.0941C10.422 54.0941 9.65204 53.9028 8.99871 53.5201C8.34537 53.1374 7.84137 52.5914 7.48671 51.8821C7.13204 51.1728 6.95471 50.3234 6.95471 49.3341C6.95471 48.3448 7.13204 47.4954 7.48671 46.7861C7.84137 46.0768 8.34537 45.5308 8.99871 45.1481C9.65204 44.7654 10.422 44.5741 11.3087 44.5741ZM11.3087 45.8761C10.73 45.8761 10.2307 46.0114 9.81071 46.2821C9.40004 46.5528 9.08271 46.9448 8.85871 47.4581C8.63471 47.9714 8.52271 48.5968 8.52271 49.3341C8.52271 50.0621 8.63471 50.6874 8.85871 51.2101C9.08271 51.7234 9.40004 52.1154 9.81071 52.3861C10.2307 52.6568 10.73 52.7921 11.3087 52.7921C11.8967 52.7921 12.396 52.6568 12.8067 52.3861C13.2267 52.1154 13.5487 51.7234 13.7727 51.2101C13.9967 50.6874 14.1087 50.0621 14.1087 49.3341C14.1087 48.5968 13.9967 47.9714 13.7727 47.4581C13.5487 46.9448 13.2267 46.5528 12.8067 46.2821C12.396 46.0114 11.8967 45.8761 11.3087 45.8761ZM21.027 44.5741C21.8577 44.5741 22.5763 44.7328 23.183 45.0501C23.7897 45.3581 24.303 45.8154 24.723 46.4221L23.715 47.3881C23.3603 46.8468 22.959 46.4594 22.511 46.2261C22.0723 45.9834 21.5497 45.8621 20.943 45.8621C20.495 45.8621 20.1263 45.9228 19.837 46.0441C19.5477 46.1654 19.333 46.3288 19.193 46.5341C19.0623 46.7301 18.997 46.9541 18.997 47.2061C18.997 47.4954 19.095 47.7474 19.291 47.9621C19.4963 48.1768 19.8743 48.3448 20.425 48.4661L22.301 48.8861C23.197 49.0821 23.8317 49.3808 24.205 49.7821C24.5783 50.1834 24.765 50.6921 24.765 51.3081C24.765 51.8774 24.611 52.3721 24.303 52.7921C23.995 53.2121 23.5657 53.5341 23.015 53.7581C22.4737 53.9821 21.8343 54.0941 21.097 54.0941C20.4437 54.0941 19.8557 54.0101 19.333 53.8421C18.8103 53.6741 18.353 53.4454 17.961 53.1561C17.569 52.8668 17.247 52.5354 16.995 52.1621L18.031 51.1261C18.227 51.4528 18.4743 51.7468 18.773 52.0081C19.0717 52.2601 19.417 52.4561 19.809 52.5961C20.2103 52.7361 20.6537 52.8061 21.139 52.8061C21.5683 52.8061 21.937 52.7548 22.245 52.6521C22.5623 52.5494 22.8003 52.4001 22.959 52.2041C23.127 51.9988 23.211 51.7561 23.211 51.4761C23.211 51.2054 23.1177 50.9674 22.931 50.7621C22.7537 50.5568 22.4177 50.3981 21.923 50.2861L19.893 49.8241C19.333 49.7028 18.871 49.5301 18.507 49.3061C18.143 49.0821 17.8723 48.8114 17.695 48.4941C17.5177 48.1674 17.429 47.8034 17.429 47.4021C17.429 46.8794 17.569 46.4081 17.849 45.9881C18.1383 45.5588 18.5537 45.2181 19.095 44.9661C19.6363 44.7048 20.2803 44.5741 21.027 44.5741Z" fill="#EBEBEB"/>
</svg>
