<svg width="68" height="59" viewBox="0 0 68 59" fill="none" xmlns="http://www.w3.org/2000/svg">
<path d="M49.7841 16.9321L43.1409 13.0986L37.6759 18.3786L42.671 23.2102L49.7841 19.1019C50.1745 18.8777 50.4131 18.4727 50.4131 18.017C50.4131 17.5613 50.1745 17.1563 49.7841 16.9321Z" fill="#EBEBEB"/>
<path d="M42.0132 12.4405L34.6976 8.21655L18.6786 0L36.7723 17.5108L42.0132 12.4405Z" fill="#EBEBEB"/>
<path d="M18.9388 36.4971L34.7265 27.7959L41.5433 23.8612L36.7723 19.2539L18.9388 36.4971Z" fill="#EBEBEB"/>
<path d="M17.6087 0.708496L17.587 36.0628L35.8759 18.3784L17.6087 0.708496Z" fill="#EBEBEB"/>
<path d="M4.488 53.6171C3.736 53.6171 3.084 53.4531 2.532 53.1251C1.988 52.7891 1.564 52.3171 1.26 51.7091C0.964 51.1011 0.816 50.3771 0.816 49.5371C0.816 48.6971 0.972 47.9731 1.284 47.3651C1.604 46.7571 2.048 46.2891 2.616 45.9611C3.184 45.6251 3.836 45.4571 4.572 45.4571C5.356 45.4571 5.992 45.6051 6.48 45.9011C6.976 46.1971 7.376 46.6531 7.68 47.2691L6.804 47.7491C6.628 47.2931 6.348 46.9491 5.964 46.7171C5.588 46.4771 5.124 46.3571 4.572 46.3571C4.036 46.3571 3.56 46.4851 3.144 46.7411C2.736 46.9891 2.412 47.3531 2.172 47.8331C1.94 48.3051 1.824 48.8731 1.824 49.5371C1.824 50.2011 1.924 50.7731 2.124 51.2531C2.332 51.7251 2.636 52.0891 3.036 52.3451C3.444 52.5931 3.94 52.7171 4.524 52.7171C4.852 52.7171 5.156 52.6771 5.436 52.5971C5.724 52.5091 5.972 52.3811 6.18 52.2131C6.396 52.0451 6.564 51.8331 6.684 51.5771C6.804 51.3211 6.864 51.0211 6.864 50.6771V50.4011H4.344V49.5011H7.74V53.4971H6.984L6.936 52.0211L7.14 52.0571C6.932 52.5531 6.604 52.9371 6.156 53.2091C5.708 53.4811 5.152 53.6171 4.488 53.6171ZM12.2836 47.3771C12.8516 47.3771 13.3516 47.5011 13.7836 47.7491C14.2236 47.9971 14.5676 48.3571 14.8156 48.8291C15.0636 49.2931 15.1876 49.8491 15.1876 50.4971C15.1876 51.1451 15.0636 51.7051 14.8156 52.1771C14.5676 52.6411 14.2236 52.9971 13.7836 53.2451C13.3516 53.4931 12.8516 53.6171 12.2836 53.6171C11.7236 53.6171 11.2236 53.4931 10.7836 53.2451C10.3436 52.9971 9.99959 52.6411 9.75159 52.1771C9.50359 51.7051 9.37959 51.1451 9.37959 50.4971C9.37959 49.8491 9.50359 49.2931 9.75159 48.8291C9.99959 48.3571 10.3436 47.9971 10.7836 47.7491C11.2236 47.5011 11.7236 47.3771 12.2836 47.3771ZM12.2836 48.2051C11.8756 48.2051 11.5276 48.2971 11.2396 48.4811C10.9516 48.6651 10.7276 48.9291 10.5676 49.2731C10.4156 49.6091 10.3396 50.0171 10.3396 50.4971C10.3396 50.9691 10.4156 51.3771 10.5676 51.7211C10.7276 52.0651 10.9516 52.3291 11.2396 52.5131C11.5276 52.6971 11.8756 52.7891 12.2836 52.7891C12.6916 52.7891 13.0396 52.6971 13.3276 52.5131C13.6156 52.3291 13.8356 52.0651 13.9876 51.7211C14.1476 51.3771 14.2276 50.9691 14.2276 50.4971C14.2276 50.0171 14.1476 49.6091 13.9876 49.2731C13.8356 48.9291 13.6156 48.6651 13.3276 48.4811C13.0396 48.2971 12.6916 48.2051 12.2836 48.2051ZM19.4789 47.3771C20.0469 47.3771 20.5469 47.5011 20.9789 47.7491C21.4189 47.9971 21.7629 48.3571 22.0109 48.8291C22.2589 49.2931 22.3829 49.8491 22.3829 50.4971C22.3829 51.1451 22.2589 51.7051 22.0109 52.1771C21.7629 52.6411 21.4189 52.9971 20.9789 53.2451C20.5469 53.4931 20.0469 53.6171 19.4789 53.6171C18.9189 53.6171 18.4189 53.4931 17.9789 53.2451C17.5389 52.9971 17.1949 52.6411 16.9469 52.1771C16.6989 51.7051 16.5749 51.1451 16.5749 50.4971C16.5749 49.8491 16.6989 49.2931 16.9469 48.8291C17.1949 48.3571 17.5389 47.9971 17.9789 47.7491C18.4189 47.5011 18.9189 47.3771 19.4789 47.3771ZM19.4789 48.2051C19.0709 48.2051 18.7229 48.2971 18.4349 48.4811C18.1469 48.6651 17.9229 48.9291 17.7629 49.2731C17.6109 49.6091 17.5349 50.0171 17.5349 50.4971C17.5349 50.9691 17.6109 51.3771 17.7629 51.7211C17.9229 52.0651 18.1469 52.3291 18.4349 52.5131C18.7229 52.6971 19.0709 52.7891 19.4789 52.7891C19.8869 52.7891 20.2349 52.6971 20.5229 52.5131C20.8109 52.3291 21.0309 52.0651 21.1829 51.7211C21.3429 51.3771 21.4229 50.9691 21.4229 50.4971C21.4229 50.0171 21.3429 49.6091 21.1829 49.2731C21.0309 48.9291 20.8109 48.6651 20.5229 48.4811C20.2349 48.2971 19.8869 48.2051 19.4789 48.2051ZM29.2422 46.3931L29.4582 47.2451C29.4502 47.2451 29.4382 47.2451 29.4222 47.2451C29.4062 47.2451 29.3902 47.2451 29.3742 47.2451C28.9822 47.2451 28.6782 47.3251 28.4622 47.4851C28.2542 47.6371 28.1502 47.8851 28.1502 48.2291L27.5622 47.9291C27.5622 47.6171 27.6342 47.3451 27.7782 47.1131C27.9222 46.8811 28.1182 46.7051 28.3662 46.5851C28.6142 46.4571 28.8862 46.3931 29.1822 46.3931C29.1902 46.3931 29.1982 46.3931 29.2062 46.3931C29.2222 46.3931 29.2342 46.3931 29.2422 46.3931ZM27.4182 52.7291C27.9862 52.7291 28.4302 52.8611 28.7502 53.1251C29.0702 53.3811 29.2302 53.7251 29.2302 54.1571C29.2302 54.5491 29.0982 54.8891 28.8342 55.1771C28.5782 55.4651 28.2302 55.6851 27.7902 55.8371C27.3582 55.9971 26.8702 56.0771 26.3262 56.0771C25.3822 56.0771 24.6742 55.9171 24.2022 55.5971C23.7382 55.2771 23.5062 54.8931 23.5062 54.4451C23.5062 54.1251 23.6102 53.8371 23.8182 53.5811C24.0342 53.3331 24.3942 53.1931 24.8982 53.1611L24.8142 53.3411C24.5422 53.2691 24.3102 53.1491 24.1182 52.9811C23.9342 52.8051 23.8422 52.5531 23.8422 52.2251C23.8422 51.8971 23.9622 51.6171 24.2022 51.3851C24.4502 51.1451 24.8142 50.9971 25.2942 50.9411L25.9302 51.2651H25.8102C25.4182 51.3051 25.1382 51.4051 24.9702 51.5651C24.8102 51.7171 24.7302 51.8851 24.7302 52.0691C24.7302 52.2931 24.8102 52.4611 24.9702 52.5731C25.1382 52.6771 25.3702 52.7291 25.6662 52.7291H27.4182ZM26.3142 55.2731C26.7782 55.2731 27.1582 55.2251 27.4542 55.1291C27.7582 55.0331 27.9822 54.9091 28.1262 54.7571C28.2702 54.6051 28.3422 54.4411 28.3422 54.2651C28.3422 54.0491 28.2542 53.8771 28.0782 53.7491C27.9102 53.6211 27.6022 53.5571 27.1542 53.5571H25.3062C25.0502 53.5571 24.8342 53.6211 24.6582 53.7491C24.4822 53.8851 24.3942 54.0691 24.3942 54.3011C24.3942 54.5971 24.5622 54.8331 24.8982 55.0091C25.2422 55.1851 25.7142 55.2731 26.3142 55.2731ZM26.2302 47.3771C26.7102 47.3771 27.1342 47.4651 27.5022 47.6411C27.8782 47.8091 28.1702 48.0451 28.3782 48.3491C28.5862 48.6531 28.6902 49.0051 28.6902 49.4051C28.6902 49.7971 28.5862 50.1491 28.3782 50.4611C28.1702 50.7651 27.8782 51.0051 27.5022 51.1811C27.1342 51.3491 26.7102 51.4331 26.2302 51.4331C25.4382 51.4331 24.8302 51.2451 24.4062 50.8691C23.9822 50.4851 23.7702 49.9971 23.7702 49.4051C23.7702 49.0051 23.8742 48.6531 24.0822 48.3491C24.2982 48.0451 24.5902 47.8091 24.9582 47.6411C25.3262 47.4651 25.7502 47.3771 26.2302 47.3771ZM26.2302 48.1571C25.8142 48.1571 25.4662 48.2731 25.1862 48.5051C24.9062 48.7291 24.7662 49.0291 24.7662 49.4051C24.7662 49.7731 24.9062 50.0731 25.1862 50.3051C25.4662 50.5371 25.8142 50.6531 26.2302 50.6531C26.6462 50.6531 26.9942 50.5371 27.2742 50.3051C27.5542 50.0731 27.6942 49.7731 27.6942 49.4051C27.6942 49.0291 27.5542 48.7291 27.2742 48.5051C26.9942 48.2731 26.6462 48.1571 26.2302 48.1571ZM31.4889 44.7371V51.9731C31.4889 52.2771 31.5449 52.4891 31.6569 52.6091C31.7689 52.7211 31.9489 52.7771 32.1969 52.7771C32.3569 52.7771 32.4889 52.7651 32.5929 52.7411C32.6969 52.7171 32.8369 52.6731 33.0129 52.6091L32.8569 53.4491C32.7289 53.5051 32.5889 53.5451 32.4369 53.5691C32.2849 53.6011 32.1289 53.6171 31.9689 53.6171C31.4809 53.6171 31.1169 53.4851 30.8769 53.2211C30.6449 52.9571 30.5289 52.5531 30.5289 52.0091V44.7371H31.4889ZM36.7529 53.6171C36.1849 53.6171 35.6769 53.4931 35.2289 53.2451C34.7889 52.9971 34.4449 52.6411 34.1969 52.1771C33.9489 51.7051 33.8249 51.1451 33.8249 50.4971C33.8249 49.8491 33.9489 49.2931 34.1969 48.8291C34.4449 48.3571 34.7849 47.9971 35.2169 47.7491C35.6489 47.5011 36.1409 47.3771 36.6929 47.3771C37.2529 47.3771 37.7289 47.4971 38.1209 47.7371C38.5209 47.9771 38.8249 48.3051 39.0329 48.7211C39.2409 49.1291 39.3449 49.5891 39.3449 50.1011C39.3449 50.2371 39.3409 50.3611 39.3329 50.4731C39.3249 50.5851 39.3129 50.6851 39.2969 50.7731H34.4489V49.9211H38.8769L38.3849 50.0171C38.3849 49.4411 38.2249 48.9971 37.9049 48.6851C37.5929 48.3731 37.1809 48.2171 36.6689 48.2171C36.2769 48.2171 35.9369 48.3091 35.6489 48.4931C35.3689 48.6691 35.1489 48.9291 34.9889 49.2731C34.8369 49.6091 34.7609 50.0171 34.7609 50.4971C34.7609 50.9691 34.8409 51.3771 35.0009 51.7211C35.1609 52.0651 35.3849 52.3291 35.6729 52.5131C35.9689 52.6891 36.3209 52.7771 36.7289 52.7771C37.1689 52.7771 37.5249 52.6931 37.7969 52.5251C38.0769 52.3571 38.3009 52.1291 38.4689 51.8411L39.2249 52.2851C39.0729 52.5571 38.8769 52.7931 38.6369 52.9931C38.4049 53.1931 38.1289 53.3491 37.8089 53.4611C37.4969 53.5651 37.1449 53.6171 36.7529 53.6171ZM48.2365 45.5771C48.7725 45.5771 49.2365 45.6771 49.6285 45.8771C50.0285 46.0691 50.3405 46.3451 50.5645 46.7051C50.7885 47.0651 50.9005 47.4931 50.9005 47.9891C50.9005 48.4851 50.7885 48.9131 50.5645 49.2731C50.3405 49.6331 50.0285 49.9131 49.6285 50.1131C49.2365 50.3051 48.7725 50.4011 48.2365 50.4011H46.4005V53.4971H45.4405V45.5771H48.2365ZM48.0925 49.5011C48.7165 49.5011 49.1725 49.3731 49.4605 49.1171C49.7485 48.8531 49.8925 48.4771 49.8925 47.9891C49.8925 47.4931 49.7485 47.1171 49.4605 46.8611C49.1725 46.6051 48.7165 46.4771 48.0925 46.4771H46.4005V49.5011H48.0925ZM53.4968 44.7371V51.9731C53.4968 52.2771 53.5528 52.4891 53.6648 52.6091C53.7768 52.7211 53.9568 52.7771 54.2048 52.7771C54.3648 52.7771 54.4968 52.7651 54.6008 52.7411C54.7048 52.7171 54.8448 52.6731 55.0208 52.6091L54.8648 53.4491C54.7368 53.5051 54.5968 53.5451 54.4448 53.5691C54.2928 53.6011 54.1368 53.6171 53.9768 53.6171C53.4888 53.6171 53.1248 53.4851 52.8848 53.2211C52.6528 52.9571 52.5368 52.5531 52.5368 52.0091V44.7371H53.4968ZM59.7567 49.6211C59.7567 49.1731 59.6367 48.8291 59.3967 48.5891C59.1567 48.3411 58.8167 48.2171 58.3767 48.2171C57.9607 48.2171 57.6087 48.3091 57.3207 48.4931C57.0327 48.6691 56.8207 48.9571 56.6847 49.3571L55.9047 48.8771C56.0647 48.4291 56.3607 48.0691 56.7927 47.7971C57.2247 47.5171 57.7607 47.3771 58.4007 47.3771C58.8327 47.3771 59.2247 47.4531 59.5767 47.6051C59.9287 47.7491 60.2047 47.9731 60.4047 48.2771C60.6127 48.5731 60.7167 48.9571 60.7167 49.4291V52.3331C60.7167 52.6211 60.8687 52.7651 61.1727 52.7651C61.3247 52.7651 61.4727 52.7451 61.6167 52.7051L61.5687 53.4611C61.4087 53.5411 61.2007 53.5811 60.9447 53.5811C60.7127 53.5811 60.5047 53.5371 60.3207 53.4491C60.1367 53.3611 59.9927 53.2291 59.8887 53.0531C59.7847 52.8691 59.7327 52.6411 59.7327 52.3691V52.2491L59.9727 52.2851C59.8767 52.5971 59.7127 52.8531 59.4807 53.0531C59.2487 53.2451 58.9887 53.3891 58.7007 53.4851C58.4127 53.5731 58.1287 53.6171 57.8487 53.6171C57.4967 53.6171 57.1687 53.5571 56.8647 53.4371C56.5607 53.3171 56.3167 53.1371 56.1327 52.8971C55.9567 52.6491 55.8687 52.3451 55.8687 51.9851C55.8687 51.5371 56.0167 51.1691 56.3127 50.8811C56.6167 50.5851 57.0367 50.3851 57.5727 50.2811L59.9487 49.8131V50.6051L58.0167 51.0011C57.6247 51.0811 57.3327 51.1931 57.1407 51.3371C56.9487 51.4811 56.8527 51.6811 56.8527 51.9371C56.8527 52.1851 56.9487 52.3891 57.1407 52.5491C57.3407 52.7011 57.6207 52.7771 57.9807 52.7771C58.2127 52.7771 58.4327 52.7491 58.6407 52.6931C58.8567 52.6291 59.0487 52.5371 59.2167 52.4171C59.3847 52.2891 59.5167 52.1331 59.6127 51.9491C59.7087 51.7571 59.7567 51.5331 59.7567 51.2771V49.6211ZM67.63 47.4971L64.81 54.5051C64.658 54.8971 64.49 55.2051 64.306 55.4291C64.13 55.6611 63.93 55.8251 63.706 55.9211C63.49 56.0251 63.238 56.0771 62.95 56.0771C62.678 56.0771 62.426 56.0371 62.194 55.9571C61.97 55.8851 61.77 55.7851 61.594 55.6571L61.858 54.8171C62.018 54.9611 62.186 55.0651 62.362 55.1291C62.546 55.2011 62.726 55.2371 62.902 55.2371C63.11 55.2371 63.306 55.1731 63.49 55.0451C63.674 54.9171 63.842 54.6571 63.994 54.2651L64.306 53.4851L63.706 52.0571L61.798 47.4971H62.89L64.39 51.4091L64.762 52.4771L65.194 51.2891L66.598 47.4971H67.63Z" fill="#EBEBEB"/>
</svg>
