<svg width="22" height="22" viewBox="0 0 22 22" fill="none" xmlns="http://www.w3.org/2000/svg">
<g clip-path="url(#clip0_6022_3717)">
<path d="M19 11.3769V10.1111C19 7.98941 18.1571 5.95458 16.6568 4.45429C15.1565 2.954 13.1217 2.11115 11 2.11115C8.87826 2.11115 6.84342 2.954 5.34313 4.45429C3.84284 5.95458 2.99999 7.98941 2.99999 10.1111V11.3769C2.06769 11.7874 1.3047 12.5058 0.838763 13.4116C0.372826 14.3175 0.23222 15.356 0.440484 16.3531C0.648748 17.3503 1.19324 18.2457 1.98281 18.8893C2.77237 19.533 3.75909 19.8859 4.77777 19.8889C5.24926 19.8889 5.70145 19.7016 6.03484 19.3682C6.36824 19.0348 6.55554 18.5826 6.55554 18.1111V12.7778C6.55554 12.3063 6.36824 11.8541 6.03484 11.5207C5.70145 11.1873 5.24926 11 4.77777 11V10.1111C4.77777 8.46091 5.43332 6.87826 6.60021 5.71137C7.76711 4.54448 9.34975 3.88892 11 3.88892C12.6502 3.88892 14.2329 4.54448 15.3998 5.71137C16.5667 6.87826 17.2222 8.46091 17.2222 10.1111V11C16.7507 11 16.2985 11.1873 15.9651 11.5207C15.6317 11.8541 15.4444 12.3063 15.4444 12.7778V18.1111H12.7778C12.542 18.1111 12.3159 18.2048 12.1492 18.3715C11.9825 18.5382 11.8889 18.7643 11.8889 19C11.8889 19.2358 11.9825 19.4619 12.1492 19.6286C12.3159 19.7953 12.542 19.8889 12.7778 19.8889H17.2222C18.2409 19.8859 19.2276 19.533 20.0172 18.8893C20.8067 18.2457 21.3512 17.3503 21.5595 16.3531C21.7678 15.356 21.6271 14.3175 21.1612 13.4116C20.6953 12.5058 19.9323 11.7874 19 11.3769V11.3769ZM4.77777 18.1111C4.07052 18.1111 3.39224 17.8302 2.89215 17.3301C2.39205 16.83 2.1111 16.1517 2.1111 15.4445C2.1111 14.7372 2.39205 14.059 2.89215 13.5589C3.39224 13.0588 4.07052 12.7778 4.77777 12.7778V18.1111ZM17.2222 18.1111V12.7778C17.9295 12.7778 18.6077 13.0588 19.1078 13.5589C19.6079 14.059 19.8889 14.7372 19.8889 15.4445C19.8889 16.1517 19.6079 16.83 19.1078 17.3301C18.6077 17.8302 17.9295 18.1111 17.2222 18.1111Z" fill="#00C83C"/>
</g>
<defs>
<clipPath id="clip0_6022_3717">
<rect width="21.3333" height="21.3333" fill="white" transform="translate(0.333328 0.333344)"/>
</clipPath>
</defs>
</svg>
