<svg width="61" height="61" viewBox="0 0 61 61" fill="none" xmlns="http://www.w3.org/2000/svg">
<g clip-path="url(#clip0_7012_64625)">
<path d="M21.0333 58.8838C20.4876 58.6461 20.0519 58.2118 19.8117 57.6672C19.5716 57.1226 19.5447 56.5076 19.7373 55.9444C19.929 55.3808 20.3265 54.9103 20.8499 54.6267C21.3733 54.3432 21.9841 54.2674 22.5609 54.4147C28.1966 56.3438 34.3331 56.2199 39.8863 54.0648C45.4395 51.9097 50.0524 47.8621 52.9114 42.6363C55.7695 37.41 56.6895 31.3417 55.5076 25.5034C54.3257 19.665 51.1177 14.432 46.452 10.7287C41.7858 7.02511 35.961 5.08972 30.0062 5.26448C24.0514 5.43925 18.3502 7.71296 13.9093 11.6839C9.4681 15.6535 6.57247 21.0651 5.73466 26.9626C4.89685 32.8601 6.17055 38.8639 9.33045 43.9134C9.61004 44.4445 9.67859 45.062 9.52071 45.6411C9.36284 46.2202 8.99023 46.7178 8.47976 47.0335C7.96933 47.3492 7.35855 47.4592 6.7701 47.3412C6.18166 47.2233 5.65934 46.8862 5.31001 46.3982C1.78572 40.7602 0.235164 34.1112 0.900759 27.4957C1.56635 20.8803 4.41036 14.6734 8.98714 9.85056C13.5634 5.02734 19.613 1.86111 26.1843 0.849377C32.7556 -0.162357 39.4773 1.03776 45.2924 4.2611C51.1079 7.48425 55.6869 12.5479 58.312 18.6566C60.9371 24.7654 61.4596 31.5731 59.7955 38.0104C58.1316 44.4479 54.3761 50.1504 49.1198 54.2223C43.8636 58.2943 37.4039 60.505 30.7549 60.5075C27.4471 60.5058 24.162 59.9572 21.0333 58.8838ZM28.0222 45.5949V26.0345C28.022 25.7232 28.0838 25.4149 28.2028 25.1272C28.3218 24.8395 28.4956 24.5781 28.7157 24.3579C28.9358 24.1377 29.1974 23.963 29.485 23.8439C29.7726 23.7247 30.0809 23.6633 30.3923 23.6633C31.021 23.6637 31.6242 23.9136 32.0688 24.3582C32.5134 24.8028 32.7633 25.4058 32.7637 26.0345V45.5949C32.763 46.2232 32.5121 46.8255 32.0674 47.2695C31.6228 47.7134 31.0206 47.9627 30.3923 47.9625C30.0813 47.9627 29.7738 47.9016 29.4864 47.7828C29.1991 47.6639 28.937 47.4896 28.7171 47.2698C28.4971 47.05 28.3232 46.7889 28.2042 46.5017C28.0851 46.2144 28.0236 45.9065 28.0236 45.5956L28.0222 45.5949ZM28.0222 16.0747C28.0222 15.446 28.2713 14.8431 28.7157 14.3985C29.1601 13.9538 29.7636 13.7039 30.3923 13.7035C31.021 13.7039 31.6242 13.9538 32.0688 14.3984C32.5134 14.843 32.7633 15.4459 32.7637 16.0747C32.7633 16.7034 32.5134 17.3064 32.0688 17.751C31.6242 18.1956 31.021 18.4455 30.3923 18.4459C29.764 18.4449 29.1611 18.1948 28.7171 17.7504C28.2731 17.306 28.0239 16.7036 28.0236 16.0754L28.0222 16.0747Z" fill="#3F3F3F"/>
<path d="M17.7036 53.0056C17.7036 54.0025 17.408 54.977 16.8542 55.8058C16.3003 56.6347 15.5131 57.2807 14.5922 57.6622C13.6712 58.0437 12.6577 58.1435 11.68 57.949C10.7023 57.7546 9.80421 57.2745 9.09931 56.5696C8.39442 55.8647 7.91438 54.9666 7.7199 53.9889C7.52542 53.0112 7.62523 51.9978 8.00672 51.0768C8.3882 50.1558 9.03423 49.3686 9.8631 48.8148C10.692 48.2609 11.6665 47.9653 12.6633 47.9653C14.0001 47.9653 15.2821 48.4964 16.2273 49.4416C17.1726 50.3868 17.7036 51.6688 17.7036 53.0056Z" fill="#00C83C"/>
</g>
<defs>
<clipPath id="clip0_7012_64625">
<rect width="60" height="60" fill="white" transform="translate(0.75 0.5)"/>
</clipPath>
</defs>
</svg>
