<svg width="40" height="40" viewBox="0 0 40 40" fill="none" xmlns="http://www.w3.org/2000/svg">
<g clip-path="url(#clip0_3951_4785)">
<path d="M16.6523 39.977H16.5291L16.1192 39.937L11.6018 39.8744C9.53484 39.9089 7.50008 39.3611 5.72971 38.2937C2.26108 36.138 0.392331 33.0369 0.145278 29.053C0.104809 28.2323 0.0827797 27.39 0.0827797 26.5694C0.0827797 26.1167 0.0827944 25.6442 0.0625596 25.1938C0.0423248 24.7435 0.0221782 24.351 6.10352e-05 23.9406V16.4053C0.0223608 16.2554 0.0364255 16.1045 0.0423395 15.9531C0.0570842 14.5009 0.0705447 13.057 0.0827797 11.6214C0.0590809 9.71712 0.51851 7.83794 1.41823 6.15944C3.53583 2.40094 6.73577 0.367526 10.9465 0.122355C12.0759 0.0602385 13.2454 0.0400956 14.3536 0.0400956H16.0355L16.4482 0H23.5317L23.9444 0.0400956L28.3156 0.102135C30.2439 0.0637275 32.1478 0.531042 33.8394 1.45746C37.5762 3.55106 39.5894 6.75472 39.8567 10.9631C39.9164 11.8035 39.9164 12.6665 39.9164 13.5089C39.9164 13.9795 39.9164 14.4543 39.9366 14.9046C39.9569 15.355 39.9798 15.7272 40.0001 16.1173V23.488C39.9778 23.6312 39.9643 23.7756 39.9596 23.9204C39.9375 25.5834 39.9164 26.9792 39.8971 28.3951C39.9262 30.2936 39.4663 32.1676 38.5617 33.8369C36.4681 37.5733 33.2643 39.5865 29.0564 39.8542C28.2155 39.9144 27.3505 39.9144 26.5105 39.9144H25.1144L23.8819 39.977H16.6523ZM20.0207 2.79061L17.2671 2.83289C15.2342 2.85312 13.1205 2.89314 11.0476 2.97408C9.34401 3.0544 7.70364 3.64581 6.34091 4.67131C4.97817 5.6968 3.95605 7.10886 3.40715 8.72361C3.06445 9.79116 2.90533 10.9092 2.93657 12.0299C2.93657 16.6491 2.91446 22.3991 2.93657 27.9232C2.93259 28.7286 3.00787 29.5324 3.16175 30.3231C3.54884 32.1398 4.526 33.7776 5.9411 34.9809C7.3562 36.1843 9.12973 36.8856 10.9851 36.9757C12.6881 37.0378 14.3941 37.0783 16.0769 37.0783H20.1007C23.0795 37.0783 25.9955 37.0783 28.9295 36.956C32.3201 36.8331 34.8865 35.0265 36.365 31.7193C36.8595 30.517 37.0846 29.2209 37.024 27.9223V12.0087C37.0267 11.2021 36.9505 10.3973 36.797 9.60548C36.4035 7.79953 35.4299 6.17182 34.025 4.9707C32.6202 3.76959 30.8611 3.061 29.0159 2.95294C26.9205 2.87059 24.8049 2.85031 22.7734 2.80796L20.0437 2.76797H20.0235L20.0207 2.79061ZM19.9987 30.0182H19.7312C17.0682 29.9881 14.5263 28.9015 12.6643 26.9974C10.8023 25.0933 9.77273 22.5276 9.80223 19.8645C9.83251 17.2012 10.9196 14.6589 12.8242 12.7968C14.7288 10.9348 17.2948 9.90545 19.9582 9.93532H20.2661C22.9291 9.97115 25.4689 11.0634 27.3266 12.9717C29.1844 14.88 30.2078 17.4481 30.1722 20.1111C30.1369 22.7501 29.0643 25.2691 27.186 27.1232C25.3078 28.9774 22.7749 30.0175 20.1356 30.0186L19.9987 30.0182ZM19.9987 12.7918L19.1357 12.8317C17.2974 13.0274 15.605 13.9239 14.4106 15.3349C13.2162 16.7458 12.6117 18.5628 12.7222 20.4081C12.8328 22.2542 13.6509 23.9865 15.0062 25.2449C16.3614 26.5033 18.1495 27.1909 19.9987 27.1646H20.2661C22.1718 27.1284 23.985 26.3369 25.3074 24.9643C26.6298 23.5916 27.3533 21.75 27.3184 19.8443C27.2836 17.9621 26.5109 16.1686 25.1677 14.8495C23.8245 13.5304 22.0173 12.791 20.1347 12.7904L19.9987 12.7918Z" fill="#EBEBEB"/>
<path d="M23.6259 19.5775C23.6259 20.2853 23.416 20.9772 23.0228 21.5657C22.6296 22.1542 22.0707 22.6129 21.4168 22.8838C20.7629 23.1547 20.0433 23.2256 19.3491 23.0875C18.6549 22.9495 18.0173 22.6087 17.5167 22.1082C17.0162 21.6078 16.6753 20.9702 16.5372 20.276C16.3991 19.5818 16.4699 18.8623 16.7407 18.2083C17.0115 17.5544 17.4701 16.9954 18.0585 16.6021C18.647 16.2088 19.3389 15.9989 20.0467 15.9988C20.9958 15.9988 21.9061 16.3758 22.5772 17.047C23.2484 17.7181 23.6254 18.6284 23.6254 19.5775" fill="#00C83C"/>
</g>
<defs>
<clipPath id="clip0_3951_4785">
<rect width="40" height="40" fill="white"/>
</clipPath>
</defs>
</svg>
