<svg width="28" height="34" viewBox="0 0 28 34" fill="none" xmlns="http://www.w3.org/2000/svg">
<path d="M1.43083 12.4817C-1.43547 17.4611 0.38254 25.022 3.55672 29.6054C5.14014 31.8934 6.74556 33.9542 8.93743 33.9542C8.98142 33.9542 9.01807 33.9542 9.06205 33.9542C10.0957 33.9102 10.8361 33.5948 11.5618 33.2868C12.3682 32.9421 13.2112 32.5828 14.5234 32.5828C15.7696 32.5828 16.5687 32.9275 17.3384 33.2648C18.1008 33.5948 18.8778 33.9322 20.0361 33.9102C22.5065 33.8662 24.0313 31.6441 25.3655 29.6861C26.7656 27.64 27.462 25.66 27.7039 24.8973L27.7113 24.868C27.7553 24.736 27.6893 24.5893 27.5647 24.5233C27.5647 24.5233 27.55 24.5159 27.5427 24.5159C27.1102 24.3399 23.2836 22.6386 23.2469 18.0185C23.2102 14.2637 26.1132 12.2763 26.6923 11.917L26.7216 11.9023C26.7876 11.8583 26.8316 11.7997 26.8463 11.7263C26.8609 11.653 26.8463 11.5723 26.8023 11.5137C24.801 8.58026 21.7295 8.14025 20.4906 8.08158C20.3146 8.06691 20.124 8.05225 19.9408 8.05225C18.4893 8.05225 17.0965 8.60226 15.9749 9.04227C15.2052 9.35027 14.5381 9.60695 14.0762 9.60695C13.5558 9.60695 12.8887 9.34294 12.1116 9.03494C11.0707 8.62426 9.89775 8.15492 8.65154 8.15492C8.62221 8.15492 8.59289 8.15492 8.56357 8.15492C5.67528 8.19892 2.94094 9.85629 1.43083 12.4817Z" fill="#EBEBEB"/>
<path d="M20.4978 0.000346255C18.7458 0.0736812 16.6419 1.1517 15.381 2.62573C14.3107 3.86509 13.2698 5.92581 13.541 8.00852C13.5557 8.14052 13.6656 8.23586 13.7976 8.25053C13.9149 8.25786 14.0395 8.26519 14.1568 8.26519C15.8722 8.26519 17.7195 7.31918 18.9877 5.78648C20.3146 4.17311 20.989 2.10506 20.7837 0.249687C20.7691 0.103017 20.6371 -0.00698724 20.4978 0.000346255Z" fill="#EBEBEB"/>
</svg>
