<svg width="61" height="61" viewBox="0 0 61 61" fill="none" xmlns="http://www.w3.org/2000/svg">
<g clip-path="url(#clip0_8226_66010)">
<path d="M9.73622 52.7907C9.73244 53.7033 9.45836 54.5943 8.94859 55.3512C8.43882 56.1082 7.71621 56.6971 6.87199 57.0437C6.02777 57.3903 5.09979 57.479 4.20521 57.2986C3.31062 57.1182 2.48954 56.6768 1.84563 56.0301C1.20171 55.3834 0.76383 54.5604 0.587263 53.6651C0.410697 52.7697 0.503362 51.8421 0.853561 50.9994C1.20376 50.1567 1.79579 49.4366 2.55491 48.9301C3.31403 48.4236 4.20621 48.1533 5.1188 48.1534C5.72653 48.1547 6.32807 48.2756 6.88907 48.5093C7.45007 48.743 7.95953 49.0849 8.38838 49.5155C8.81722 49.9461 9.15704 50.457 9.38842 51.019C9.61981 51.5809 9.73823 52.183 9.73693 52.7907" fill="#00C83C"/>
<path d="M59.7231 45.5638L53.5462 33.9107V12.0487C53.5503 9.98459 52.7344 8.00339 51.2779 6.54088C49.8213 5.07836 47.8435 4.25432 45.7794 4.25L19.8419 4.25C17.7779 4.25432 15.8 5.07836 14.3435 6.54088C12.8869 8.00339 12.071 9.98459 12.0751 12.0487V33.937C12.0846 34.0589 12.1047 34.1798 12.1354 34.2983L7.15731 43.9979C7.02682 44.2519 6.94763 44.5292 6.92428 44.8138C6.90092 45.0984 6.93385 45.3848 7.02119 45.6567C7.10853 45.9286 7.24857 46.1806 7.4333 46.3984C7.61804 46.6161 7.84386 46.7954 8.09787 46.9259C8.35188 47.0564 8.62911 47.1356 8.91372 47.1589C9.19833 47.1823 9.48476 47.1493 9.75664 47.062C10.0285 46.9747 10.2806 46.8346 10.4983 46.6499C10.7161 46.4652 10.8953 46.2393 11.0258 45.9853L16.0932 36.1086H49.7974L55.9148 47.6114C56.0958 47.9541 56.1855 48.3377 56.1753 48.7252C56.165 49.1127 56.0552 49.4911 55.8564 49.8238C55.6576 50.1566 55.3765 50.4326 55.0402 50.6252C54.7038 50.8178 54.3235 50.9206 53.9359 50.9237L14.324 50.8635C13.749 50.8635 13.1975 51.0919 12.7909 51.4985C12.3843 51.9051 12.1559 52.4565 12.1559 53.0315C12.1559 53.6066 12.3843 54.158 12.7909 54.5646C13.1975 54.9712 13.749 55.1996 14.324 55.1996L53.9359 55.2634C55.0723 55.2582 56.188 54.9595 57.175 54.3961C58.1619 53.8327 58.9865 53.0238 59.5688 52.0479C60.151 51.072 60.4712 49.9622 60.4982 48.8261C60.5253 47.69 60.2582 46.5662 59.7231 45.5638ZM19.8419 8.55638H45.7794C46.7038 8.55844 47.5895 8.92759 48.2418 9.58264C48.894 10.2377 49.2594 11.125 49.2575 12.0494V31.7405H16.3631V12.0437C16.3612 11.1193 16.7266 10.232 17.3788 9.57697C18.0311 8.92193 18.9168 8.55278 19.8412 8.55071L19.8419 8.55638Z" fill="#3F3F3F"/>
</g>
<defs>
<clipPath id="clip0_8226_66010">
<rect width="60" height="60" fill="white" transform="translate(0.5 0.5)"/>
</clipPath>
</defs>
</svg>
