<svg width="40" height="40" viewBox="0 0 40 40" fill="none" xmlns="http://www.w3.org/2000/svg">
<g clip-path="url(#clip0_9_11979)">
<path d="M31.9997 30.9997C31.9997 31.2649 31.8944 31.5193 31.7068 31.7068C31.5193 31.8944 31.2649 31.9997 30.9997 31.9997H8.99972C8.7345 31.9997 8.48015 31.8944 8.29261 31.7068C8.10508 31.5193 7.99972 31.2649 7.99972 30.9997C7.99972 30.7345 8.10508 30.4802 8.29261 30.2926C8.48015 30.1051 8.7345 29.9997 8.99972 29.9997H30.9997C31.2649 29.9997 31.5193 30.1051 31.7068 30.2926C31.8944 30.4802 31.9997 30.7345 31.9997 30.9997ZM8.29072 16.5517C8.07524 16.152 7.97541 15.7002 8.00244 15.247C8.02947 14.7937 8.18228 14.357 8.44372 13.9857C8.87098 13.3588 9.44316 12.8443 10.1117 12.4857L17.6127 8.58172C18.35 8.19835 19.1687 7.9982 19.9997 7.9982C20.8307 7.9982 21.6495 8.19835 22.3867 8.58172L29.8867 12.4887C30.5553 12.8473 31.1275 13.3618 31.5547 13.9887C31.8162 14.36 31.969 14.7967 31.996 15.25C32.023 15.7032 31.9232 16.155 31.7077 16.5547C31.4757 16.9935 31.1278 17.3603 30.7018 17.6151C30.2758 17.8699 29.7881 18.0029 29.2917 17.9997H28.9997V25.9997H29.9997C30.2649 25.9997 30.5193 26.1051 30.7068 26.2926C30.8944 26.4802 30.9997 26.7345 30.9997 26.9997C30.9997 27.2649 30.8944 27.5193 30.7068 27.7068C30.5193 27.8944 30.2649 27.9997 29.9997 27.9997H9.99972C9.7345 27.9997 9.48015 27.8944 9.29261 27.7068C9.10508 27.5193 8.99972 27.2649 8.99972 26.9997C8.99972 26.7345 9.10508 26.4802 9.29261 26.2926C9.48015 26.1051 9.7345 25.9997 9.99972 25.9997H10.9997V17.9997H10.7077C10.2109 18.0028 9.72273 17.8694 9.29651 17.6141C8.87029 17.3587 8.52238 16.9913 8.29072 16.5517ZM12.9997 25.9997H15.9997V17.9997H12.9997V25.9997ZM17.9997 17.9997V25.9997H21.9997V17.9997H17.9997ZM26.9997 17.9997H23.9997V25.9997H26.9997V17.9997ZM10.0627 15.6247C10.1255 15.7404 10.2188 15.8366 10.3326 15.9027C10.4464 15.9689 10.5761 16.0024 10.7077 15.9997H29.2917C29.4233 16.0024 29.5531 15.9689 29.6668 15.9027C29.7806 15.8366 29.874 15.7404 29.9367 15.6247C29.9824 15.5483 30.0045 15.46 30.0003 15.3711C29.996 15.2821 29.9655 15.1964 29.9127 15.1247C29.6704 14.7646 29.3449 14.4683 28.9637 14.2607L21.4637 10.3537C21.0117 10.1191 20.51 9.99669 20.0007 9.99669C19.4915 9.99669 18.9897 10.1191 18.5377 10.3537L11.0377 14.2607C10.6567 14.4689 10.3312 14.7656 10.0887 15.1257C10.0358 15.1971 10.0051 15.2825 10.0005 15.3713C9.99587 15.4601 10.0175 15.5482 10.0627 15.6247Z" fill="black"/>
</g>
<defs>
<clipPath id="clip0_9_11979">
<rect width="24" height="24" fill="white" transform="translate(8 8)"/>
</clipPath>
</defs>
</svg>
