<svg width="40" height="40" viewBox="0 0 40 40" fill="none" xmlns="http://www.w3.org/2000/svg">
<g clip-path="url(#clip0_3951_4765)">
<path d="M16.6495 40V39.9793H16.5282L16.1268 39.9385L11.5869 39.8584C9.5163 39.8897 7.47825 39.3422 5.70205 38.2777C2.26194 36.1371 0.381377 33.0365 0.141501 29.0546C0.0798863 28.2343 0.0799524 27.3939 0.0799524 26.5736C0.0799524 26.1122 0.079923 25.6526 0.0615796 25.1917C0.0432361 24.7308 0.0202554 24.3512 3.05176e-05 23.9326V16.4071C0.0217931 16.2549 0.0352667 16.1016 0.0404508 15.948C0.0533069 14.5056 0.0731961 13.0581 0.100163 11.6053C0.064553 9.70785 0.51946 7.83331 1.42117 6.1634C3.5222 2.42134 6.72339 0.381017 10.9447 0.120916C12.0665 0.0616529 13.228 0.0408796 14.3676 0.0408796H16.0487L16.4483 0H23.5338L23.9316 0.0408796L28.2942 0.100132C30.2221 0.0647793 32.1258 0.5342 33.8162 1.46179C37.5376 3.56141 39.5603 6.76449 39.8416 10.9656C39.9004 11.8061 39.9004 12.6655 39.9004 13.5055C39.9004 13.967 39.9003 14.4461 39.9215 14.9057C39.9426 15.3652 39.9601 15.726 39.9803 16.1286V23.4919C39.9573 23.6377 39.9444 23.785 39.9417 23.9326C39.9215 25.5915 39.9004 26.994 39.8801 28.4126C39.9053 30.312 39.4427 32.1861 38.538 33.8563C36.4389 37.5782 33.2358 39.5979 29.0347 39.8768C28.1941 39.9361 27.3333 39.936 26.4928 39.936H25.0937L23.871 39.9977L16.6495 40ZM17.2889 2.82115C15.2466 2.86207 13.1261 2.88044 11.066 2.96228C9.36503 3.0409 7.72734 3.63097 6.36714 4.65534C5.00694 5.6797 3.98755 7.09059 3.44218 8.70368C3.09608 9.76893 2.93407 10.8854 2.96265 12.0051C2.96265 16.629 2.94243 22.3907 2.96265 27.8942C2.95685 28.6991 3.03033 29.5026 3.18221 30.2931C3.56102 32.1164 4.53509 33.7622 5.951 34.9718C7.36691 36.1814 9.14434 36.8863 11.0045 36.9757C12.7066 37.035 14.4279 37.0763 16.1093 37.0763H20.1119C23.091 37.0763 26.0151 37.0764 28.9345 36.9555C32.3158 36.8365 34.8793 35.0158 36.3783 31.7144C36.8655 30.5077 37.0901 29.2111 37.0369 27.9108V12.0032C37.043 11.1984 36.9689 10.3949 36.8174 9.60441C36.4254 7.7982 35.4518 6.17048 34.0458 4.97078C32.6399 3.77107 30.8791 3.0657 29.0337 2.96274C26.952 2.8809 24.831 2.86206 22.7906 2.82161L20.0696 2.78257H20.031L17.2889 2.82115ZM27.3324 31.0358V30.6952C27.3324 28.1934 27.3526 25.6921 27.3324 23.1903C27.3266 22.625 27.2601 22.0618 27.134 21.5107C27.0688 21.0509 26.856 20.6249 26.5277 20.2965C26.1993 19.9681 25.773 19.7553 25.3132 19.6901C24.8265 19.5902 24.3214 19.6313 23.8572 19.8085C23.393 19.9857 22.9897 20.2917 22.6933 20.6905C22.2792 21.2281 22.0665 21.8938 22.0925 22.5719V30.9952H17.1281V16.068H22.0925V18.0486H22.1522L22.6133 17.4499C23.0132 16.9535 23.5106 16.5445 24.0749 16.2483C24.6392 15.952 25.2582 15.7747 25.8938 15.7274C27.3382 15.5281 28.8042 15.8858 29.9946 16.7278C31.0773 17.523 31.8092 18.7071 32.0368 20.031C32.1562 20.5484 32.1975 21.0705 32.2775 21.5917L32.316 21.8518V31.0358H27.3324ZM9.42439 30.9948V16.0491H14.3474V30.9948H9.42439Z" fill="#EBEBEB"/>
<path d="M14.6274 10.325C14.6227 10.9537 14.4004 11.5614 13.9983 12.0449C13.5963 12.5283 13.0393 12.8576 12.4219 12.9767C11.8045 13.0959 11.165 12.9977 10.6119 12.6987C10.0587 12.3997 9.62623 11.9184 9.38782 11.3366C9.14941 10.7548 9.11982 10.1083 9.30407 9.50719C9.48832 8.90604 9.87504 8.38723 10.3985 8.03893C10.922 7.69064 11.5499 7.53436 12.1756 7.59664C12.8013 7.65892 13.3861 7.93593 13.8306 8.38058C14.0856 8.6357 14.2874 8.93898 14.4242 9.27279C14.561 9.60659 14.6301 9.96426 14.6274 10.325Z" fill="#00C83C"/>
</g>
<defs>
<clipPath id="clip0_3951_4765">
<rect width="40" height="40" fill="white"/>
</clipPath>
</defs>
</svg>
