<svg width="25" height="24" viewBox="0 0 25 24" fill="none" xmlns="http://www.w3.org/2000/svg">
<path d="M5.5 3C4.395 3 3.5 3.895 3.5 5V19C3.5 20.105 4.395 21 5.5 21H19.5C20.605 21 21.5 20.105 21.5 19V5C21.5 3.895 20.605 3 19.5 3H5.5ZM5.5 5H19.5V19H5.5V5ZM8.2793 6.31641C7.4223 6.31641 6.9082 6.83158 6.9082 7.51758C6.9082 8.20358 7.42236 8.7168 8.19336 8.7168C9.05036 8.7168 9.56445 8.20358 9.56445 7.51758C9.56445 6.83158 9.0503 6.31641 8.2793 6.31641ZM6.97656 10V17H9.5V10H6.97656ZM11.582 10V17H14.1055V13.1738C14.1055 12.0348 14.9181 11.8711 15.1621 11.8711C15.4061 11.8711 16.0586 12.1158 16.0586 13.1738V17H18.5V13.1738C18.5 10.9768 17.5237 10 16.3027 10C15.0817 10 14.4305 10.4066 14.1055 10.9766V10H11.582Z" fill="#00C83C"/>
</svg>
