<svg width="143" height="22" viewBox="0 0 143 22" fill="none" xmlns="http://www.w3.org/2000/svg">
<path d="M31.6653 15.8864C26.9945 14.7374 26.959 12.6948 26.9945 11.3224C26.9945 9.24784 29.8005 7.33286 33.0683 7.33286C36.336 7.33286 39.4439 8.56161 39.4795 11.9926H35.1107C35.1107 10.9394 34.0806 10.7479 33.3347 10.7479C32.5888 10.7479 31.6652 11.1788 31.7008 11.8011C31.7363 12.4235 32.127 12.6469 33.0683 12.8543L35.7144 13.4927C39.4795 14.4183 39.9412 16.6843 39.9412 17.562C39.9412 20.5303 36.3893 21.9346 33.2104 21.9346C30.0314 21.9346 26.7282 20.227 26.6927 17.1471H31.026C31.1286 17.6201 31.4196 18.0432 31.8447 18.3371C32.2698 18.6309 32.7996 18.7751 33.3347 18.7429C34.3648 18.7429 35.235 18.2961 35.235 17.578C35.235 16.8599 34.8442 16.6524 33.7076 16.3811L31.6653 15.8864Z" fill="#3F3F3F"/>
<path d="M47.1161 21.6314H42.5164V0.00799561H47.1161V11.466L50.8279 7.63602H56.724L50.2596 13.8119L58.0382 21.6314H52.3197L47.1161 16.0779V21.6314Z" fill="#3F3F3F"/>
<path d="M70.0437 20.0515C69.4805 20.6388 68.7826 21.1098 67.9978 21.4321C67.2131 21.7544 66.3601 21.9204 65.4973 21.9187C63.3447 21.9187 61.2803 21.1503 59.7583 19.7826C58.2362 18.4149 57.3811 16.56 57.3811 14.6258C57.3811 12.6916 58.2362 10.8366 59.7583 9.4689C61.2803 8.10121 63.3447 7.33289 65.4973 7.33289C66.3626 7.31683 67.2208 7.47637 68.0079 7.79964C68.7951 8.12291 69.4909 8.60155 70.0437 9.19997V7.60415H74.6435V21.6155H70.0437V20.0515ZM66.2609 17.961C66.7483 17.961 67.231 17.8748 67.6813 17.7072C68.1317 17.5396 68.5408 17.2939 68.8855 16.9842C69.2302 16.6745 69.5036 16.3068 69.6901 15.9022C69.8767 15.4975 69.9727 15.0638 69.9727 14.6258C69.9727 14.1878 69.8767 13.7541 69.6901 13.3495C69.5036 12.9448 69.2302 12.5771 68.8855 12.2674C68.5408 11.9577 68.1317 11.712 67.6813 11.5444C67.231 11.3768 66.7483 11.2905 66.2609 11.2905C65.7735 11.2905 65.2908 11.3768 64.8405 11.5444C64.3902 11.712 63.981 11.9577 63.6363 12.2674C63.2917 12.5771 63.0182 12.9448 62.8317 13.3495C62.6452 13.7541 62.5492 14.1878 62.5492 14.6258C62.5492 15.0638 62.6452 15.4975 62.8317 15.9022C63.0182 16.3068 63.2917 16.6745 63.6363 16.9842C63.981 17.2939 64.3902 17.5396 64.8405 17.7072C65.2908 17.8748 65.7735 17.961 66.2609 17.961Z" fill="#3F3F3F"/>
<path d="M83.5587 21.6473H78.9057V7.63601H83.5587V9.67861C84.0216 8.98073 84.6802 8.40417 85.4686 8.00653C86.2571 7.60889 87.1478 7.40411 88.0519 7.41257C91.6038 7.41257 93.7704 9.35943 93.7704 13.349V21.727H89.1352V14.2586C89.1352 12.3915 87.9987 11.4659 86.4181 11.4659C84.8375 11.4659 83.5587 12.1841 83.5587 14.3065V21.6473Z" fill="#3F3F3F"/>
<path d="M109.008 21.6473V19.9079C108.509 20.5733 107.826 21.1102 107.025 21.4656C106.225 21.821 105.335 21.9827 104.444 21.9346C102.403 21.7859 100.499 20.9524 99.1101 19.5996C97.7217 18.2468 96.9508 16.474 96.9508 14.6338C96.9508 12.7935 97.7217 11.0206 99.1101 9.66786C100.499 8.31508 102.403 7.48151 104.444 7.33286C105.334 7.2782 106.225 7.43522 107.026 7.78821C107.827 8.1412 108.511 8.67772 109.008 9.34361V0.00799561H113.626V21.6473H109.008ZM105.456 11.2585C104.509 11.3172 103.622 11.6967 102.975 12.3202C102.327 12.9437 101.967 13.7649 101.967 14.6178C101.967 15.4707 102.327 16.2919 102.975 16.9154C103.622 17.5389 104.509 17.9183 105.456 17.977C105.941 17.9777 106.421 17.8893 106.867 17.7171C107.312 17.5449 107.714 17.2924 108.046 16.9755C108.379 16.6585 108.636 16.2837 108.801 15.8741C108.967 15.4645 109.037 15.0288 109.008 14.5938C109.03 14.1628 108.954 13.7323 108.785 13.3283C108.616 12.9243 108.358 12.5553 108.026 12.2435C107.694 11.9318 107.295 11.6838 106.853 11.5145C106.412 11.3452 105.936 11.2581 105.456 11.2585Z" fill="#3F3F3F"/>
<path d="M120.268 0.00797864C120.644 -0.0193494 121.023 0.0237017 121.38 0.134405C121.737 0.245109 122.065 0.421083 122.342 0.651216C122.62 0.881349 122.842 1.16064 122.993 1.47153C123.145 1.78242 123.223 2.11821 123.223 2.45762C123.223 2.79703 123.145 3.13272 122.993 3.44361C122.842 3.7545 122.62 4.03379 122.342 4.26393C122.065 4.49406 121.737 4.67003 121.38 4.78074C121.023 4.89144 120.644 4.93449 120.268 4.90716C119.891 4.93449 119.512 4.89144 119.155 4.78074C118.798 4.67003 118.471 4.49406 118.193 4.26393C117.915 4.03379 117.694 3.7545 117.542 3.44361C117.391 3.13272 117.313 2.79703 117.313 2.45762C117.313 2.11821 117.391 1.78242 117.542 1.47153C117.694 1.16064 117.915 0.881349 118.193 0.651216C118.471 0.421083 118.798 0.245109 119.155 0.134405C119.512 0.0237017 119.891 -0.0193494 120.268 0.00797864ZM122.559 21.6473H117.888V7.63605H122.488L122.559 21.6473Z" fill="#3F3F3F"/>
<path d="M138.382 20.0515C137.823 20.6384 137.128 21.1092 136.346 21.4316C135.564 21.7539 134.714 21.9201 133.854 21.9187C131.701 21.9187 129.637 21.1502 128.115 19.7826C126.593 18.4149 125.738 16.5599 125.738 14.6257C125.738 12.6915 126.593 10.8365 128.115 9.46883C129.637 8.10115 131.701 7.33283 133.854 7.33283C134.717 7.31568 135.573 7.47478 136.357 7.79821C137.142 8.12164 137.834 8.60094 138.382 9.19991V7.60409H143V21.6155H138.382V20.0515ZM134.617 17.961C135.105 17.961 135.588 17.8747 136.038 17.7071C136.488 17.5395 136.897 17.2938 137.242 16.9841C137.587 16.6744 137.86 16.3067 138.047 15.9021C138.233 15.4974 138.329 15.0637 138.329 14.6257C138.329 14.1877 138.233 13.7541 138.047 13.3494C137.86 12.9447 137.587 12.5771 137.242 12.2674C136.897 11.9577 136.488 11.712 136.038 11.5444C135.588 11.3767 135.105 11.2904 134.617 11.2904C134.13 11.2904 133.647 11.3767 133.197 11.5444C132.747 11.712 132.338 11.9577 131.993 12.2674C131.648 12.5771 131.375 12.9447 131.188 13.3494C131.002 13.7541 130.906 14.1877 130.906 14.6257C130.906 15.0637 131.002 15.4974 131.188 15.9021C131.375 16.3067 131.648 16.6744 131.993 16.9841C132.338 17.2938 132.747 17.5395 133.197 17.7071C133.647 17.8747 134.13 17.961 134.617 17.961Z" fill="#3F3F3F"/>
<path d="M16.4098 4.77942H1.79374C1.45138 4.77481 1.11572 4.86494 0.832271 5.03753C0.548817 5.21012 0.331238 5.45685 0.209104 5.74428C0.0869697 6.03171 0.0661733 6.34594 0.149486 6.64436C0.232799 6.94278 0.416222 7.21097 0.67488 7.41256L16.0546 21.2323C16.288 21.4392 16.584 21.5797 16.9056 21.6364C17.2273 21.693 17.5604 21.6633 17.8634 21.551C18.1664 21.4387 18.426 21.2488 18.6096 21.0048C18.7933 20.7608 18.893 20.4737 18.8962 20.1791V7.04556C18.9058 6.74832 18.8483 6.45241 18.7272 6.17567C18.6061 5.89893 18.424 5.64707 18.1916 5.43532C17.9593 5.22357 17.6816 5.05626 17.3754 4.94354C17.0692 4.83082 16.7407 4.77498 16.4098 4.77942Z" fill="#00C83C"/>
<path d="M3.55189 15.3917C2.84939 15.3917 2.16266 15.5788 1.57855 15.9295C0.994439 16.2802 0.539155 16.7787 0.27032 17.3619C0.00148375 17.9451 -0.0687814 18.5869 0.0682699 19.206C0.205321 19.8251 0.543619 20.3938 1.04036 20.8401C1.53711 21.2865 2.16991 21.5905 2.85892 21.7136C3.54792 21.8368 4.26215 21.7736 4.91118 21.5321C5.5602 21.2905 6.11495 20.8814 6.50524 20.3565C6.89553 19.8317 7.1038 19.2146 7.1038 18.5833C7.1038 17.7369 6.72964 16.9251 6.06353 16.3265C5.39742 15.728 4.49392 15.3917 3.55189 15.3917Z" fill="#00C83C"/>
</svg>
