<svg width="25" height="25" viewBox="0 0 25 25" fill="none" xmlns="http://www.w3.org/2000/svg">
<path d="M5.14684 15.6084C4.24755 15.6084 3.36849 15.8787 2.62076 16.385C1.87303 16.8914 1.29023 17.6111 0.946082 18.4532C0.601939 19.2952 0.511905 20.2218 0.687347 21.1157C0.86279 22.0096 1.29584 22.8308 1.93174 23.4753C2.56763 24.1197 3.37775 24.5586 4.25976 24.7365C5.14177 24.9143 6.05601 24.823 6.88684 24.4742C7.71768 24.1254 8.42784 23.5348 8.92746 22.7769C9.42708 22.0191 9.69372 21.1282 9.69372 20.2167C9.69372 18.9945 9.21466 17.8223 8.36195 16.9581C7.50924 16.0939 6.35275 15.6084 5.14684 15.6084Z" fill="#3F3F3F"/>
<path d="M21.6936 0.174988H2.89482C2.47194 0.176787 2.05902 0.305246 1.70797 0.544219C1.35692 0.783192 1.08341 1.12197 0.921816 1.51804C0.760226 1.91412 0.717732 2.34976 0.799746 2.77022C0.881761 3.19068 1.0846 3.5772 1.38273 3.88116L21.1789 23.9338C21.4793 24.2323 21.8597 24.4346 22.2728 24.5156C22.6858 24.5967 23.1132 24.5528 23.5019 24.3895C23.8905 24.2261 24.2231 23.9505 24.4584 23.597C24.6936 23.2435 24.8211 22.8277 24.8249 22.4013V3.35949C24.8249 2.51678 24.4954 1.70843 23.9084 1.11153C23.3215 0.514632 22.5251 0.177864 21.6936 0.174988ZM15.3344 9.48941C14.8852 9.5318 14.4377 9.39199 14.09 9.10068C13.7423 8.80937 13.5227 8.39025 13.4792 7.93514H14.7124C14.7409 8.08954 14.8244 8.22797 14.947 8.32414C15.0695 8.4203 15.2226 8.46755 15.3773 8.45688C15.6668 8.45688 15.9242 8.30468 15.9242 8.07644C15.9242 7.8482 15.8063 7.77213 15.4845 7.68518L14.8947 7.533C13.565 7.16347 13.5542 6.44617 13.5649 6.06577C13.5649 5.39191 14.3692 4.7724 15.3022 4.7724C16.2352 4.7724 17.1253 5.17454 17.136 6.27227H15.8813C15.8813 5.93535 15.581 5.88102 15.3773 5.88102C15.1735 5.88102 14.8947 6.01144 14.9054 6.21794C14.9161 6.42445 15.0341 6.48966 15.3022 6.55487L16.0529 6.76137C17.1252 7.05483 17.2647 7.78298 17.2647 8.07644C17.2754 9.03288 16.2888 9.48941 15.3344 9.48941ZM20.4818 9.39156L19.0019 7.59821V9.39156H17.6936V2.41392H19.0126V6.10922L20.085 4.87024H21.7687L19.9135 6.87003L22.144 9.39156H20.4818Z" fill="#3F3F3F"/>
</svg>
