<svg width="61" height="61" viewBox="0 0 61 61" fill="none" xmlns="http://www.w3.org/2000/svg">
<g clip-path="url(#clip0_7012_64640)">
<path d="M58.523 59.2846H58.5533H58.523ZM30.4998 59.2846C29.976 59.2833 29.4735 59.0748 29.1032 58.7044C28.7328 58.334 28.524 57.8321 28.5227 57.3083C28.5227 56.7841 28.7311 56.2813 29.1018 55.9106C29.4724 55.54 29.9756 55.3318 30.4998 55.3318H58.523C59.0472 55.3318 59.5503 55.54 59.921 55.9106C60.2916 56.2813 60.5 56.7841 60.5 57.3083C60.4987 57.8321 60.29 58.334 59.9196 58.7044C59.5492 59.0748 59.0468 59.2833 58.523 59.2846H30.4998ZM0.917266 58.5195C0.732376 58.2815 0.604151 58.0047 0.542263 57.7098C0.480374 57.4149 0.486547 57.1098 0.560186 56.8176L3.66223 44.346C3.75011 43.9995 3.92925 43.6826 4.18062 43.4283L12.4279 35.1843C12.6115 35.0004 12.829 34.8546 13.069 34.755C13.309 34.6555 13.5661 34.6042 13.8259 34.6042C14.0857 34.6042 14.3428 34.6555 14.5828 34.755C14.8228 34.8546 15.0417 35.0004 15.2253 35.1843C15.4096 35.3679 15.5557 35.5862 15.6554 35.8264C15.7552 36.0667 15.8071 36.3242 15.8071 36.5844C15.8071 36.8445 15.7552 37.1022 15.6554 37.3425C15.5557 37.5827 15.4096 37.801 15.2253 37.9846L7.37642 45.8326L5.18844 54.5652L13.9183 52.3769L52.4705 13.8572C53.3378 12.9895 53.8244 11.8129 53.8244 10.5861C53.8244 9.35931 53.3378 8.18287 52.4705 7.31518C51.6027 6.44808 50.4257 5.96097 49.1989 5.96097C47.9722 5.96097 46.7951 6.44808 45.9273 7.31518L28.855 24.3559C28.6714 24.5396 28.4538 24.6853 28.2139 24.7847C27.974 24.8841 27.7167 24.9353 27.457 24.9353C27.1973 24.9353 26.94 24.8841 26.7001 24.7847C26.4602 24.6853 26.2426 24.5396 26.059 24.3559C25.8747 24.1723 25.7286 23.9541 25.6289 23.7138C25.5291 23.4735 25.4772 23.216 25.4772 22.9559C25.4772 22.6957 25.5291 22.438 25.6289 22.1978C25.7286 21.9575 25.8747 21.7393 26.059 21.5556L43.1272 4.5149C43.9243 3.71759 44.8705 3.08501 45.9121 2.6535C46.9537 2.22199 48.0701 2 49.1975 2C50.325 2 51.4413 2.22199 52.4829 2.6535C53.5245 3.08501 54.4721 3.71759 55.2693 4.5149C56.8785 6.12537 57.7812 8.30877 57.7812 10.5854C57.7812 12.8621 56.8785 15.0457 55.2693 16.6561L16.3227 55.5689C16.0711 55.8211 15.7542 56.0003 15.4086 56.0871L2.93429 59.1929L2.47794 59.2846C2.17728 59.2839 1.88059 59.2147 1.61075 59.0821C1.3409 58.9495 1.10429 58.757 0.920023 58.5195H0.917266Z" fill="#3F3F3F"/>
<path d="M25.6348 29.7997C25.6348 30.8106 25.335 31.7988 24.7734 32.6393C24.2118 33.4799 23.4136 34.135 22.4796 34.5219C21.5457 34.9088 20.518 35.01 19.5265 34.8129C18.5351 34.6157 17.6243 34.129 16.9094 33.4142C16.1946 32.6994 15.7077 31.7888 15.5104 30.7973C15.3131 29.8058 15.4142 28.7781 15.801 27.8442C16.1877 26.9102 16.8428 26.1118 17.6832 25.5501C18.5237 24.9884 19.5118 24.6885 20.5227 24.6884C21.194 24.6884 21.8586 24.8206 22.4788 25.0774C23.0989 25.3343 23.6624 25.7108 24.137 26.1854C24.6116 26.6601 24.9881 27.2235 25.245 27.8437C25.5019 28.4638 25.6341 29.1285 25.6341 29.7997" fill="#00C83C"/>
</g>
<defs>
<clipPath id="clip0_7012_64640">
<rect width="60" height="60" fill="white" transform="translate(0.5 0.5)"/>
</clipPath>
</defs>
</svg>
