<svg width="40" height="40" viewBox="0 0 40 40" fill="none" xmlns="http://www.w3.org/2000/svg">
<path fill-rule="evenodd" clip-rule="evenodd" d="M17.9747 9.60001C22.8549 9.60001 26.8111 13.5562 26.8111 18.4364C26.8111 20.5243 26.0869 22.4432 24.876 23.9554L30.4508 29.5239C30.8342 29.9074 30.8342 30.529 30.4508 30.9124C30.0913 31.2719 29.5225 31.2944 29.1369 30.9798L29.0623 30.9124L23.4894 25.3411C21.9779 26.5499 20.0607 27.2727 17.9747 27.2727C13.0945 27.2727 9.13837 23.3166 9.13837 18.4364C9.13837 13.5562 13.0945 9.60001 17.9747 9.60001ZM17.9747 11.5636C14.179 11.5636 11.102 14.6407 11.102 18.4364C11.102 22.2321 14.179 25.3091 17.9747 25.3091C21.7704 25.3091 24.8475 22.2321 24.8475 18.4364C24.8475 14.6407 21.7704 11.5636 17.9747 11.5636Z" fill="black"/>
</svg>
