<svg width="57" height="56" viewBox="0 0 57 56" fill="none" xmlns="http://www.w3.org/2000/svg">
<g clip-path="url(#clip0_2590_311)">
<path d="M50.9 2.1001H14.5488C13.0767 2.14175 11.6764 2.74512 10.6351 3.78643C9.59377 4.82774 8.9904 6.22805 8.94875 7.7001C8.94575 7.75606 8.94575 7.81214 8.94875 7.8681V33.5846C8.94875 33.7868 8.98857 33.9869 9.06593 34.1737C9.14329 34.3605 9.25667 34.5302 9.39962 34.6731C9.54256 34.816 9.71225 34.9294 9.89901 35.0068C10.0858 35.0841 10.2859 35.124 10.4881 35.124C10.6902 35.124 10.8904 35.0841 11.0772 35.0068C11.2639 34.9294 11.4336 34.816 11.5766 34.6731C11.7195 34.5302 11.8329 34.3605 11.9103 34.1737C11.9876 33.9869 12.0274 33.7868 12.0274 33.5846V7.86546C12.0274 7.15291 12.3105 6.46954 12.8143 5.96569C13.3182 5.46184 14.0016 5.17878 14.7141 5.17878H45.6696C45.2549 5.95645 45.025 6.8192 44.9976 7.7001C44.9946 7.75606 44.9946 7.81214 44.9976 7.8681V47.605C44.9976 48.3176 44.7145 49.001 44.2107 49.5048C43.7068 50.0087 43.0235 50.2917 42.3109 50.2917C41.5984 50.2917 40.915 50.0087 40.4111 49.5048C39.9073 49.001 39.6242 48.3176 39.6242 47.605C39.6242 47.1969 39.4621 46.8054 39.1735 46.5168C38.8848 46.2282 38.4934 46.066 38.0852 46.066H2.03901C1.63084 46.066 1.23939 46.2282 0.950767 46.5168C0.662146 46.8054 0.5 47.1969 0.5 47.605C0.499383 49.1059 1.08405 50.5478 2.12976 51.6244C3.17546 52.701 4.59977 53.3274 6.1 53.3704H42.4539C43.9259 53.3288 45.3262 52.7254 46.3676 51.6841C47.4089 50.6428 48.0122 49.2425 48.0539 47.7704C48.0569 47.7144 48.0569 47.6584 48.0539 47.6024V9.40447H54.961C55.3692 9.40447 55.7606 9.24233 56.0492 8.95371C56.3379 8.66509 56.5 8.27363 56.5 7.86546C56.5006 6.36462 55.916 4.92269 54.8702 3.8461C53.8245 2.76952 52.4002 2.14315 50.9 2.1001V2.1001ZM4.05435 49.1447H36.7696C36.8773 49.5422 37.0275 49.927 37.2176 50.2924H6.26537C5.83155 50.2938 5.40384 50.1902 5.01881 49.9903C4.63377 49.7904 4.30286 49.5003 4.05435 49.1447ZM48.552 6.32579C48.7999 5.97358 49.1289 5.68615 49.5113 5.48774C49.8936 5.28933 50.3181 5.18576 50.7488 5.18576C51.1796 5.18576 51.604 5.28933 51.9863 5.48774C52.3687 5.68615 52.6977 5.97358 52.9457 6.32579H48.552Z" fill="#3F3F3F"/>
<path d="M14.1574 40.6089C14.1574 41.3229 13.9457 42.021 13.549 42.6147C13.1523 43.2084 12.5884 43.6712 11.9287 43.9444C11.269 44.2177 10.5431 44.2892 9.84273 44.1499C9.14239 44.0106 8.49909 43.6667 7.99417 43.1618C7.48925 42.6569 7.1454 42.0136 7.0061 41.3132C6.86679 40.6129 6.93829 39.887 7.21155 39.2273C7.4848 38.5676 7.94755 38.0037 8.54127 37.607C9.13499 37.2103 9.83301 36.9985 10.5471 36.9985C11.0212 36.9985 11.4907 37.0919 11.9287 37.2734C12.3667 37.4548 12.7647 37.7207 13.1 38.056C13.4352 38.3912 13.7012 38.7892 13.8826 39.2273C14.064 39.6653 14.1574 40.1348 14.1574 40.6089Z" fill="#00C83C"/>
</g>
<defs>
<clipPath id="clip0_2590_311">
<rect width="56" height="56" fill="white" transform="translate(0.5)"/>
</clipPath>
</defs>
</svg>
