<svg width="57" height="56" viewBox="0 0 57 56" fill="none" xmlns="http://www.w3.org/2000/svg">
<path d="M15.1443 51.1311C15.1437 52.0946 14.8574 53.0362 14.3216 53.837C13.7859 54.6378 13.0247 55.2618 12.1344 55.63C11.244 55.9983 10.2645 56.0943 9.31963 55.9059C8.37474 55.7176 7.50691 55.2533 6.82586 54.5718C6.1448 53.8902 5.6811 53.0221 5.49337 52.0771C5.30565 51.1321 5.40232 50.1526 5.77118 49.2625C6.14004 48.3724 6.76452 47.6117 7.56567 47.0765C8.36683 46.5413 9.30868 46.2556 10.2722 46.2556C10.9123 46.2556 11.5461 46.3817 12.1374 46.6268C12.7288 46.8719 13.266 47.231 13.7185 47.6838C14.1709 48.1366 14.5297 48.6741 14.7744 49.2656C15.0191 49.8571 15.1448 50.491 15.1443 51.1311" fill="#00C83C"/>
<path d="M17.8446 52.4191C17.6163 52.0536 17.4946 51.6313 17.4946 51.2003C17.4946 50.7693 17.6163 50.347 17.8446 49.9814C18.0742 49.6154 18.4028 49.3214 18.7917 49.1333C19.1807 48.9451 19.6143 48.8703 20.0438 48.9174H42.5552C43.7757 48.9106 44.9436 48.4212 45.8044 47.556C46.6652 46.6907 47.1486 45.52 47.1491 44.2995V9.18299C47.1415 7.96702 46.6554 6.80316 45.7954 5.94345C44.9354 5.08373 43.7712 4.59747 42.5552 4.59021H17.133C15.9121 4.59018 14.7411 5.07303 13.8748 5.93348C13.0086 6.79392 12.5177 7.96206 12.5095 9.18299V41.4112C12.5585 41.8405 12.4848 42.2748 12.2972 42.664C12.1096 43.0532 11.8155 43.3813 11.4492 43.6104C11.0833 43.8394 10.6609 43.9609 10.2293 43.9609C9.79764 43.9609 9.37402 43.8394 9.00811 43.6104C8.64268 43.3803 8.34908 43.0521 8.16139 42.6632C7.9737 42.2743 7.89926 41.8404 7.94649 41.4112V9.18299C7.94702 6.7471 8.91575 4.41124 10.6385 2.68911C12.3612 0.966982 14.6971 -0.000349419 17.133 9.46811e-08H42.5861C45.0215 0.000174809 47.3572 0.967805 49.0793 2.68991C50.8014 4.41202 51.7686 6.74756 51.7688 9.18299V44.2995C51.768 45.5079 51.5297 46.7043 51.0662 47.8202C50.6027 48.9362 49.9233 49.9498 49.0678 50.8031C48.2114 51.6563 47.1952 52.3322 46.0772 52.7921C44.9592 53.2521 43.7615 53.4869 42.5526 53.4832H20.0412C19.9574 53.4925 19.8733 53.4971 19.789 53.4971C19.4003 53.4962 19.0185 53.3968 18.6785 53.2083C18.3385 53.0199 18.0513 52.7483 17.8446 52.4191V52.4191ZM39.1966 42.3342H19.9035C19.4743 42.3823 19.0405 42.3081 18.6515 42.1205C18.2624 41.9328 17.934 41.6392 17.7044 41.2734C17.476 40.9079 17.3544 40.4856 17.3544 40.0546C17.3544 39.6236 17.476 39.2013 17.7044 38.8357C17.9349 38.4708 18.2627 38.1779 18.6515 37.9904C19.0402 37.8029 19.4744 37.7283 19.9035 37.775H39.1966C39.6258 37.7283 40.0586 37.8029 40.4474 37.9904C40.8362 38.1779 41.1652 38.4708 41.3958 38.8357C41.6241 39.2013 41.7445 39.6236 41.7445 40.0546C41.7445 40.4856 41.6241 40.9079 41.3958 41.2734C41.1895 41.6022 40.9028 41.8733 40.5632 42.0614C40.2237 42.2494 39.8422 42.3483 39.454 42.3487C39.3679 42.3487 39.2822 42.3439 39.1966 42.3342V42.3342ZM39.1966 33.0379H19.9035C19.4743 33.0859 19.0405 33.0118 18.6515 32.8242C18.2624 32.6365 17.934 32.3429 17.7044 31.9771C17.476 31.6116 17.3544 31.1893 17.3544 30.7583C17.3544 30.3273 17.476 29.905 17.7044 29.5394C17.9345 29.1741 18.2625 28.8808 18.6515 28.6933C19.0404 28.5057 19.4743 28.4313 19.9035 28.4787H39.1966C39.6258 28.4312 40.0598 28.5054 40.4487 28.693C40.8377 28.8806 41.1658 29.1739 41.3958 29.5394C41.6241 29.905 41.7445 30.3273 41.7445 30.7583C41.7445 31.1893 41.6241 31.6116 41.3958 31.9771C41.1895 32.3059 40.9028 32.577 40.5632 32.7651C40.2237 32.9531 39.8422 33.052 39.454 33.0524C39.3679 33.0526 39.2822 33.048 39.1966 33.0386V33.0379ZM39.1966 23.7145H19.9035C19.4744 23.7613 19.0402 23.6867 18.6515 23.4991C18.2627 23.3116 17.9349 23.0187 17.7044 22.6538C17.476 22.2882 17.3544 21.8659 17.3544 21.4349C17.3544 21.0039 17.476 20.5816 17.7044 20.2161C17.934 19.8503 18.2624 19.5567 18.6515 19.369C19.0405 19.1814 19.4743 19.1073 19.9035 19.1554H39.1966C39.6259 19.1072 40.0597 19.1812 40.4487 19.3688C40.8378 19.5565 41.1663 19.8502 41.3958 20.2161C41.6241 20.5816 41.7445 21.0039 41.7445 21.4349C41.7445 21.8659 41.6241 22.2882 41.3958 22.6538C41.1881 22.9827 40.9 23.2538 40.5594 23.4416C40.2187 23.6295 39.8366 23.7281 39.4476 23.7284C39.3637 23.729 39.28 23.7251 39.1966 23.7165V23.7145ZM39.1966 14.4182H19.9035C19.4744 14.465 19.0402 14.3904 18.6515 14.2028C18.2627 14.0153 17.9349 13.7224 17.7044 13.3575C17.476 12.9919 17.3544 12.5696 17.3544 12.1386C17.3544 11.7076 17.476 11.2853 17.7044 10.9198C17.9345 10.5542 18.2626 10.2607 18.6515 10.0726C19.0403 9.88446 19.4741 9.80933 19.9035 9.85575H39.1966C39.6261 9.80878 40.0598 9.88368 40.4487 10.0719C40.8376 10.26 41.1661 10.5539 41.3958 10.9198C41.6241 11.2853 41.7445 11.7076 41.7445 12.1386C41.7445 12.5696 41.6241 12.9919 41.3958 13.3575C41.1881 13.6864 40.9 13.9574 40.5594 14.1453C40.2187 14.3332 39.8366 14.4318 39.4476 14.432C39.3637 14.4322 39.28 14.4278 39.1966 14.4189V14.4182Z" fill="#3F3F3F"/>
</svg>
