<svg width="61" height="61" viewBox="0 0 61 61" fill="none" xmlns="http://www.w3.org/2000/svg">
<g clip-path="url(#clip0_6805_27996)">
<path d="M17.3123 48.7328C17.3122 49.7873 16.9467 50.8092 16.278 51.6246C15.6093 52.4401 14.6787 52.9986 13.6446 53.2051C12.6105 53.4116 11.5368 53.2535 10.6062 52.7575C9.67555 52.2615 8.94555 51.4584 8.54039 50.4848C8.13524 49.5112 8.07998 48.4273 8.384 47.4175C8.68803 46.4078 9.33256 45.5346 10.2079 44.9465C11.0833 44.3585 12.1353 44.0919 13.1851 44.1922C14.2348 44.2925 15.2174 44.7534 15.9656 45.4966C16.8251 46.3546 17.3094 47.5183 17.3123 48.7328Z" fill="#00C83C"/>
<path d="M58.9029 15.6033L31.0558 8.07159C30.6919 7.97614 30.3095 7.97614 29.9456 8.07159L2.06524 15.6033C1.6326 15.7273 1.24948 15.9833 0.969386 16.3356C0.689288 16.6879 0.526192 17.1188 0.502873 17.5683C0.479553 18.0177 0.597174 18.4632 0.839311 18.8426C1.08145 19.2219 1.43601 19.5162 1.85349 19.6843L9.77977 22.7786C9.75962 22.8975 9.74947 23.018 9.74942 23.1386V40.2404C9.81131 40.766 10.064 41.2507 10.4595 41.6023C10.855 41.954 11.3658 42.1483 11.8951 42.1483C12.4243 42.1483 12.9352 41.954 13.3307 41.6023C13.7262 41.2507 13.9789 40.766 14.0408 40.2404V24.426L29.7049 30.5475C29.9535 30.6448 30.2178 30.6957 30.4848 30.6978C30.7518 30.6963 31.0163 30.6454 31.2647 30.5475L46.4489 24.6356V39.8205C45.4897 41.4121 41.0783 47.5625 30.1566 47.5625C27.3828 47.5928 24.6237 47.1566 21.9946 46.2723C21.7196 46.1219 21.4152 46.0331 21.1025 46.012C20.7898 45.991 20.4763 46.0383 20.1837 46.1506C19.8911 46.2628 19.6264 46.4374 19.408 46.6622C19.1896 46.887 19.0227 47.1566 18.919 47.4524C18.8152 47.7481 18.777 48.0629 18.8071 48.3748C18.8371 48.6868 18.9347 48.9885 19.093 49.259C19.2513 49.5295 19.4666 49.7623 19.7239 49.9412C19.9811 50.1202 20.2743 50.2411 20.5829 50.2954C23.666 51.3375 26.9023 51.854 30.1566 51.8235C45.3104 51.8235 50.352 41.7106 50.5623 41.2907C50.7014 41.0002 50.7737 40.6824 50.7741 40.3604V22.9558L59.1464 19.685C59.5639 19.5169 59.9185 19.2227 60.1606 18.8433C60.4028 18.4639 60.5204 18.0184 60.4971 17.569C60.4737 17.1195 60.3106 16.6886 60.0305 16.3363C59.7504 15.984 59.3673 15.728 58.9347 15.604L58.9029 15.6033ZM30.4855 26.2265L9.47627 18.0645L30.4855 12.3926L51.4912 18.0638L30.4855 26.2265Z" fill="#3F3F3F"/>
</g>
<defs>
<clipPath id="clip0_6805_27996">
<rect width="60" height="60" fill="white" transform="translate(0.5 0.5)"/>
</clipPath>
</defs>
</svg>
