<svg width="25" height="24" viewBox="0 0 25 24" fill="none" xmlns="http://www.w3.org/2000/svg">
<g clip-path="url(#clip0_7473_3090)">
<path d="M22.034 7.113C23.01 6.42 23.831 5.555 24.5 4.559V4.558C23.607 4.949 22.657 5.209 21.665 5.335C22.685 4.726 23.464 3.769 23.83 2.616C22.879 3.183 21.829 3.583 20.71 3.807C19.807 2.845 18.52 2.25 17.116 2.25C14.392 2.25 12.199 4.461 12.199 7.171C12.199 7.561 12.232 7.936 12.313 8.293C8.223 8.093 4.603 6.133 2.171 3.146C1.747 3.883 1.497 4.726 1.497 5.633C1.497 7.337 2.374 8.847 3.683 9.722C2.892 9.707 2.117 9.477 1.46 9.116V9.17C1.46 11.561 3.165 13.547 5.402 14.005C5.001 14.115 4.565 14.167 4.112 14.167C3.797 14.167 3.479 14.149 3.181 14.083C3.818 16.031 5.628 17.464 7.778 17.511C6.104 18.82 3.978 19.609 1.677 19.609C1.274 19.609 0.887 19.591 0.5 19.542C2.68 20.947 5.262 21.75 8.048 21.75C16.731 21.75 22.39 14.506 22.034 7.113Z" fill="#00C83C"/>
</g>
<defs>
<clipPath id="clip0_7473_3090">
<rect width="24" height="24" fill="white" transform="translate(0.5)"/>
</clipPath>
</defs>
</svg>
