<svg width="40" height="40" viewBox="0 0 40 40" fill="none" xmlns="http://www.w3.org/2000/svg">
<g clip-path="url(#clip0_3951_4780)">
<path d="M12.898 36.666C9.02169 36.6583 5.20865 35.6829 1.80478 33.8283L0.905488 33.3107L0.525722 33.0909C0.314845 32.9561 0.154218 32.7557 0.068653 32.5205C-0.0169118 32.2853 -0.0226527 32.0285 0.0523173 31.7897C0.127287 31.5509 0.278796 31.3435 0.48344 31.1994C0.688083 31.0553 0.934473 30.9826 1.18455 30.9926C4.05547 31.2517 6.94056 30.6831 9.49845 29.354C7.02033 28.4345 5.22173 26.5775 4.12244 23.7982C4.03298 23.5602 4.0257 23.2991 4.10177 23.0565C4.17784 22.8139 4.33287 22.6037 4.5422 22.4594C3.52505 21.6076 2.71175 20.5387 2.16213 19.3312C1.6125 18.1237 1.34052 16.8084 1.36619 15.482C1.3739 15.3323 1.41105 15.1857 1.47551 15.0504C1.53998 14.9151 1.63049 14.7939 1.74187 14.6937C1.85325 14.5934 1.98331 14.5162 2.1246 14.4663C2.26589 14.4164 2.41563 14.3948 2.56526 14.4029C2.13666 13.6344 1.82665 12.8056 1.64572 11.9445C1.16302 9.77162 1.51263 7.4967 2.62549 5.56899C2.71557 5.40935 2.84283 5.27379 2.99648 5.17384C3.15013 5.07389 3.32562 5.01248 3.50807 4.99484C3.69052 4.97719 3.87453 5.00383 4.04449 5.07249C4.21444 5.14115 4.36532 5.2498 4.48432 5.38922C7.94845 9.62269 12.9212 12.3455 18.354 12.9836C18.3297 12.5573 18.3363 12.1298 18.3738 11.7045C18.7333 8.06735 20.6721 5.46922 24.0095 4.16992C27.347 2.87063 30.5037 3.47063 33.2425 5.88852C34.5134 5.58183 35.7369 5.10456 36.8797 4.46969L37.2195 4.28992C37.4116 4.19528 37.6256 4.15385 37.8392 4.16992C38.0194 4.16885 38.1972 4.21131 38.3575 4.29369C38.5177 4.37607 38.6557 4.49594 38.7597 4.64309C38.8637 4.79025 38.9307 4.96034 38.9548 5.13891C38.979 5.31748 38.9597 5.49925 38.8985 5.66875C38.6944 6.28142 38.4262 6.87087 38.0985 7.42734L38.3983 7.32758C38.6131 7.25066 38.846 7.23999 39.0669 7.29696C39.2878 7.35393 39.4865 7.47591 39.6373 7.64711L39.7173 7.72711C39.8961 7.93097 39.9963 8.19189 39.9999 8.463C40.0035 8.7341 39.9103 8.99761 39.7371 9.20617L39.1973 9.8457C38.7723 10.3891 38.3187 10.9096 37.8383 11.4048C37.3103 11.9324 36.7496 12.4264 36.1597 12.8838C36.2362 17.0658 35.1943 21.1924 33.1418 24.8368C32.978 25.0616 32.7377 25.2187 32.466 25.2785C32.1944 25.3383 31.9103 25.2967 31.6673 25.1615C31.4242 25.0263 31.239 24.8069 31.1465 24.5446C31.0541 24.2823 31.0608 23.9952 31.1653 23.7375C33.0551 20.3885 34.0013 16.5896 33.9032 12.7455C33.8857 12.4592 33.9384 12.1729 34.0568 11.9117C34.1753 11.6504 34.3558 11.4221 34.5827 11.2466L34.7027 11.1469L35.4623 10.5074L35.2623 10.5474L34.8627 10.6274C34.6093 10.6736 34.3477 10.6326 34.1205 10.511C33.8934 10.3894 33.7142 10.1944 33.6121 9.95789C33.5101 9.72134 33.4912 9.45718 33.5586 9.20853C33.626 8.95987 33.7757 8.7414 33.9832 8.58876C34.344 8.32823 34.6847 8.04099 35.0025 7.72946C34.5096 7.88946 34.0033 8.02938 33.4834 8.14923C33.2064 8.22144 32.9154 8.22074 32.6388 8.14718C32.3621 8.07362 32.1092 7.92972 31.9046 7.72946C29.746 5.73087 27.4279 5.25134 24.81 6.27064C22.1921 7.28993 20.8928 9.14829 20.6133 11.9064C20.5825 12.3925 20.5891 12.8802 20.6331 13.3652C20.6528 13.6452 20.6731 13.905 20.6731 14.1845C20.676 14.3428 20.646 14.5 20.5848 14.646C20.5236 14.7921 20.4327 14.9237 20.3178 15.0327C20.2029 15.1416 20.0665 15.2254 19.9174 15.2787C19.7684 15.332 19.6098 15.3536 19.4519 15.3422C13.5599 15.0205 8.01306 12.4613 3.94455 8.18735C3.63147 9.25337 3.59712 10.3819 3.84479 11.465C4.21941 13.128 5.20431 14.59 6.6048 15.562C6.79218 15.7077 6.92936 15.9083 6.99716 16.1359C7.06496 16.3634 7.06001 16.6064 6.98298 16.8309C6.90595 17.0555 6.7607 17.2503 6.56753 17.3883C6.37435 17.5263 6.14289 17.6005 5.9055 17.6005C5.20204 17.581 4.50377 17.4736 3.82691 17.281C4.13279 18.477 4.76311 19.5653 5.64831 20.4257C6.53351 21.2862 7.6392 21.8854 8.84339 22.1573C9.08525 22.2207 9.29952 22.362 9.45314 22.5593C9.60676 22.7566 9.69121 22.999 9.69346 23.249C9.69571 23.499 9.61563 23.7429 9.46558 23.9429C9.31553 24.1429 9.10384 24.288 8.86315 24.3559C8.27571 24.5149 7.67255 24.6088 7.06456 24.6359C8.26362 26.4947 10.0425 27.4937 12.5206 27.6947C12.7475 27.7179 12.9622 27.8087 13.1369 27.9552C13.3116 28.1018 13.4383 28.2975 13.5006 28.5169C13.5629 28.7362 13.558 28.9693 13.4863 29.1858C13.4147 29.4024 13.2798 29.5924 13.0989 29.7314C10.8836 31.4418 8.28175 32.5811 5.52244 33.049C9.351 34.4948 13.5179 34.7935 17.5135 33.9083C19.9107 33.4281 22.1999 32.5138 24.2684 31.2105C24.3941 31.1179 24.5376 31.0521 24.6899 31.0173C24.8421 30.9825 24.9999 30.9794 25.1534 31.0081C25.3069 31.0368 25.4529 31.0968 25.5823 31.1843C25.7116 31.2719 25.8216 31.385 25.9054 31.5169C25.9891 31.6487 26.0449 31.7963 26.0692 31.9506C26.0935 32.1049 26.0859 32.2625 26.0467 32.4137C26.0075 32.5649 25.9377 32.7064 25.8415 32.8295C25.7453 32.9525 25.6249 33.0545 25.4877 33.1291C23.1864 34.5776 20.6398 35.5935 17.9733 36.1267C16.3041 36.4798 14.6031 36.6606 12.897 36.6665L12.898 36.666Z" fill="#EBEBEB"/>
<path d="M31.3639 28.4923C31.3639 28.9864 31.2174 29.4694 30.9429 29.8803C30.6683 30.2911 30.2781 30.6113 29.8216 30.8004C29.3651 30.9895 28.8628 31.039 28.3781 30.9426C27.8935 30.8462 27.4483 30.6083 27.0989 30.2589C26.7495 29.9095 26.5116 29.4643 26.4152 28.9797C26.3188 28.495 26.3683 27.9927 26.5574 27.5362C26.7465 27.0797 27.0667 26.6895 27.4775 26.4149C27.8884 26.1404 28.3714 25.9939 28.8656 25.9939C29.5282 25.9939 30.1636 26.2571 30.6322 26.7256C31.1007 27.1942 31.3639 27.8296 31.3639 28.4923Z" fill="#00C83C"/>
</g>
<defs>
<clipPath id="clip0_3951_4780">
<rect width="40" height="40" fill="white"/>
</clipPath>
</defs>
</svg>
