<svg width="56" height="56" viewBox="0 0 56 56" fill="none" xmlns="http://www.w3.org/2000/svg">
<path d="M28.056 7C16.4456 7 7 16.4456 7 28.056C7 39.6656 16.4456 49.1112 28.056 49.1112C39.6656 49.1112 49.112 39.6656 49.112 28.056C49.1117 16.4456 39.6664 7 28.056 7ZM28.056 8.79184C38.6784 8.79184 47.3192 17.4334 47.3192 28.0558C47.3192 32.269 45.9561 36.167 43.6523 39.3414C43.6367 39.2699 43.622 39.1971 43.6014 39.1264C41.8223 33.0089 38.5373 32.7983 37.8298 32.633C37.7479 32.6136 37.6645 32.5961 37.581 32.5802C35.4351 30.5974 36.8995 22.3194 36.8995 22.3194C36.8995 9.70179 28.3643 10.9426 28.3643 10.9426C28.2602 10.9373 28.1568 10.9326 28.0552 10.9291C27.953 10.9326 27.8499 10.9373 27.7455 10.9426C27.7455 10.9426 19.2103 9.70099 19.2103 22.3194C19.2103 22.3194 20.6753 30.5978 18.5288 32.5802C18.4444 32.5964 18.3616 32.6139 18.28 32.633C17.5722 32.7983 14.2869 33.0089 12.5084 39.1264C12.4878 39.1977 12.4725 39.2699 12.4568 39.3414C10.1531 36.1674 8.78996 32.269 8.78996 28.0558C8.79059 17.4334 17.4332 8.79184 28.0556 8.79184H28.056ZM21.6698 21.8686C21.7057 21.5183 22.1719 17.5942 25.1091 17.8662L34.0931 22.4909L34.8225 21.7881C34.8481 21.7924 34.8722 21.8006 34.8956 21.8118C35.2169 21.9618 35.3541 22.71 35.2012 23.5634C35.0847 24.2178 34.8291 24.7569 34.5569 24.9875C34.4481 25.0794 34.3375 25.1225 34.2312 25.1034C34.1712 25.0931 34.1166 25.0641 34.0681 25.0178C33.4681 26.8816 32.3228 28.7381 30.8768 29.8544C30.0334 30.5053 29.0875 30.9044 28.0881 30.9044C27.0825 30.9044 26.1312 30.5003 25.2837 29.8419C23.8456 28.725 22.7056 26.8747 22.1093 25.0178C22.0606 25.0634 22.0062 25.0925 21.9462 25.1034C21.8231 25.125 21.6927 25.0634 21.5681 24.9381C21.3159 24.6859 21.0846 24.1753 20.9752 23.5628C20.8315 22.7572 20.9456 22.0453 21.2287 21.8416C21.2677 21.8137 21.309 21.795 21.3537 21.7875C21.4559 21.77 21.5621 21.8091 21.6665 21.8931V21.8934C21.6668 21.8934 21.6677 21.8847 21.6696 21.8687L21.6698 21.8686ZM28.056 35.2438C25.497 35.2438 23.326 33.8173 22.5538 32.8291C22.3888 32.6191 22.2863 32.3954 22.2591 32.1651V32.1647C22.2982 32.1516 22.387 32.1201 22.5029 32.0669C22.5507 32.045 22.6038 32.0197 22.6588 31.9907C23.1267 31.7457 23.8139 31.2325 23.8141 30.3316H23.8144C24.5532 31.0632 25.3738 31.6426 26.251 31.9907C26.841 32.2241 27.4559 32.3541 28.0882 32.3541C28.7207 32.3541 29.336 32.2247 29.9263 31.9907C30.7945 31.6457 31.6091 31.0741 32.3419 30.352C32.3469 30.3541 32.3513 30.3563 32.3566 30.3591C32.3744 31.5198 33.5394 32.0288 33.8548 32.1447C33.8539 32.1519 33.8535 32.1579 33.8526 32.1651C33.8248 32.3957 33.7223 32.6194 33.557 32.8291C32.7854 33.8178 30.6142 35.2438 28.056 35.2438L28.056 35.2438Z" fill="#00C83C"/>
</svg>
