<svg width="22" height="21" viewBox="0 0 22 21" fill="none" xmlns="http://www.w3.org/2000/svg">
<path fill-rule="evenodd" clip-rule="evenodd" d="M17.9639 3.50708C16.1221 1.66306 13.6725 0.647078 11.063 0.645996C5.68567 0.645996 1.30934 5.02221 1.30717 10.4009C1.30645 12.1204 1.75562 13.7988 2.60938 15.2782L1.22534 20.3335L6.39704 18.9769C7.82205 19.7542 9.42634 20.1638 11.059 20.1643H11.0631C16.4398 20.1643 20.8166 15.7877 20.8186 10.4088C20.8197 7.80194 19.8059 5.35098 17.9639 3.50708ZM11.063 18.5167H11.0596C9.60467 18.5161 8.17773 18.1251 6.9326 17.3865L6.63664 17.2107L3.56768 18.0158L4.38683 15.0236L4.19397 14.7168C3.38227 13.4258 2.95365 11.9336 2.95437 10.4015C2.95605 5.93088 6.59362 2.29367 11.0662 2.29367C13.232 2.29439 15.2679 3.1389 16.7988 4.67157C18.3297 6.20425 19.1723 8.2415 19.1716 10.4082C19.1696 14.8792 15.5323 18.5167 11.063 18.5167ZM15.5107 12.4438C15.267 12.3217 14.0685 11.7322 13.845 11.6508C13.6217 11.5694 13.459 11.5289 13.2967 11.7728C13.1341 12.0168 12.667 12.5659 12.5247 12.7285C12.3825 12.8912 12.2404 12.9116 11.9966 12.7895C11.7528 12.6676 10.9674 12.4101 10.0363 11.5796C9.31171 10.9333 8.82253 10.135 8.68025 9.89109C8.53822 9.64692 8.67905 9.52772 8.7872 9.39362C9.05107 9.06593 9.31531 8.72239 9.39654 8.55981C9.47789 8.39711 9.43716 8.25471 9.37612 8.13275C9.31531 8.01078 8.82781 6.81096 8.62474 6.32273C8.42671 5.84761 8.22592 5.91178 8.07619 5.90433C7.93416 5.89724 7.77158 5.89579 7.609 5.89579C7.44654 5.89579 7.18242 5.95672 6.95892 6.20089C6.73553 6.44494 6.10588 7.03458 6.10588 8.23441C6.10588 9.43423 6.97935 10.5933 7.10119 10.756C7.22304 10.9187 8.82012 13.3809 11.2653 14.4366C11.8469 14.688 12.3009 14.8378 12.655 14.9502C13.239 15.1357 13.7702 15.1095 14.1903 15.0468C14.6587 14.9767 15.6324 14.457 15.8357 13.8877C16.0388 13.3183 16.0388 12.8303 15.9777 12.7285C15.9169 12.6268 15.7544 12.5659 15.5107 12.4438Z" fill="#F5F5F5"/>
</svg>
