<svg width="40" height="40" viewBox="0 0 40 40" fill="none" xmlns="http://www.w3.org/2000/svg">
<path d="M6.0104 31.1772C6.0104 31.7077 5.85308 32.2264 5.55834 32.6675C5.2636 33.1086 4.84467 33.4524 4.35454 33.6554C3.8644 33.8584 3.32507 33.9115 2.80474 33.808C2.28442 33.7045 1.80647 33.4491 1.43134 33.0739C1.0562 32.6988 0.800732 32.2209 0.697233 31.7005C0.593734 31.1802 0.646853 30.6409 0.849874 30.1507C1.0529 29.6606 1.3967 29.2417 1.83781 28.9469C2.27892 28.6522 2.79753 28.4949 3.32805 28.4949C4.03945 28.4949 4.72172 28.7775 5.22476 29.2805C5.72779 29.7836 6.0104 30.4658 6.0104 31.1772Z" fill="#00C83C"/>
<path d="M8.93658 34.4463C8.61557 34.4461 8.30783 34.3185 8.08088 34.0915C7.85394 33.8644 7.72623 33.5565 7.7261 33.2355C7.72623 32.9145 7.85394 32.6067 8.08088 32.3797C8.30783 32.1527 8.61557 32.025 8.93658 32.0247H31.0634C32.7899 32.0197 34.4446 31.3318 35.6654 30.111C36.8863 28.8902 37.574 27.2359 37.579 25.5094V14.4346C37.5737 12.7082 36.8853 11.054 35.6645 9.83329C34.4437 8.61258 32.7898 7.92456 31.0634 7.91935H8.93658C7.21018 7.92456 5.55628 8.61258 4.33548 9.83329C3.11468 11.054 2.42629 12.7082 2.42096 14.4346V25.4892C2.42083 25.8102 2.29312 26.118 2.06618 26.345C1.83923 26.572 1.53149 26.6998 1.21048 26.7C0.889467 26.6998 0.581724 26.572 0.354779 26.345C0.127835 26.118 0.000124616 25.8102 0 25.4892V14.4346C0.00571809 12.0665 0.949352 9.79696 2.62408 8.12259C4.29881 6.44821 6.56841 5.50522 8.93658 5.5H31.0634C33.4317 5.50497 35.7021 6.44781 37.3768 8.12224C39.0516 9.79667 39.9945 12.0664 40 14.4346V25.4892C39.9999 27.8611 39.0586 30.1362 37.3833 31.8153C35.708 33.4944 33.4353 34.4404 31.0634 34.4459L8.93658 34.4463ZM13.5542 25.6313V14.3541C13.5536 14.1469 13.6064 13.943 13.7068 13.7618C13.8072 13.5806 13.9518 13.4281 14.1278 13.3188C14.3038 13.2097 14.5054 13.1476 14.7123 13.1383C14.9193 13.1291 15.1246 13.173 15.3097 13.2661L27.0506 19.077C27.2543 19.1778 27.4262 19.3341 27.545 19.5279C27.6639 19.7217 27.7249 19.9451 27.7224 20.1724C27.7203 20.3997 27.6546 20.6218 27.5322 20.8132C27.4097 21.0046 27.2357 21.1576 27.0303 21.2548L15.2895 26.7212C15.1262 26.8002 14.9479 26.8411 14.7665 26.8408C14.6074 26.8411 14.4495 26.8101 14.3024 26.7495C14.1553 26.6889 14.0217 26.5999 13.909 26.4876C13.7963 26.3753 13.7063 26.2418 13.6452 26.0949C13.5842 25.948 13.5534 25.7904 13.5533 25.6313H13.5542ZM15.9761 23.7344L23.7022 20.1244L15.9761 16.3127V23.7344Z" fill="#EBEBEB"/>
</svg>
