<svg width="61" height="61" viewBox="0 0 61 61" fill="none" xmlns="http://www.w3.org/2000/svg">
<g clip-path="url(#clip0_6833_52019)">
<path d="M11.7034 46.4352C11.7034 47.5387 11.3763 48.6174 10.7633 49.5349C10.1503 50.4525 9.27903 51.1677 8.25962 51.5901C7.24022 52.0125 6.11845 52.1232 5.03614 51.9082C3.95382 51.6932 2.95956 51.1621 2.17905 50.3821C1.39853 49.6021 0.866811 48.6081 0.651108 47.526C0.435405 46.4438 0.545404 45.322 0.967198 44.3023C1.38899 43.2826 2.10364 42.4109 3.0208 41.7973C3.93796 41.1838 5.01645 40.8559 6.11991 40.8552C7.5992 40.8552 9.01796 41.4426 10.0643 42.4883C11.1107 43.534 11.699 44.9524 11.6999 46.4317L11.7034 46.4352Z" fill="#00C83C"/>
<path d="M16.9541 48.5966C16.6704 48.5968 16.3891 48.541 16.1269 48.4325C15.8647 48.3241 15.6272 48.1649 15.4265 47.9643C15.2259 47.7637 15.0663 47.5256 14.9578 47.2634C14.8492 47.0013 14.7936 46.7203 14.7937 46.4366C14.7934 46.1527 14.8479 45.8716 14.9564 45.6094C15.0649 45.3471 15.2244 45.1088 15.4252 44.9081C15.6259 44.7075 15.8646 44.5485 16.1269 44.4401C16.3892 44.3317 16.6703 44.2761 16.9541 44.2765H56.2214V12.6531H8.28502V35.6331C8.28427 36.2106 8.05507 36.764 7.64669 37.1722C7.23831 37.5805 6.68415 37.8102 6.10671 37.8107C5.53015 37.8094 4.97797 37.5793 4.57087 37.171C4.16378 36.7627 3.93493 36.2097 3.9353 35.6331V10.493C3.93492 10.2072 3.99209 9.92413 4.10212 9.66032C4.21216 9.3965 4.37301 9.15719 4.57639 8.95633C4.98937 8.55159 5.54642 8.32753 6.12464 8.33317H58.3846C58.6682 8.33317 58.9484 8.38902 59.2104 8.49758C59.4724 8.60614 59.7103 8.76523 59.9108 8.96581C60.1113 9.16639 60.271 9.40446 60.3795 9.66652C60.488 9.92858 60.5437 10.2094 60.5436 10.493V46.4352C60.5437 46.7188 60.488 46.9996 60.3795 47.2617C60.271 47.5238 60.1113 47.7618 59.9108 47.9624C59.7103 48.163 59.4724 48.3221 59.2104 48.4306C58.9484 48.5392 58.6682 48.595 58.3846 48.595L16.9541 48.5966ZM15.4527 39.7145C15.0038 39.7147 14.5591 39.6263 14.1444 39.4546C13.7296 39.2829 13.3533 39.0312 13.0359 38.7138C12.7185 38.3963 12.4659 38.0196 12.2942 37.6048C12.1225 37.19 12.0348 36.7455 12.035 36.2966V35.0351C12.0351 33.0089 12.836 31.0647 14.2629 29.6261C15.6899 28.1875 17.6273 27.3711 19.6535 27.3545H19.6825C21.7144 27.3626 23.6597 28.1752 25.0938 29.6147C26.5279 31.0542 27.3338 33.0032 27.3341 35.0351V36.2966C27.334 36.7457 27.2455 37.1903 27.0736 37.6051C26.9016 38.02 26.6495 38.3967 26.3318 38.7141C26.0142 39.0315 25.637 39.2833 25.222 39.455C24.807 39.6266 24.3627 39.7148 23.9136 39.7145H15.4527ZM15.9325 35.0351V35.7572H16.8645V35.7868H23.4035V35.0351C23.4035 34.0445 23.0106 33.0945 22.3102 32.3939C21.6099 31.6934 20.6593 31.2998 19.6687 31.2996C18.6783 31.3 17.7289 31.6936 17.0286 32.3939C16.3282 33.0943 15.9343 34.044 15.9339 35.0344L15.9325 35.0351ZM34.1131 39.5647C33.857 39.5647 33.6038 39.5144 33.3672 39.4164C33.1306 39.3183 32.9154 39.1746 32.7344 38.9935C32.5533 38.8123 32.4091 38.5974 32.3111 38.3608C32.2132 38.1242 32.1635 37.8705 32.1636 37.6144C32.164 37.0977 32.3688 36.6022 32.7344 36.237C33.1 35.8718 33.5963 35.6667 34.1131 35.6669H51.1245C51.3804 35.6666 51.6338 35.7168 51.8704 35.8146C52.1069 35.9123 52.3221 36.0558 52.5032 36.2366C52.6842 36.4175 52.8284 36.6322 52.9264 36.8686C53.0244 37.105 53.0739 37.3585 53.0739 37.6144C53.0742 37.8706 53.0243 38.1243 52.9264 38.361C52.8285 38.5977 52.6856 38.8128 52.5045 38.994C52.3235 39.1751 52.1084 39.3188 51.8717 39.4167C51.6351 39.5147 51.3806 39.5649 51.1245 39.5647H34.1131ZM34.1131 32.4558C33.857 32.4558 33.6038 32.4054 33.3672 32.3074C33.1306 32.2094 32.9154 32.0656 32.7344 31.8845C32.5533 31.7034 32.4091 31.4885 32.3111 31.2519C32.2132 31.0152 32.1635 30.7616 32.1636 30.5055C32.1635 30.2494 32.2132 29.9959 32.3111 29.7593C32.4091 29.5227 32.5533 29.3076 32.7344 29.1265C32.9154 28.9454 33.1306 28.8016 33.3672 28.7036C33.6038 28.6055 33.857 28.5552 34.1131 28.5552H51.1245C51.3806 28.555 51.6351 28.6053 51.8717 28.7032C52.1084 28.8012 52.3235 28.945 52.5045 29.1261C52.6856 29.3073 52.8285 29.5222 52.9264 29.7589C53.0243 29.9956 53.0742 30.2493 53.0739 30.5055C53.0742 30.7616 53.0243 31.0153 52.9264 31.252C52.8285 31.4888 52.6856 31.7039 52.5045 31.885C52.3235 32.0662 52.1084 32.2098 51.8717 32.3078C51.6351 32.4057 51.3806 32.456 51.1245 32.4558H34.1131ZM19.6825 26.7848C18.3652 26.7771 17.1054 26.2475 16.1779 25.312C15.2504 24.3766 14.7309 23.1115 14.7344 21.7942C14.7371 20.4768 15.2616 19.2142 16.1931 18.2827C17.1246 17.3512 18.3872 16.8267 19.7046 16.8241C21.022 16.8222 22.2863 17.3422 23.2215 18.2701C24.1568 19.1981 24.687 20.4585 24.6953 21.7759C24.6985 22.4347 24.5709 23.0876 24.3203 23.6969C24.0698 24.3062 23.701 24.8598 23.2353 25.3258C22.7737 25.7885 22.226 26.1555 21.6223 26.4058C21.0186 26.6562 20.3705 26.785 19.717 26.7848H19.6825ZM19.6825 20.3049C19.285 20.3054 18.9044 20.4638 18.6237 20.7452C18.3429 21.0266 18.1849 21.408 18.1853 21.8056C18.1853 22.203 18.343 22.5841 18.6237 22.8654C18.9043 23.1467 19.2851 23.3053 19.6825 23.3062C20.0805 23.3061 20.4626 23.148 20.7441 22.8666C21.0256 22.5852 21.1835 22.2036 21.1839 21.8056C21.1885 21.6058 21.1527 21.4071 21.0791 21.2213C21.0055 21.0356 20.8953 20.8665 20.7551 20.7242C20.6153 20.5814 20.4486 20.4681 20.2643 20.3909C20.08 20.3136 19.8823 20.2741 19.6825 20.2745V20.3049ZM34.1131 25.3165C33.596 25.316 33.0999 25.1104 32.7344 24.7447C32.3689 24.3791 32.164 23.8832 32.1636 23.3662C32.1635 23.1101 32.2132 22.8566 32.3111 22.62C32.4091 22.3834 32.5533 22.1683 32.7344 21.9872C32.9154 21.8061 33.1306 21.6625 33.3672 21.5645C33.6038 21.4664 33.857 21.4159 34.1131 21.4159H42.6333C42.8894 21.4157 43.1424 21.466 43.3791 21.5639C43.6158 21.6619 43.8308 21.8057 44.0119 21.9869C44.193 22.168 44.3373 22.383 44.4352 22.6197C44.533 22.8564 44.583 23.1101 44.5827 23.3662C44.5828 23.6223 44.5331 23.876 44.4352 24.1126C44.3372 24.3492 44.193 24.5641 44.0119 24.7452C43.8309 24.9263 43.6157 25.0701 43.3791 25.1681C43.1425 25.2662 42.8893 25.3165 42.6333 25.3165H34.1131Z" fill="#3F3F3F"/>
</g>
<defs>
<clipPath id="clip0_6833_52019">
<rect width="60" height="60" fill="white" transform="translate(0.543457 0.0830688)"/>
</clipPath>
</defs>
</svg>
