<svg width="286" height="24" viewBox="0 0 286 24" fill="none" xmlns="http://www.w3.org/2000/svg">
<path d="M6.5654 17.0525L3.01569 7.10638H5.19022L7.70348 14.4676L10.1354 7.10638H12.2626L8.70607 17.0525H6.5654Z" fill="#F5F5F5"/>
<path d="M17.1091 17.0525V7.10638H19.1143V17.0525H17.1091Z" fill="#F5F5F5"/>
<path d="M29.5361 13.3956V11.7199H33.8581V15.682C33.4381 16.0891 32.8284 16.4487 32.029 16.7608C31.2342 17.0683 30.4281 17.2221 29.6106 17.2221C28.5719 17.2221 27.6664 17.005 26.8942 16.5708C26.1219 16.1321 25.5416 15.5079 25.1532 14.6983C24.7648 13.8841 24.5706 12.9999 24.5706 12.0455C24.5706 11.0098 24.7874 10.0893 25.2209 9.28422C25.6545 8.47912 26.289 7.86173 27.1245 7.43204C27.7613 7.10186 28.5538 6.93677 29.5022 6.93677C30.7352 6.93677 31.6971 7.19684 32.3881 7.71699C33.0836 8.23261 33.5307 8.94725 33.7294 9.8609L31.7377 10.2341C31.5977 9.74557 31.3336 9.36111 30.9452 9.08068C30.5613 8.79573 30.0803 8.65326 29.5022 8.65326C28.6261 8.65326 27.9284 8.93142 27.409 9.48775C26.8942 10.0441 26.6367 10.8695 26.6367 11.9641C26.6367 13.1446 26.8987 14.0311 27.4225 14.6236C27.9464 15.2116 28.6329 15.5056 29.4819 15.5056C29.9019 15.5056 30.3219 15.4242 30.7419 15.2614C31.1665 15.094 31.53 14.8928 31.8326 14.6576V13.3956H29.5361Z" fill="#F5F5F5"/>
<path d="M39.5379 17.0525V7.10638H41.5431V17.0525H39.5379Z" fill="#F5F5F5"/>
<path d="M47.399 17.0525V7.1878H49.4042V15.3767H54.3901V17.0525H47.399Z" fill="#F5F5F5"/>
<path d="M68.6664 17.0525H66.4851L65.618 14.7933H61.6483L60.8286 17.0525H58.7015L62.5696 7.10638H64.6899L68.6664 17.0525ZM64.9745 13.1175L63.6061 9.42669L62.2647 13.1175H64.9745Z" fill="#F5F5F5"/>
<path d="M73.6146 7.10638H77.2795C78.106 7.10638 78.736 7.1697 79.1695 7.29635C79.7521 7.46822 80.2511 7.77353 80.6666 8.21226C81.0821 8.65099 81.3982 9.18923 81.615 9.82698C81.8318 10.4602 81.9402 11.2427 81.9402 12.1744C81.9402 12.9931 81.8386 13.6987 81.6353 14.2912C81.387 15.0149 81.0324 15.6006 80.5718 16.0484C80.224 16.3876 79.7544 16.6522 79.1627 16.8422C78.7202 16.9824 78.1285 17.0525 77.3879 17.0525H73.6146V7.10638ZM75.6198 8.78895V15.3767H77.1169C77.6769 15.3767 78.0811 15.3451 78.3295 15.2817C78.6547 15.2003 78.9234 15.0624 79.1356 14.8679C79.3524 14.6734 79.5285 14.3545 79.664 13.9113C79.7995 13.4635 79.8673 12.8551 79.8673 12.0862C79.8673 11.3173 79.7995 10.7271 79.664 10.3155C79.5285 9.90387 79.3389 9.58274 79.095 9.35206C78.8511 9.12139 78.5418 8.96534 78.1669 8.88393C77.8869 8.82061 77.3382 8.78895 76.5208 8.78895H75.6198Z" fill="#F5F5F5"/>
<path d="M87.1255 12.1405C87.1255 11.1274 87.2768 10.277 87.5794 9.58952C87.8052 9.08294 88.1123 8.62838 88.5007 8.22583C88.8936 7.82328 89.3226 7.52476 89.7878 7.33027C90.4065 7.06794 91.12 6.93677 91.9284 6.93677C93.3917 6.93677 94.5614 7.39133 95.4375 8.30046C96.3182 9.20959 96.7585 10.4738 96.7585 12.093C96.7585 13.6987 96.3227 14.9561 95.451 15.8652C94.5794 16.7698 93.4143 17.2221 91.9555 17.2221C90.4787 17.2221 89.3045 16.7721 88.4329 15.872C87.5613 14.9674 87.1255 13.7236 87.1255 12.1405ZM89.1916 12.0727C89.1916 13.1989 89.4513 14.0537 89.9707 14.6372C90.49 15.2162 91.1494 15.5056 91.9488 15.5056C92.7481 15.5056 93.403 15.2184 93.9133 14.644C94.4281 14.0651 94.6856 13.1989 94.6856 12.0455C94.6856 10.9057 94.4349 10.0554 93.9336 9.49454C93.4368 8.93368 92.7752 8.65326 91.9488 8.65326C91.1223 8.65326 90.4562 8.93821 89.9503 9.50811C89.4445 10.0735 89.1916 10.9283 89.1916 12.0727Z" fill="#F5F5F5"/>
<path d="M0.5 21.4736H100.769V23.9999H0.5V21.4736Z" fill="#F5F5F5"/>
<path d="M0.5 0H100.769V2.52632H0.5V0Z" fill="#F5F5F5"/>
<path d="M118.11 7.26724L119.44 7.13772C119.52 7.58488 119.682 7.91332 119.925 8.12302C120.171 8.33273 120.502 8.43758 120.918 8.43758C121.358 8.43758 121.689 8.34506 121.911 8.16003C122.136 7.97191 122.248 7.75296 122.248 7.50316C122.248 7.3428 122.201 7.20711 122.105 7.09609C122.013 6.98199 121.85 6.8833 121.616 6.80004C121.455 6.74453 121.091 6.64584 120.521 6.50398C119.788 6.32203 119.274 6.09845 118.978 5.83324C118.563 5.46009 118.355 5.00522 118.355 4.46862C118.355 4.12323 118.452 3.80096 118.646 3.50182C118.843 3.1996 119.124 2.96986 119.491 2.81258C119.86 2.6553 120.305 2.57666 120.826 2.57666C121.676 2.57666 122.315 2.76324 122.743 3.13638C123.174 3.50953 123.4 4.00758 123.422 4.63053L122.054 4.69066C121.996 4.34218 121.87 4.09239 121.676 3.94128C121.485 3.78708 121.197 3.70999 120.812 3.70999C120.415 3.70999 120.104 3.79171 119.879 3.95516C119.734 4.06001 119.662 4.20032 119.662 4.37611C119.662 4.53647 119.73 4.6737 119.865 4.7878C120.037 4.93275 120.456 5.08386 121.121 5.24113C121.786 5.39841 122.278 5.56186 122.595 5.73147C122.915 5.898 123.164 6.12775 123.343 6.42072C123.525 6.7106 123.615 7.06988 123.615 7.49854C123.615 7.8871 123.508 8.251 123.292 8.59023C123.077 8.92946 122.772 9.18233 122.378 9.34886C121.984 9.51231 121.492 9.59403 120.904 9.59403C120.048 9.59403 119.391 9.39666 118.932 9.00193C118.473 8.60411 118.199 8.02588 118.11 7.26724Z" fill="#F5F5F5"/>
<path d="M125.135 2.69231H126.502V6.36521C126.502 6.94806 126.519 7.32584 126.553 7.49854C126.611 7.77608 126.75 7.99967 126.968 8.16928C127.19 8.33581 127.492 8.41907 127.874 8.41907C128.262 8.41907 128.554 8.34044 128.751 8.18316C128.948 8.0228 129.067 7.82697 129.107 7.59568C129.147 7.36439 129.167 6.98044 129.167 6.44385V2.69231H130.534V6.25419C130.534 7.06833 130.497 7.64348 130.423 7.97962C130.349 8.31576 130.212 8.59948 130.012 8.83077C129.815 9.06206 129.55 9.2471 129.218 9.38587C128.885 9.52156 128.451 9.58941 127.915 9.58941C127.269 9.58941 126.777 9.51539 126.442 9.36737C126.109 9.21626 125.846 9.02197 125.652 8.78451C125.458 8.54397 125.33 8.29263 125.269 8.03051C125.179 7.64194 125.135 7.06833 125.135 6.3097V2.69231Z" fill="#F5F5F5"/>
<path d="M132.358 9.47376V2.69231H134.552C135.383 2.69231 135.925 2.72623 136.178 2.79407C136.566 2.89584 136.891 3.11788 137.153 3.46019C137.414 3.79942 137.545 4.23887 137.545 4.77855C137.545 5.19488 137.47 5.5449 137.319 5.82861C137.168 6.11233 136.975 6.33591 136.741 6.49936C136.51 6.65972 136.275 6.76611 136.035 6.81854C135.708 6.8833 135.236 6.91568 134.617 6.91568H133.725V9.47376H132.358ZM133.725 3.83951V5.76385H134.474C135.012 5.76385 135.373 5.72839 135.554 5.65746C135.736 5.58653 135.878 5.47551 135.979 5.3244C136.084 5.17329 136.136 4.99751 136.136 4.79706C136.136 4.55034 136.064 4.34681 135.919 4.18645C135.775 4.02608 135.591 3.92586 135.37 3.88577C135.206 3.85493 134.879 3.83951 134.386 3.83951H133.725Z" fill="#F5F5F5"/>
<path d="M139.046 9.47376V2.69231H144.067V3.83951H140.413V5.3429H143.812V6.48548H140.413V8.33118H144.196V9.47376H139.046Z" fill="#F5F5F5"/>
<path d="M145.738 9.47376V2.69231H148.616C149.339 2.69231 149.864 2.75398 150.191 2.87734C150.52 2.99761 150.783 3.21348 150.981 3.52495C151.178 3.83643 151.276 4.19261 151.276 4.59352C151.276 5.10236 151.127 5.52331 150.828 5.85637C150.529 6.18634 150.083 6.39451 149.489 6.48085C149.784 6.65355 150.027 6.84321 150.218 7.04983C150.412 7.25645 150.673 7.62343 150.999 8.15078L151.826 9.47376H150.191L149.202 7.99812C148.851 7.47078 148.611 7.13926 148.482 7.00357C148.352 6.8648 148.215 6.77074 148.071 6.7214C147.926 6.66897 147.697 6.64276 147.382 6.64276H147.105V9.47376H145.738ZM147.105 5.56032H148.117C148.773 5.56032 149.182 5.53256 149.345 5.47705C149.509 5.42154 149.636 5.32594 149.729 5.19025C149.821 5.05456 149.867 4.88495 149.867 4.68141C149.867 4.4532 149.806 4.26971 149.683 4.13094C149.563 3.98908 149.392 3.89965 149.17 3.86264C149.059 3.84722 148.727 3.83951 148.172 3.83951H147.105V5.56032Z" fill="#F5F5F5"/>
<path d="M152.906 9.47376V2.69231H154.273V9.47376H152.906Z" fill="#F5F5F5"/>
<path d="M155.973 9.47376V2.69231H157.303L160.074 7.22099V2.69231H161.344V9.47376H159.973L157.243 5.05148V9.47376H155.973Z" fill="#F5F5F5"/>
<path d="M164.697 9.47376V3.83951H162.688V2.69231H168.069V3.83951H166.064V9.47376H164.697Z" fill="#F5F5F5"/>
<path d="M169.334 9.47376V2.69231H174.355V3.83951H170.701V5.3429H174.101V6.48548H170.701V8.33118H174.484V9.47376H169.334Z" fill="#F5F5F5"/>
<path d="M176.036 9.47376V2.69231H177.366L180.137 7.22099V2.69231H181.407V9.47376H180.036L177.306 5.05148V9.47376H176.036Z" fill="#F5F5F5"/>
<path d="M183.231 2.69231H185.73C186.294 2.69231 186.723 2.73548 187.019 2.82183C187.416 2.93902 187.756 3.14718 188.04 3.44631C188.323 3.74545 188.539 4.11243 188.686 4.54726C188.834 4.979 188.908 5.51252 188.908 6.1478C188.908 6.70598 188.839 7.18706 188.7 7.59105C188.531 8.08447 188.289 8.48384 187.975 8.78914C187.738 9.02043 187.418 9.20084 187.014 9.33036C186.713 9.42596 186.309 9.47376 185.804 9.47376H183.231V2.69231ZM184.599 3.83951V8.33118H185.619C186.001 8.33118 186.277 8.3096 186.446 8.26642C186.668 8.21091 186.851 8.11685 186.996 7.98425C187.144 7.85164 187.264 7.63423 187.356 7.33201C187.448 7.0267 187.495 6.61192 187.495 6.08766C187.495 5.5634 187.448 5.16095 187.356 4.88032C187.264 4.59969 187.134 4.38073 186.968 4.22345C186.802 4.06617 186.591 3.95978 186.335 3.90427C186.144 3.8611 185.77 3.83951 185.213 3.83951H184.599Z" fill="#F5F5F5"/>
<path d="M190.45 9.47376V2.69231H195.471V3.83951H191.817V5.3429H195.217V6.48548H191.817V8.33118H195.6V9.47376H190.45Z" fill="#F5F5F5"/>
<path d="M197.152 9.47376V2.69231H198.482L201.253 7.22099V2.69231H202.524V9.47376H201.152L198.422 5.05148V9.47376H197.152Z" fill="#F5F5F5"/>
<path d="M208.685 6.98044L210.01 7.40139C209.807 8.14152 209.468 8.692 208.994 9.05281C208.523 9.41054 207.924 9.58941 207.197 9.58941C206.298 9.58941 205.559 9.28256 204.98 8.66887C204.401 8.05209 204.112 7.21019 204.112 6.14317C204.112 5.01447 204.403 4.13865 204.985 3.5157C205.567 2.88967 206.332 2.57666 207.281 2.57666C208.109 2.57666 208.782 2.82183 209.299 3.31217C209.607 3.60205 209.838 4.01837 209.992 4.56114L208.638 4.88495C208.558 4.53338 208.391 4.25583 208.135 4.0523C207.883 3.84876 207.575 3.74699 207.211 3.74699C206.709 3.74699 206.301 3.9274 205.987 4.28821C205.676 4.64903 205.521 5.23342 205.521 6.0414C205.521 6.89872 205.675 7.50933 205.983 7.87323C206.291 8.23712 206.691 8.41907 207.184 8.41907C207.547 8.41907 207.859 8.30343 208.121 8.07214C208.383 7.84085 208.571 7.47695 208.685 6.98044Z" fill="#F5F5F5"/>
<path d="M211.525 9.47376V2.69231H212.892V9.47376H211.525Z" fill="#F5F5F5"/>
<path d="M220.684 9.47376H219.196L218.605 7.93336H215.899L215.34 9.47376H213.889L216.527 2.69231H217.972L220.684 9.47376ZM218.166 6.79078L217.233 4.27434L216.319 6.79078H218.166Z" fill="#F5F5F5"/>
<path d="M224.461 9.47376V2.69231H229.103V3.83951H225.828V5.44467H228.655V6.59187H225.828V9.47376H224.461Z" fill="#F5F5F5"/>
<path d="M230.571 9.47376V2.69231H231.939V9.47376H230.571Z" fill="#F5F5F5"/>
<path d="M233.638 9.47376V2.69231H234.968L237.739 7.22099V2.69231H239.01V9.47376H237.638L234.908 5.05148V9.47376H233.638Z" fill="#F5F5F5"/>
<path d="M246.944 9.47376H245.457L244.866 7.93336H242.159L241.6 9.47376H240.15L242.787 2.69231H244.233L246.944 9.47376ZM244.427 6.79078L243.494 4.27434L242.58 6.79078H244.427Z" fill="#F5F5F5"/>
<path d="M248.066 9.47376V2.69231H249.397L252.168 7.22099V2.69231H253.438V9.47376H252.066L249.337 5.05148V9.47376H248.066Z" fill="#F5F5F5"/>
<path d="M259.599 6.98044L260.925 7.40139C260.722 8.14152 260.383 8.692 259.909 9.05281C259.438 9.41054 258.839 9.58941 258.112 9.58941C257.213 9.58941 256.474 9.28256 255.895 8.66887C255.316 8.05209 255.027 7.21019 255.027 6.14317C255.027 5.01447 255.318 4.13865 255.9 3.5157C256.481 2.88967 257.247 2.57666 258.195 2.57666C259.023 2.57666 259.696 2.82183 260.213 3.31217C260.521 3.60205 260.752 4.01837 260.906 4.56114L259.553 4.88495C259.473 4.53338 259.305 4.25583 259.05 4.0523C258.797 3.84876 258.489 3.74699 258.126 3.74699C257.624 3.74699 257.216 3.9274 256.902 4.28821C256.591 4.64903 256.435 5.23342 256.435 6.0414C256.435 6.89872 256.589 7.50933 256.897 7.87323C257.205 8.23712 257.605 8.41907 258.098 8.41907C258.461 8.41907 258.774 8.30343 259.036 8.07214C259.297 7.84085 259.485 7.47695 259.599 6.98044Z" fill="#F5F5F5"/>
<path d="M262.439 9.47376V2.69231H263.807V9.47376H262.439Z" fill="#F5F5F5"/>
<path d="M265.492 9.47376V2.69231H270.513V3.83951H266.859V5.3429H270.259V6.48548H266.859V8.33118H270.642V9.47376H265.492Z" fill="#F5F5F5"/>
<path d="M272.184 9.47376V2.69231H275.062C275.785 2.69231 276.311 2.75398 276.637 2.87734C276.966 2.99761 277.23 3.21348 277.427 3.52495C277.624 3.83643 277.722 4.19261 277.722 4.59352C277.722 5.10236 277.573 5.52331 277.274 5.85637C276.976 6.18634 276.529 6.39451 275.935 6.48085C276.23 6.65355 276.474 6.84321 276.665 7.04983C276.859 7.25645 277.119 7.62343 277.445 8.15078L278.272 9.47376H276.637L275.648 7.99812C275.297 7.47078 275.057 7.13926 274.928 7.00357C274.799 6.8648 274.662 6.77074 274.517 6.7214C274.372 6.66897 274.143 6.64276 273.829 6.64276H273.552V9.47376H272.184ZM273.552 5.56032H274.563C275.219 5.56032 275.628 5.53256 275.792 5.47705C275.955 5.42154 276.083 5.32594 276.175 5.19025C276.267 5.05456 276.314 4.88495 276.314 4.68141C276.314 4.4532 276.252 4.26971 276.129 4.13094C276.009 3.98908 275.838 3.89965 275.616 3.86264C275.505 3.84722 275.173 3.83951 274.618 3.83951H273.552V5.56032Z" fill="#F5F5F5"/>
<path d="M285.5 9.47376H284.013L283.422 7.93336H280.715L280.156 9.47376H278.706L281.343 2.69231H282.789L285.5 9.47376ZM282.983 6.79078L282.05 4.27434L281.135 6.79078H282.983Z" fill="#F5F5F5"/>
<path d="M166.808 14.0607H169.306C169.87 14.0607 170.299 14.1039 170.595 14.1903C170.992 14.3074 171.332 14.5156 171.616 14.8147C171.899 15.1139 172.115 15.4809 172.262 15.9157C172.41 16.3474 172.484 16.8809 172.484 17.5162C172.484 18.0744 172.415 18.5555 172.276 18.9595C172.107 19.4529 171.865 19.8523 171.551 20.1576C171.314 20.3889 170.994 20.5693 170.59 20.6988C170.289 20.7944 169.885 20.8422 169.38 20.8422H166.808V14.0607ZM168.175 15.2079V19.6996H169.195C169.577 19.6996 169.853 19.678 170.022 19.6348C170.244 19.5793 170.427 19.4853 170.572 19.3527C170.72 19.2201 170.84 19.0026 170.932 18.7004C171.025 18.3951 171.071 17.9803 171.071 17.4561C171.071 16.9318 171.025 16.5294 170.932 16.2487C170.84 15.9681 170.71 15.7492 170.544 15.5919C170.378 15.4346 170.167 15.3282 169.911 15.2727C169.72 15.2295 169.346 15.2079 168.789 15.2079H168.175Z" fill="#F5F5F5"/>
<path d="M174.026 20.8422V14.0607H179.047V15.2079H175.394V16.7113H178.793V17.8539H175.394V19.6996H179.176V20.8422H174.026Z" fill="#F5F5F5"/>
<path d="M188.058 18.3489L189.383 18.7698C189.18 19.5099 188.841 20.0604 188.367 20.4212C187.896 20.779 187.297 20.9578 186.57 20.9578C185.671 20.9578 184.932 20.651 184.353 20.0373C183.774 19.4205 183.485 18.5786 183.485 17.5116C183.485 16.3829 183.776 15.5071 184.358 14.8841C184.94 14.2581 185.705 13.9451 186.653 13.9451C187.482 13.9451 188.155 14.1903 188.672 14.6806C188.98 14.9705 189.211 15.3868 189.365 15.9296L188.011 16.2534C187.931 15.9018 187.764 15.6243 187.508 15.4207C187.255 15.2172 186.948 15.1154 186.584 15.1154C186.082 15.1154 185.674 15.2958 185.36 15.6566C185.049 16.0175 184.894 16.6018 184.894 17.4098C184.894 18.2671 185.048 18.8778 185.356 19.2416C185.664 19.6055 186.064 19.7875 186.556 19.7875C186.92 19.7875 187.232 19.6719 187.494 19.4406C187.756 19.2093 187.944 18.8454 188.058 18.3489Z" fill="#F5F5F5"/>
<path d="M190.662 17.4931C190.662 16.8023 190.765 16.2225 190.972 15.7538C191.126 15.4084 191.335 15.0985 191.6 14.824C191.868 14.5495 192.16 14.346 192.477 14.2134C192.899 14.0345 193.386 13.9451 193.937 13.9451C194.935 13.9451 195.732 14.255 196.33 14.8749C196.93 15.4947 197.23 16.3567 197.23 17.4607C197.23 18.5555 196.933 19.4128 196.339 20.0327C195.744 20.6494 194.95 20.9578 193.955 20.9578C192.949 20.9578 192.148 20.651 191.554 20.0373C190.959 19.4205 190.662 18.5724 190.662 17.4931ZM192.071 17.4468C192.071 18.2147 192.248 18.7976 192.602 19.1954C192.956 19.5901 193.406 19.7875 193.951 19.7875C194.496 19.7875 194.942 19.5917 195.29 19.2C195.641 18.8053 195.817 18.2147 195.817 17.4283C195.817 16.6512 195.646 16.0714 195.304 15.689C194.965 15.3066 194.514 15.1154 193.951 15.1154C193.387 15.1154 192.933 15.3097 192.588 15.6983C192.243 16.0838 192.071 16.6666 192.071 17.4468Z" fill="#F5F5F5"/>
<path d="M198.717 20.8422V14.1162H200.084V19.6996H203.484V20.8422H198.717Z" fill="#F5F5F5"/>
<path d="M204.564 17.4931C204.564 16.8023 204.667 16.2225 204.874 15.7538C205.028 15.4084 205.237 15.0985 205.502 14.824C205.77 14.5495 206.062 14.346 206.379 14.2134C206.801 14.0345 207.288 13.9451 207.839 13.9451C208.837 13.9451 209.634 14.255 210.231 14.8749C210.832 15.4947 211.132 16.3567 211.132 17.4607C211.132 18.5555 210.835 19.4128 210.241 20.0327C209.646 20.6494 208.852 20.9578 207.857 20.9578C206.85 20.9578 206.05 20.651 205.456 20.0373C204.861 19.4205 204.564 18.5724 204.564 17.4931ZM205.973 17.4468C205.973 18.2147 206.15 18.7976 206.504 19.1954C206.858 19.5901 207.308 19.7875 207.853 19.7875C208.398 19.7875 208.844 19.5917 209.192 19.2C209.543 18.8053 209.719 18.2147 209.719 17.4283C209.719 16.6512 209.548 16.0714 209.206 15.689C208.867 15.3066 208.416 15.1154 207.853 15.1154C207.289 15.1154 206.835 15.3097 206.49 15.6983C206.145 16.0838 205.973 16.6666 205.973 17.4468Z" fill="#F5F5F5"/>
<path d="M212.564 20.8422V14.0607H214.61L215.838 18.6866L217.053 14.0607H219.104V20.8422H217.834V15.504L216.49 20.8422H215.173L213.834 15.504V20.8422H212.564Z" fill="#F5F5F5"/>
<path d="M220.845 14.0607H223.551C224.087 14.0607 224.486 14.0839 224.748 14.1301C225.012 14.1733 225.248 14.2658 225.454 14.4077C225.664 14.5495 225.838 14.7392 225.976 14.9766C226.115 15.211 226.184 15.4747 226.184 15.7677C226.184 16.0853 226.098 16.3767 225.925 16.6419C225.756 16.9072 225.525 17.1061 225.233 17.2387C225.645 17.3589 225.962 17.564 226.184 17.8539C226.406 18.1438 226.517 18.4846 226.517 18.8762C226.517 19.1846 226.444 19.4853 226.3 19.7782C226.158 20.0681 225.962 20.301 225.713 20.4767C225.467 20.6494 225.162 20.7558 224.798 20.7959C224.571 20.8206 224.021 20.836 223.15 20.8422H220.845V14.0607ZM222.212 15.1894V16.7576H223.108C223.641 16.7576 223.972 16.7499 224.101 16.7345C224.335 16.7067 224.518 16.6265 224.651 16.4939C224.786 16.3582 224.854 16.1809 224.854 15.9619C224.854 15.7522 224.795 15.5826 224.678 15.4531C224.564 15.3205 224.394 15.2403 224.166 15.2126C224.03 15.1971 223.641 15.1894 222.997 15.1894H222.212ZM222.212 17.8863V19.6996H223.477C223.97 19.6996 224.283 19.6857 224.415 19.658C224.618 19.621 224.783 19.5315 224.909 19.3897C225.039 19.2447 225.103 19.052 225.103 18.8114C225.103 18.6079 225.054 18.4352 224.955 18.2934C224.857 18.1515 224.714 18.0482 224.526 17.9834C224.341 17.9187 223.938 17.8863 223.316 17.8863H222.212Z" fill="#F5F5F5"/>
<path d="M228.013 20.8422V14.0607H229.38V20.8422H228.013Z" fill="#F5F5F5"/>
<path d="M237.172 20.8422H235.684L235.093 19.3018H232.386L231.828 20.8422H230.377L233.015 14.0607H234.46L237.172 20.8422ZM234.654 18.1592L233.721 15.6428L232.807 18.1592H234.654Z" fill="#F5F5F5"/>
</svg>
